<?xml version="1.0" encoding="UTF-8"?>
<svg width="33px" height="29px" viewBox="0 0 33 29" version="1.1" xmlns="http://www.w3.org/2000/svg" xmlns:xlink="http://www.w3.org/1999/xlink">
    <title>Untitled</title>
    <g id="Page-1" stroke="none" stroke-width="1" fill="none" fill-rule="evenodd">
        <g id="bata" transform="translate(0.994912, 0.962091)">
            <path d="M13.4350881,3.32790895 C8.17508807,2.09790895 1.89508807,3.72790895 0.295088069,12.187909 C-1.30491193,20.647909 3.68508807,24.727909 13.2350881,24.827909 C22.7850881,24.927909 32.8450881,23.037909 31.1550881,15.467909 C29.4650881,7.89790895 24.1550881,8.10790895 21.6050881,8.46790895 C19.0550881,8.82790895 17.7150881,4.31790895 13.4350881,3.32790895 Z" id="Path" fill="#E8F4FA" fill-rule="nonzero"></path>
            <path d="M22.7750881,15.587909 L27.0150881,12.587909 C25.9250881,10.437909 24.8850881,8.32790895 23.7950881,6.24790895 C23.097866,4.64686917 22.2151624,3.13318345 21.1650881,1.73790895 C20.9911797,1.54216797 20.7805281,1.38248044 20.5450881,1.26790895 L20.5450881,1.26790895 L20.4150881,1.20790895 C20.1750881,1.08790895 20.1350881,1.00790895 19.7050881,0.777908951 C19.1134322,0.524074481 18.5053975,0.31026008 17.8850881,0.137908951 L17.7450881,0.137908951 C16.9850881,0.387908951 15.4450881,5.63790895 15.4450881,5.63790895 C15.4450881,5.63790895 14.0750881,0.327908951 13.3350881,0.0379089506 C13.3350881,0.0379089506 13.2350881,-0.132091049 12.5750881,0.247908951 L12.5750881,0.247908951 L11.5750881,0.657908951 C11.2068021,0.761198004 10.8512503,0.905431278 10.5150881,1.08790895 C10.2650881,1.27790895 10.0550881,1.37790895 9.89508807,1.52790895 C9.84753169,1.56360239 9.80686904,1.6076536 9.77508807,1.65790895 C9.48368948,2.03452754 9.22602732,2.43607895 9.00508807,2.85790895 C7.67175474,5.39124228 6.3384214,7.93124228 5.00508807,10.477909 L3.88508807,12.667909 C5.32508807,13.667909 6.66508807,14.667909 8.18508807,15.577909 C9.00508807,13.037909 9.81508807,10.537909 10.6250881,8.03790895 L10.7150881,8.03790895 C10.7150881,8.09790895 10.7150881,8.15790895 10.7150881,8.21790895 C10.5250881,9.44790895 10.3450881,10.687909 10.1550881,11.917909 L8.75508807,21.137909 C8.50508807,22.827909 8.24508807,24.517909 7.98508807,26.207909 C7.98508807,26.447909 7.98508807,26.567909 8.24508807,26.617909 C8.68508807,26.697909 9.11508807,26.837909 9.55508807,26.897909 C11.9038762,27.1795345 14.2711357,27.2764985 16.6350881,27.187909 C18.4676566,27.1872615 20.2948372,26.9894566 22.0850881,26.597909 C22.3150881,26.597909 22.3950881,26.467909 22.3650881,26.227909 C22.2650881,25.597909 22.2050881,24.947909 22.1250881,24.307909 L21.1950881,16.307909 C20.8850881,13.627909 20.5650881,10.947909 20.2550881,8.30790895 C20.2550881,8.11790895 20.2550881,7.91790895 20.2550881,7.72790895 L20.3450881,7.72790895 C21.1350881,10.277909 21.9450881,12.907909 22.7750881,15.587909 Z" id="Path" fill="#A5D8EE"></path>
            <path d="M10.1350881,11.957909 C13.6076246,12.745795 17.2125516,12.745795 20.6850881,11.957909 C17.1789707,12.3431277 13.6412054,12.3431277 10.1350881,11.957909 L10.1350881,11.957909 Z" id="Path" fill="#11B0DE" fill-rule="nonzero"></path>
            <path d="M17.0050881,12.447909 C17.0050881,12.447909 16.5650881,17.147909 18.1850881,26.947909 C18.1450881,26.947909 16.7350881,16.697909 17.0050881,12.447909 Z" id="Path" fill="#11B0DE"></path>
            <path d="M15.4250881,5.68790895 C15.4250881,5.68790895 15.0950881,8.44790895 17.1750881,12.447909 C16.2871608,10.2846073 15.6984027,8.01031893 15.4250881,5.68790895 L15.4250881,5.68790895 Z" id="Path" fill="#11B0DE"></path>
            <path d="M17.1750881,12.127909 C17.1750881,12.127909 15.2950881,10.637909 15.4150881,11.437909 C15.5350881,12.237909 16.5050881,12.427909 17.1750881,12.127909 Z" id="Path" fill="#11B0DE"></path>
            <path d="M16.6450881,12.127909 C16.6450881,12.127909 18.5350881,10.637909 18.4050881,11.437909 C18.2750881,12.237909 17.3150881,12.427909 16.6450881,12.127909 Z" id="Path" fill="#11B0DE"></path>
        </g>
    </g>
</svg>