<?xml version="1.0" encoding="UTF-8"?>
<svg width="34px" height="29px" viewBox="0 0 34 29" version="1.1" xmlns="http://www.w3.org/2000/svg" xmlns:xlink="http://www.w3.org/1999/xlink">
    <title>Untitled</title>
    <g id="Page-1" stroke="none" stroke-width="1" fill="none" fill-rule="evenodd">
        <g id="blusas_camisas" fill-rule="nonzero">
            <path d="M14.35,6.72 C9.6,5.61 3.92,7.08 2.48,14.72 C1.04,22.36 5.54,26.06 14.17,26.15 C22.8,26.24 31.89,24.53 30.36,17.69 C28.83,10.85 24.07,11.04 21.73,11.39 C19.39,11.74 18.22,7.62 14.35,6.72 Z" id="Path" fill="#E8F4FA"></path>
            <polygon id="Path" fill="#484E5F" points="33.67 24.53 25.94 3.6 25.94 3.6 6.06 3.66 5.97 3.66 0 24.53 4.55 26.8 8.19 13.61 8.34 28.17 24.64 28.17 24.64 13.61 29.12 26.8"></polygon>
            <polygon id="Path" fill="#151C32" points="14.57 7.4 11.34 3.69 13.11 2.2 16.37 4.45"></polygon>
            <polygon id="Path" fill="#151C32" points="18.16 7.4 21.39 3.69 19.62 2.2 16.37 4.45"></polygon>
            <polygon id="Path" fill="#151C32" points="19.66 3.75 16.32 4.45 13.04 3.75 13.04 1.32 19.66 1.32"></polygon>
            <polygon id="Path" fill="#484E5F" points="14.57 6.53 11.34 3.69 13.11 1.32 16.37 4.45"></polygon>
            <polygon id="Path" fill="#484E5F" points="18.16 6.53 21.39 3.69 19.62 1.32 16.37 4.45"></polygon>
            <polygon id="Path" fill="#151C32" points="16.01 28.17 16.25 28.17 16.25 4.62 15.89 5.09"></polygon>
            <circle id="Oval" fill="#FFFFFF" cx="16.38" cy="6.21" r="1"></circle>
            <circle id="Oval" fill="#FFFFFF" cx="16.38" cy="9.57" r="1"></circle>
            <circle id="Oval" fill="#FFFFFF" cx="16.38" cy="12.93" r="1"></circle>
            <circle id="Oval" fill="#FFFFFF" cx="16.38" cy="16.28" r="1"></circle>
            <circle id="Oval" fill="#FFFFFF" cx="16.38" cy="19.64" r="1"></circle>
            <circle id="Oval" fill="#FFFFFF" cx="16.38" cy="26.75" r="1"></circle>
            <circle id="Oval" fill="#FFFFFF" cx="16.38" cy="23.28" r="1"></circle>
            <circle id="Oval" fill="#7FBC5B" cx="25.55" cy="6.05" r="6.05"></circle>
            <text id="x" fill="#FFFFFF" font-family="Helvetica" font-size="6.82" font-weight="normal">
                <tspan x="21.43" y="8.25">x</tspan>
            </text>
        </g>
    </g>
</svg>