<?xml version="1.0" encoding="UTF-8"?>
<svg width="35px" height="35px" viewBox="0 0 35 35" version="1.1" xmlns="http://www.w3.org/2000/svg" xmlns:xlink="http://www.w3.org/1999/xlink">
    <title>Untitled 3</title>
    <g id="Page-1" stroke="none" stroke-width="1" fill="none" fill-rule="evenodd">
        <g id="buzo" transform="translate(0.999281, 1.000000)" fill-rule="nonzero">
            <path d="M14.290719,7 C8.70071902,5.65 2.00071902,7.38 0.310719016,16.38 C-1.37928098,25.38 3.91071902,29.72 14.080719,29.83 C24.250719,29.94 34.940719,27.92 33.140719,19.83 C31.340719,11.74 25.730719,12 23.000719,12.46 C20.270719,12.92 18.840719,8 14.290719,7 Z" id="Path" fill="#E8F4FA"></path>
            <g id="flat" transform="translate(3.370642, 0.000000)">
                <polygon id="Path" fill="#11B0DE" points="9.72007674 2 15.5400767 2 15.5400767 8.13 9.72007674 8.13"></polygon>
                <polygon id="Path" fill="#DEF0F8" points="20.3200767 28.68 4.78007674 28.68 4.78007674 10.76 7.78007674 9.56 17.3300767 9.56 20.3300767 10.76"></polygon>
                <path d="M14.9400767,7.17 L14.9400767,4.43 C14.9400767,3.3254305 14.0446462,2.43 12.9400767,2.43 L12.2400767,2.43 C11.6986491,2.42683777 11.1790733,2.64332768 10.8000767,3.03 C10.4134044,3.40899658 10.1969145,3.92857236 10.2000767,4.47 L10.2000767,7.17 L7.81001407,7.92 L7.81001407,4.6 C7.80460444,3.55699351 8.15764359,2.54377114 8.81007674,1.73 C9.6743681,0.645024626 10.9829617,0.00910695805 12.3700767,-5.09592368e-16 L12.7300767,-5.09592368e-16 C15.2683049,0.00549997211 17.3245768,2.0617718 17.3300767,4.6 L17.3300767,8.07 L14.9400767,7.17 Z" id="Path" fill="#DEF0F8"></path>
                <path d="M12.5500767,9.56 L7.77007674,9.56 C7.39042908,8.80856315 7.39042908,7.92143685 7.77007674,7.17 L11.3700767,6.72 C11.648182,6.67120566 11.9339542,6.74225425 12.1568304,6.91560243 C12.3797066,7.0889506 12.5189131,7.34844095 12.5400767,7.63 C12.5454113,7.67316915 12.5454113,7.71683085 12.5400767,7.76 L12.5500767,9.56 Z" id="Path" fill="#11B0DE"></path>
                <path d="M17.3300767,9.56 L12.5500767,9.56 L12.5500767,7.76 C12.5500767,7.20771525 12.997792,6.76 13.5500767,6.76 L13.6800767,6.76 L17.2900767,7.21 C17.6690559,7.94425759 17.6838476,8.81327006 17.3300767,9.56 L17.3300767,9.56 Z" id="Path" fill="#11B0DE"></path>
                <path d="M20.3200767,19.72 C20.4783026,19.7200227 20.629907,19.6564914 20.7408455,19.5436726 C20.8517839,19.4308538 20.9127585,19.2782031 20.9100767,19.12 C20.912813,18.9626994 20.8515316,18.8110355 20.7402864,18.6997903 C20.6290413,18.5885452 20.4773774,18.5272637 20.3200767,18.53 L13.1500767,18.53 L13.1500767,14.94 L20.3200767,14.94 C20.6514476,14.94 20.9200767,14.6713708 20.9200767,14.34 C20.9200767,14.0086292 20.6514476,13.74 20.3200767,13.74 L13.1500767,13.74 L13.1500767,9.56 C13.1500767,9.22862915 12.8814476,8.96 12.5500767,8.96 C12.2187059,8.96 11.9500767,9.22862915 11.9500767,9.56 L11.9500767,13.74 L4.78007674,13.74 C4.44870591,13.74 4.18007674,14.0086292 4.18007674,14.34 C4.18007674,14.6713708 4.44870591,14.94 4.78007674,14.94 L11.9500767,14.94 L11.9500767,18.53 L4.78007674,18.53 C4.62187362,18.5273182 4.46922295,18.5882928 4.35640417,18.6992313 C4.24358539,18.8101697 4.18007674,18.9617741 4.18007674,19.12 C4.18007674,19.2791299 4.24329085,19.4317422 4.35581267,19.5442641 C4.4683345,19.6567859 4.62094685,19.72 4.78007674,19.72 L11.9500767,19.72 L11.9500767,23.31 L4.78007674,23.31 C4.62187362,23.3073182 4.46922295,23.3682928 4.35640417,23.4792313 C4.24358539,23.5901697 4.18007674,23.7417741 4.18007674,23.9 C4.18007674,24.0591299 4.24329085,24.2117422 4.35581267,24.3242641 C4.4683345,24.4367859 4.62094685,24.5 4.78007674,24.5 L11.9500767,24.5 L11.9500767,28.68 C11.9500767,29.0113708 12.2187059,29.28 12.5500767,29.28 C12.8814476,29.28 13.1500767,29.0113708 13.1500767,28.68 L13.1500767,24.5 L20.3200767,24.5 C20.4783026,24.5000227 20.629907,24.4364914 20.7408455,24.3236726 C20.8517839,24.2108538 20.9127585,24.0582031 20.9100767,23.9 C20.912813,23.7426994 20.8515316,23.5910355 20.7402864,23.4797903 C20.6290413,23.3685452 20.4773774,23.3072637 20.3200767,23.31 L13.1500767,23.31 L13.1500767,19.72 L20.3200767,19.72 Z" id="Path" fill="#11B0DE"></path>
                <polygon id="Path" fill="#11B0DE" points="5.38007674 28.68 19.7200767 28.68 19.7200767 31.08 5.38007674 31.08"></polygon>
                <path d="M4.78007674,10.76 L3.35007674,11.47 C2.72290769,11.7939745 2.23828679,12.339173 1.99007674,13 L0.690076743,16.24 C0.231885126,17.3882964 -0.00232703716,18.6136673 8.8817842e-16,19.85 L8.8817842e-16,19.85 C-0.00589189677,21.3544433 0.336369978,22.8398598 1.00007674,24.19 L4.44007674,31 C4.62732894,31.3642876 5.06958424,31.5146544 5.44007674,31.34 L9.55007674,29.28 L4.77007674,20.28 L4.78007674,10.76 Z" id="Path" fill="#11B0DE"></path>
                <path d="M20.3200767,10.76 L21.7400767,11.47 C22.3698312,11.7935563 22.8577636,12.3384734 23.1100767,13 L24.4000767,16.24 C24.8614521,17.3876936 25.0990542,18.6130413 25.1000767,19.85 L25.1000767,19.85 C25.1108205,21.3549729 24.7683089,22.8414732 24.1000767,24.19 L20.6300767,31 C20.4465953,31.3686295 20.0002265,31.5203949 19.6300767,31.34 L15.5200767,29.28 L20.3000767,20.28 L20.3200767,10.76 Z" id="Path" fill="#11B0DE"></path>
                <polygon id="Path" fill="#DEF0F8" points="9.56007674 29.28 10.7600767 31.08 6.57007674 33.47 5.36007674 31.39"></polygon>
                <polygon id="Path" fill="#DEF0F8" points="15.5400767 29.28 14.3400767 31.08 18.5200767 33.47 19.7300767 31.39"></polygon>
            </g>
        </g>
    </g>
</svg>