<?xml version="1.0" encoding="UTF-8"?>
<svg width="44px" height="40px" viewBox="0 0 44 40" version="1.1" xmlns="http://www.w3.org/2000/svg" xmlns:xlink="http://www.w3.org/1999/xlink">
    <title>Untitled 4</title>
    <g id="Page-1" stroke="none" stroke-width="1" fill="none" fill-rule="evenodd">
        <g id="camisa" transform="translate(0.994534, 0.991533)" fill-rule="nonzero">
            <path d="M18.425466,7.0084666 C11.215466,5.3184666 2.59546598,7.5384666 0.405465982,19.1384666 C-1.78453402,30.7384666 5.00546598,36.3284666 18.145466,36.4684666 C31.285466,36.6084666 45.005466,34.0084666 42.715466,23.6384666 C40.425466,13.2684666 33.155466,13.5384666 29.615466,14.0884666 C26.075466,14.6384666 24.285466,8.3584666 18.425466,7.0084666 Z" id="Path" fill="#DAF0F9"></path>
            <path d="M38.005466,12.2584666 C37.125466,9.1684666 36.885466,7.7284666 34.515466,4.4684666 C30.205466,-0.691533398 25.005466,0.00846660152 24.765466,0.0584666015 C24.3529059,0.12306283 24.0504396,0.480910364 24.055466,0.898466602 L24.055466,1.8084666 C24.0872125,2.37085598 24.0502733,2.93501825 23.945466,3.4884666 C23.6401262,4.57453781 22.5977614,5.28351472 21.475466,5.1684666 C20.3542343,5.27932218 19.3143142,4.57200814 19.005466,3.4884666 C18.9006586,2.93501825 18.8637195,2.37085598 18.895466,1.8084666 L18.895466,0.898466602 C18.9004924,0.480910364 18.598026,0.12306283 18.185466,0.0584666015 C18.005466,0.00846660152 12.735466,-0.691533398 8.42546598,4.4684666 C6.05546598,7.7284666 5.81546598,9.1684666 4.93546598,12.2584666 C3.39546598,17.7184666 0.165465982,31.3084666 0.275465982,32.0084666 C0.385465982,32.7084666 4.68546598,34.2984666 4.68546598,34.2984666 C5.07546598,34.4884666 5.55546598,34.7384666 5.68546598,34.5084666 L11.235466,15.6084666 L11.235466,37.6084666 C11.2408661,38.0701305 11.6138021,38.4430665 12.075466,38.4484666 L30.865466,38.4484666 C31.3271299,38.4430665 31.7000659,38.0701305 31.705466,37.6084666 L31.705466,15.6084666 L37.285466,34.4684666 C37.385466,34.6984666 37.875466,34.4684666 38.285466,34.2584666 C38.285466,34.2584666 42.595466,32.6184666 42.695466,31.9684666 C42.795466,31.3184666 39.545466,17.7184666 38.005466,12.2584666 Z" id="Path" fill="#00B2E3"></path>
        </g>
    </g>
</svg>