<?xml version="1.0" encoding="UTF-8"?>
<svg width="35px" height="27px" viewBox="0 0 35 27" version="1.1" xmlns="http://www.w3.org/2000/svg" xmlns:xlink="http://www.w3.org/1999/xlink">
    <title>Untitled 7</title>
    <g id="Page-1" stroke="none" stroke-width="1" fill="none" fill-rule="evenodd">
        <g id="chaqueton" transform="translate(0.999281, 0.000000)" fill-rule="nonzero">
            <path d="M14.290719,2.22 C8.70071902,0.92 2.00071902,2.64 0.310719016,11.64 C-1.37928098,20.64 3.91071902,25 14.080719,25.09 C24.250719,25.18 34.940719,23.18 33.140719,15.14 C31.340719,7.1 25.730719,7.3 23.000719,7.72 C20.270719,8.14 18.840719,3.28 14.290719,2.22 Z" id="Path" fill="#E8F4FA"></path>
            <polygon id="Path" fill="#A5D8EE" points="24.280719 26.7 9.06071902 26.7 9.06071902 1.6 13.330719 0 20.000719 0 24.270719 1.6"></polygon>
            <polygon id="Path" fill="#A5D8EE" points="24.280719 1.6 20.000719 0 16.600719 0 16.600719 26.7 24.280719 26.7"></polygon>
            <polygon id="Path" fill="#FFFFFF" points="10.200719 15.14 12.590719 13.14 13.450719 14.19 11.060719 16.19"></polygon>
            <polygon id="Path" fill="#FFFFFF" points="22.280719 16.25 19.890719 14.25 20.750719 13.25 23.140719 15.25"></polygon>
            <path d="M9.06071902,1.6 L5.82071902,7.91 C5.42042439,8.68624269 5.48999042,9.62151937 6.00071902,10.33 L9.92071902,15.5 C9.9905023,15.5948304 10.0953808,15.6577369 10.2118987,15.6746508 C10.3284167,15.6915647 10.4468527,15.6610748 10.540719,15.59 L13.000719,13.69 C13.0888022,13.6068733 13.1387256,13.4911144 13.1387256,13.37 C13.1387256,13.2488856 13.0888022,13.1331267 13.000719,13.05 L9.06071902,8.73 L9.06071902,1.6 Z" id="Path" fill="#11B0DE"></path>
            <path d="M24.280719,1.6 L27.510719,7.91 C27.9120248,8.68990951 27.8303707,9.63087605 27.300719,10.33 L23.420719,15.5 C23.3509357,15.5948304 23.2460572,15.6577369 23.1295393,15.6746508 C23.0130214,15.6915647 22.8945853,15.6610748 22.800719,15.59 L20.380719,13.69 C20.2857974,13.6139825 20.2265701,13.5020694 20.2170982,13.3808297 C20.2076264,13.2595901 20.2487547,13.1398367 20.330719,13.05 L24.330719,8.73 L24.280719,1.6 Z" id="Path" fill="#11B0DE"></path>
            <polygon id="Path" fill="#FFFFFF" points="9.84071902 16.8 14.640719 16.8 14.640719 18.55 9.84071902 18.55"></polygon>
            <polygon id="Path" fill="#FFFFFF" points="18.690719 16.8 23.500719 16.8 23.500719 18.55 18.690719 18.55"></polygon>
            <polygon id="Path" fill="#FFFFFF" points="15.920719 3.25 17.420719 3.25 17.420719 26.7 15.920719 26.7"></polygon>
            <polygon id="Path" fill="#11B0DE" points="15.920719 3.25 17.420719 3.25 17.420719 26.7 15.920719 26.7"></polygon>
            <polygon id="Path" fill="#11B0DE" points="13.330719 0 20.010719 0 17.420719 3.25 15.920719 3.25"></polygon>
        </g>
    </g>
</svg>