<?xml version="1.0" encoding="UTF-8"?>
<svg width="33px" height="31px" viewBox="0 0 33 31" version="1.1" xmlns="http://www.w3.org/2000/svg" xmlns:xlink="http://www.w3.org/1999/xlink">
    <title>Untitled 8</title>
    <g id="Page-1" stroke="none" stroke-width="1" fill="none" fill-rule="evenodd">
        <g id="corbata" transform="translate(0.994912, 0.000000)" fill-rule="nonzero">
            <path d="M13.4350881,3 C8.17508807,1.82 1.89508807,3.44 0.295088069,11.9 C-1.30491193,20.36 3.68508807,24.44 13.2350881,24.54 C22.7850881,24.64 32.8450881,22.75 31.1550881,15.18 C29.4650881,7.61 24.1550881,7.82 21.6050881,8.18 C19.0550881,8.54 17.7150881,4 13.4350881,3 Z" id="Path" fill="#E8F4FA"></path>
            <rect id="Rectangle" fill="#DBC5AF" x="12.1350881" y="0" width="4.86" height="26.5" rx="0.28"></rect>
            <path d="M18.7650881,0.28 L18.7650881,26.78 C18.7650881,26.93 16.2450881,30.25 16.2450881,30.25 L14.9250881,28.36 C14.8775498,28.2794604 14.824068,28.2025803 14.7650881,28.13 L14.6350881,27.93 L14.4850881,27.7 C14.2700325,27.4075777 14.076203,27.100124 13.9050881,26.78 L13.9050881,0.28 C13.9050881,0.12536027 14.0304483,0 14.1850881,0 L18.5750881,0 C18.6940333,0.0401811811 18.7716916,0.154625002 18.7650881,0.28 L18.7650881,0.28 Z" id="Path" fill="#F0E6DC"></path>
            <polygon id="Path" fill="#11B0DE" points="17.7950881 0 13.9050881 3.27 13.9050881 2.91 17.3650881 0"></polygon>
            <polygon id="Path" fill="#11B0DE" points="18.5750881 0 13.9050881 3.94 13.9050881 3.58 18.1550881 0"></polygon>
            <polygon id="Path" fill="#11B0DE" points="18.7650881 2.43 18.7650881 2.79 13.9050881 6.88 13.9050881 6.52"></polygon>
            <polygon id="Path" fill="#11B0DE" points="18.7650881 3.1 18.7650881 3.46 13.9050881 7.55 13.9050881 7.18"></polygon>
            <polygon id="Path" fill="#11B0DE" points="18.7650881 6.04 18.7650881 6.41 13.9050881 10.49 13.9050881 10.13"></polygon>
            <polygon id="Path" fill="#11B0DE" points="18.7650881 6.71 18.7650881 7.07 13.9050881 11.16 13.9050881 10.8"></polygon>
            <polygon id="Path" fill="#11B0DE" points="18.7650881 9.65 18.7650881 10.02 13.9050881 14.1 13.9050881 13.74"></polygon>
            <polygon id="Path" fill="#11B0DE" points="18.7650881 10.32 18.7650881 10.68 13.9050881 14.77 13.9050881 14.41"></polygon>
            <polygon id="Path" fill="#11B0DE" points="18.7650881 13.26 18.7650881 13.63 13.9050881 17.71 13.9050881 17.35"></polygon>
            <polygon id="Path" fill="#11B0DE" points="18.7650881 13.93 18.7650881 14.3 13.9050881 18.38 13.9050881 18.02"></polygon>
            <polygon id="Path" fill="#11B0DE" points="18.7650881 16.88 18.7650881 17.24 13.9050881 21.33 13.9050881 20.96"></polygon>
            <polygon id="Path" fill="#11B0DE" points="18.7650881 17.55 18.7650881 17.91 13.9050881 21.99 13.9050881 21.63"></polygon>
            <polygon id="Path" fill="#11B0DE" points="18.7650881 20.49 18.7650881 20.85 13.9050881 24.94 13.9050881 24.58"></polygon>
            <polygon id="Path" fill="#11B0DE" points="18.7650881 21.15 18.7650881 21.52 13.9050881 25.61 13.9050881 25.24"></polygon>
            <polygon id="Path" fill="#11B0DE" points="18.7650881 24.1 18.7650881 24.46 14.6350881 27.93 14.4850881 27.7"></polygon>
            <path d="M18.7650881,24.77 L18.7650881,25.13 L14.9250881,28.36 C14.8775498,28.2794604 14.824068,28.2025803 14.7650881,28.13 L18.7650881,24.77 Z" id="Path" fill="#11B0DE"></path>
        </g>
    </g>
</svg>