<?xml version="1.0" encoding="UTF-8"?>
<svg width="33px" height="28px" viewBox="0 0 33 28" version="1.1" xmlns="http://www.w3.org/2000/svg" xmlns:xlink="http://www.w3.org/1999/xlink">
    <title>Untitled 14</title>
    <g id="Page-1" stroke="none" stroke-width="1" fill="none" fill-rule="evenodd">
        <g id="cubreplumonking" transform="translate(0.994912, 0.000000)" fill-rule="nonzero">
            <path d="M13.4350881,4.64 C8.17508807,3.41 1.89508807,5 0.295088069,13.49 C-1.30491193,21.98 3.68508807,26 13.2350881,26.14 C22.7850881,26.28 32.8450881,24.34 31.1550881,16.78 C29.4650881,9.22 24.1550881,9.41 21.6050881,9.78 C19.0550881,10.15 17.7150881,5.63 13.4350881,4.64 Z" id="Path" fill="#E8F4FA"></path>
            <path d="M23.5250881,20.87 L9.10508807,20.87 C8.40634489,20.8691435 7.81557234,21.3871397 7.72508807,22.08 C7.69306609,22.4462766 7.8164431,22.8091502 8.06508807,23.08 C8.32001646,23.3631235 8.68412048,23.5233293 9.06508807,23.52 L23.5250881,23.52 C25.2758307,23.52 26.6950881,22.1007427 26.6950881,20.35 C26.6950881,18.5992573 25.2758307,17.18 23.5250881,17.18 L9.05508807,17.18 C8.38906195,17.1608809 7.76154847,16.8634468 7.32508807,16.36 C6.88239859,15.8706211 6.6679849,15.2164776 6.73508807,14.56 C6.88713662,13.3528506 7.91843795,12.4504619 9.13508807,12.46 L23.5250881,12.46 C23.6614214,12.4650123 23.7897864,12.5255149 23.8804225,12.6274805 C23.9710586,12.7294461 24.0160942,12.8640193 24.0050881,13 C24.007776,13.13168 23.9573402,13.2588979 23.8651544,13.352965 C23.7729686,13.4470321 23.6467955,13.5000274 23.5150881,13.5 L9.10508807,13.5 C8.40803101,13.4940481 7.81598646,14.0088694 7.72508807,14.7 C7.69180032,15.0664285 7.81534707,15.4298013 8.06508807,15.7 C8.32001646,15.9831235 8.68412048,16.1433293 9.06508807,16.14 L23.5250881,16.14 C24.65762,16.14 25.7041227,15.5358014 26.2703887,14.555 C26.8366546,13.5741986 26.8366546,12.3658014 26.2703887,11.385 C25.7041227,10.4041986 24.65762,9.8 23.5250881,9.8 L9.05508807,9.8 C6.99169503,9.80537132 5.14352619,11.0777108 4.40206723,13.0032908 C3.66060827,14.9288708 4.17816506,17.1121507 5.70508807,18.5 L5.42508807,18.76 C4.48054488,19.7533963 3.98526481,21.091014 4.05508807,22.46 C4.22399458,25.1360657 6.44369714,27.2200509 9.12508807,27.2200509 L25.3550881,27.2200509 C25.7360557,27.2233293 26.1001597,27.0631235 26.3550881,26.78 C26.603733,26.5091502 26.7271101,26.1462766 26.6950881,25.78 C26.6046038,25.0871397 26.0138313,24.5691435 25.3150881,24.57 L9.05508807,24.57 C8.39391635,24.5738512 7.76251261,24.2954154 7.3194665,23.8046273 C6.87642038,23.3138391 6.66382869,22.6573317 6.73508807,22 C6.88284799,20.7905757 7.91675251,19.8859093 9.13508807,19.9 L23.5250881,19.9 C23.8012304,19.9 24.0250881,20.1238576 24.0250881,20.4 C24.0250881,20.6761424 23.8012304,20.9 23.5250881,20.9 L23.5250881,20.87 Z" id="Path" fill="#A5D8EE"></path>
            <path d="M21.0050881,0 L9.76508807,0 C7.98233158,0.0011335132 6.44543218,1.25404064 6.08508807,3 L5.36508807,10.2 C6.41209768,9.15837419 7.82819705,8.57252597 9.30508807,8.57 L23.0050881,8.57 C23.8847886,8.57080091 24.7381055,8.87051964 25.4250881,9.42 L24.6550881,3 C24.2970762,1.2650099 22.7765648,0.015274547 21.0050881,0 L21.0050881,0 Z" id="Path" fill="#11B0DE"></path>
            <polygon id="Path" fill="#A5D8EE" points="7.71508807 3.79 7.95508807 4.27 8.48508807 4.35 8.09508807 4.73 8.19508807 5.26 7.71508807 5.01 7.23508807 5.26 7.32508807 4.73 6.94508807 4.35 7.47508807 4.27"></polygon>
            <polygon id="Path" fill="#A5D8EE" points="9.86508807 1.55 10.0950881 2.03 10.6350881 2.11 10.2450881 2.48 10.3350881 3.02 9.86508807 2.77 9.38508807 3.02 9.47508807 2.48 9.09508807 2.11 9.62508807 2.03"></polygon>
            <polygon id="Path" fill="#A5D8EE" points="14.2550881 1.03 14.4850881 1.51 15.0250881 1.59 14.6350881 1.96 14.7250881 2.49 14.2550881 2.24 13.7750881 2.49 13.8650881 1.96 13.4850881 1.59 14.0150881 1.51"></polygon>
            <polygon id="Path" fill="#A5D8EE" points="21.8650881 5.08 22.1050881 5.56 22.6350881 5.63 22.2550881 6.01 22.3450881 6.54 21.8650881 6.29 21.3850881 6.54 21.4850881 6.01 21.0950881 5.63 21.6250881 5.56"></polygon>
            <polygon id="Path" fill="#A5D8EE" points="14.2550881 5.81 14.4850881 6.29 15.0250881 6.37 14.6350881 6.74 14.7250881 7.27 14.2550881 7.02 13.7750881 7.27 13.8650881 6.74 13.4850881 6.37 14.0150881 6.29"></polygon>
            <polygon id="Path" fill="#A5D8EE" points="19.4950881 3.06 19.7250881 3.54 20.2650881 3.62 19.8750881 3.99 19.9650881 4.52 19.4950881 4.27 19.0150881 4.52 19.1050881 3.99 18.7250881 3.62 19.2550881 3.54"></polygon>
            <polygon id="Path" fill="#A5D8EE" points="17.8850881 1.03 18.1150881 1.51 18.6550881 1.59 18.2650881 1.96 18.3550881 2.49 17.8850881 2.24 17.4050881 2.49 17.4950881 1.96 17.1150881 1.59 17.6450881 1.51"></polygon>
            <polygon id="Path" fill="#A5D8EE" points="9.86508807 5.22 10.1550881 5.82 10.8050881 5.91 10.3350881 6.37 10.4450881 7.03 9.86508807 6.72 9.27508807 7.03 9.38508807 6.37 8.91508807 5.91 9.56508807 5.82"></polygon>
            <polygon id="Path" fill="#A5D8EE" points="12.1350881 3.02 12.4350881 3.61 13.0850881 3.7 12.6150881 4.17 12.7250881 4.82 12.1350881 4.51 11.5550881 4.82 11.6650881 4.17 11.1950881 3.7 11.8450881 3.61"></polygon>
            <polygon id="Path" fill="#A5D8EE" points="18.5450881 5.64 18.8350881 6.23 19.4950881 6.33 19.0150881 6.79 19.1250881 7.44 18.5450881 7.13 17.9550881 7.44 18.0650881 6.79 17.5950881 6.33 18.2550881 6.23"></polygon>
            <polygon id="Path" fill="#A5D8EE" points="16.3150881 2.89 16.6150881 3.48 17.2650881 3.58 16.7950881 4.04 16.9050881 4.69 16.3150881 4.38 15.7350881 4.69 15.8450881 4.04 15.3750881 3.58 16.0250881 3.48"></polygon>
            <polygon id="Path" fill="#A5D8EE" points="21.6850881 0.86 21.9850881 1.45 22.6350881 1.55 22.1650881 2.01 22.2750881 2.66 21.6850881 2.35 21.1050881 2.66 21.2150881 2.01 20.7350881 1.55 21.3950881 1.45"></polygon>
        </g>
    </g>
</svg>