<?xml version="1.0" encoding="UTF-8"?>
<svg width="33px" height="23px" viewBox="0 0 33 23" version="1.1" xmlns="http://www.w3.org/2000/svg" xmlns:xlink="http://www.w3.org/1999/xlink">
    <title>Untitled 13</title>
    <g id="Page-1" stroke="none" stroke-width="1" fill="none" fill-rule="evenodd">
        <g id="cubreplumon" transform="translate(0.994912, 0.999605)" fill-rule="nonzero">
            <path d="M13.4350881,0.360394701 C8.17508807,-0.859605299 1.89508807,0.760394701 0.295088069,9.2203947 C-1.30491193,17.6803947 3.68508807,21.7603947 13.2350881,21.8603947 C22.7850881,21.9603947 32.8450881,20.0703947 31.1550881,12.5103947 C29.4650881,4.9503947 24.1550881,5.1403947 21.6050881,5.5103947 C19.0550881,5.8803947 17.7150881,1.3603947 13.4350881,0.360394701 Z" id="Path" fill="#E8F4FA"></path>
            <path d="M21.3350881,2.3103926 L10.1150881,2.3103926 C8.33332262,2.30851812 6.7976291,3.56385342 6.44508807,5.3103926 L5.71508807,12.5403947 C6.76553988,11.5051798 8.18026289,10.9234917 9.65508807,10.9203947 L23.3150881,10.9203947 C24.1937216,10.9175598 25.0471667,11.2137969 25.7350881,11.7603947 L25.0050881,5.2803947 C24.6332284,3.55002569 23.1049605,2.31325301 21.3350881,2.3103926 L21.3350881,2.3103926 Z" id="Path" fill="#484E5F"></path>
            <path d="M23.3150881,11.8203947 L9.67508807,11.8203947 C7.06830405,11.8397247 4.9707581,13.9686107 4.98995553,16.5753947 C5.00941804,19.1821787 7.13830405,21.2797247 9.74508807,21.2603947 L25.0050881,21.2603947 C25.3642062,21.2619243 25.7066347,21.1089243 25.9450881,20.8403947 C26.1958131,20.5716186 26.3131959,20.2047973 26.2650881,19.8403947 C26.1642833,19.2184239 25.6349733,18.7563279 25.0050881,18.7403947 L9.67508807,18.7403947 C9.05417458,18.7375857 8.46308547,18.4737023 8.04645226,18.0133131 C7.62981906,17.5529239 7.42608028,16.9385043 7.48508807,16.3203947 C7.62248809,15.1731709 8.59969461,14.312196 9.75508807,14.3203947 L23.3150881,14.3203947 C23.5746619,14.3203947 23.7850881,14.5308209 23.7850881,14.7903947 C23.7850881,15.0499685 23.5746619,15.2603947 23.3150881,15.2603947 L9.72508807,15.2603947 C9.06689953,15.2598534 8.51050165,15.7477716 8.42508807,16.4003947 C8.37552641,16.764926 8.49310461,17.1323579 8.74508807,17.4003947 C8.97965152,17.6684487 9.31889797,17.8216568 9.67508807,17.8203947 L23.3150881,17.8203947 C24.9719423,17.8203947 26.315088,16.4772489 26.315088,14.8203947 C26.315088,13.1635405 24.9719423,11.8203947 23.3150881,11.8203947 Z" id="Path" fill="#151C32"></path>
            <circle id="Oval" fill="#151C32" cx="9.42508807" cy="4.4903947" r="1"></circle>
            <circle id="Oval" fill="#151C32" cx="12.4250881" cy="6.7103947" r="1"></circle>
            <circle id="Oval" fill="#151C32" cx="15.6250881" cy="4.4903947" r="1"></circle>
            <circle id="Oval" fill="#151C32" cx="18.7250881" cy="6.0003947" r="1"></circle>
            <circle id="Oval" fill="#151C32" cx="21.7650881" cy="4.4903947" r="1"></circle>
            <circle id="Oval" fill="#151C32" cx="15.7250881" cy="8.8203947" r="1"></circle>
            <circle id="Oval" fill="#151C32" cx="21.0650881" cy="8.8203947" r="1"></circle>
            <circle id="Oval" fill="#151C32" cx="23.5450881" cy="6.7103947" r="1"></circle>
            <circle id="Oval" fill="#151C32" cx="8.72508807" cy="8.1203947" r="1"></circle>
        </g>
    </g>
</svg>