<?xml version="1.0" encoding="UTF-8"?>
<svg width="33px" height="23px" viewBox="0 0 33 23" version="1.1" xmlns="http://www.w3.org/2000/svg" xmlns:xlink="http://www.w3.org/1999/xlink">
    <title>Untitled 11</title>
    <g id="Page-1" stroke="none" stroke-width="1" fill="none" fill-rule="evenodd">
        <g id="cubrecama" transform="translate(0.994912, 0.999605)" fill-rule="nonzero">
            <path d="M13.4350881,0.360394701 C8.17508807,-0.859605299 1.89508807,0.760394701 0.295088069,9.2203947 C-1.30491193,17.6803947 3.68508807,21.7603947 13.2350881,21.8603947 C22.7850881,21.9603947 32.8450881,20.0703947 31.1550881,12.5103947 C29.4650881,4.9503947 24.1550881,5.1403947 21.6050881,5.5103947 C19.0550881,5.8803947 17.7150881,1.3603947 13.4350881,0.360394701 Z" id="Path" fill="#E8F4FA"></path>
            <path d="M22.6350881,0.0003947005 L11.4150881,0.0003947005 C9.63608884,0.00625915802 8.10466531,1.25810401 7.74508807,3.0003947 L7.00508807,10.2003947 C8.06680296,9.14402323 9.50743026,8.5569676 11.0050881,8.5703947 L24.6150881,8.5703947 C25.4844877,8.57794926 26.3261569,8.87728769 27.0050881,9.4203947 L26.3050881,3.0003947 C25.9455108,1.25810401 24.4140873,0.00625915802 22.6350881,0.0003947005 Z" id="Path" fill="#484E5F"></path>
            <path d="M24.6150881,9.5103947 L11.0050881,9.5103947 C9.70587723,9.51376955 8.46525334,10.0514008 7.57440419,10.9971005 C6.68355504,11.9428002 6.22092129,13.2132981 6.29508807,14.5103947 C6.45620388,17.0052742 8.50535914,18.9587152 11.0050881,19.0003947 L26.3050881,19.0003947 C26.658644,18.9991384 26.9956729,18.8505558 27.2350881,18.5903947 C27.4845775,18.3208959 27.6017702,17.9546684 27.5550881,17.5903947 C27.4696745,16.9377716 26.9132766,16.4498534 26.2550881,16.4503947 L11.0050881,16.4503947 C10.373861,16.4573576 9.77005627,16.1928319 9.34723369,15.7240919 C8.92441111,15.255352 8.72331496,14.6275667 8.79508807,14.0003947 C8.92336639,12.8524475 9.90006107,11.9881159 11.0550881,12.0003947 L24.6150881,12.0003947 C24.8746619,12.0003947 25.0850881,12.2108209 25.0850881,12.4703947 C25.0850881,12.7299685 24.8746619,12.9403947 24.6150881,12.9403947 L11.0050881,12.9403947 C10.3502257,12.9391824 9.79506819,13.4217424 9.70508807,14.0703947 C9.66123006,14.4376424 9.77964659,14.8057639 10.0293942,15.0785651 C10.2791419,15.3513664 10.6354049,15.5017411 11.0050881,15.4903947 L24.6150881,15.4903947 C26.2719423,15.4903947 27.6150881,14.1472489 27.6150881,12.4903947 C27.6150881,10.8335405 26.2719423,9.4903947 24.6150881,9.4903947 L24.6150881,9.5103947 Z" id="Path" fill="#151C32"></path>
            <circle id="Oval" fill="#151C32" cx="10.7250881" cy="2.1803947" r="1"></circle>
            <circle id="Oval" fill="#151C32" cx="13.7350881" cy="4.4003947" r="1"></circle>
            <circle id="Oval" fill="#151C32" cx="16.9350881" cy="2.1803947" r="1"></circle>
            <circle id="Oval" fill="#151C32" cx="20.0250881" cy="3.6903947" r="1"></circle>
            <circle id="Oval" fill="#151C32" cx="23.0650881" cy="2.1803947" r="1"></circle>
            <circle id="Oval" fill="#151C32" cx="17.0250881" cy="6.5103947" r="1"></circle>
            <circle id="Oval" fill="#151C32" cx="22.3650881" cy="6.5103947" r="1"></circle>
            <circle id="Oval" fill="#151C32" cx="24.8550881" cy="4.4003947" r="1"></circle>
            <circle id="Oval" fill="#151C32" cx="10.0250881" cy="5.8003947" r="1"></circle>
        </g>
    </g>
</svg>