<?xml version="1.0" encoding="UTF-8"?>
<svg width="33px" height="29px" viewBox="0 0 33 29" version="1.1" xmlns="http://www.w3.org/2000/svg" xmlns:xlink="http://www.w3.org/1999/xlink">
    <title>Untitled 15</title>
    <g id="Page-1" stroke="none" stroke-width="1" fill="none" fill-rule="evenodd">
        <g id="cubvrecamacolcha" transform="translate(0.994912, 0.999810)" fill-rule="nonzero">
            <path d="M13.4350881,5.00019008 C8.17508807,3.72019008 1.89508807,5.35019008 0.295088069,13.8101901 C-1.30491193,22.2701901 3.68508807,26.3501901 13.2350881,26.4501901 C22.7850881,26.5501901 32.8450881,24.6601901 31.1550881,17.0901901 C29.4650881,9.52019008 24.1550881,9.73019008 21.6050881,10.0901901 C19.0550881,10.4501901 17.7150881,5.94019008 13.4350881,5.00019008 Z" id="Path" fill="#E8F4FA"></path>
            <path d="M23.8250881,20.8701901 L9.40508807,20.8701901 C8.70039354,20.8636741 8.10069915,21.3819814 8.00508807,22.0801901 C7.9779093,22.4458654 8.1006491,22.8068648 8.34508807,23.0801901 C8.60001646,23.3633136 8.96412048,23.5235193 9.34508807,23.5201901 L23.8250881,23.5201901 C25.5758307,23.5201901 26.9950881,22.1009327 26.9950881,20.3501901 C26.9950881,18.5994474 25.5758307,17.1801901 23.8250881,17.1801901 L9.35508807,17.1801901 C8.69395249,17.1655854 8.06786436,16.8799512 7.62349874,16.3902036 C7.17913312,15.9004559 6.95553531,15.2496278 7.00508807,14.5901901 C7.15713662,13.3830407 8.18843795,12.480652 9.40508807,12.4901901 L23.8250881,12.4901901 C24.0989965,12.4955102 24.319768,12.7162816 24.3250881,12.9901901 C24.3250881,13.2663325 24.1012304,13.4901901 23.8250881,13.4901901 L9.40508807,13.4901901 C8.70208989,13.4785457 8.1010981,13.9936816 8.00508807,14.6901901 C7.96847655,15.0657755 8.09192912,15.4393889 8.34510875,15.719219 C8.59828839,15.9990491 8.95772385,16.1591541 9.33508807,16.1601901 L23.8250881,16.1601901 C25.5758307,16.16019 26.995088,14.7409327 26.995088,12.9901901 C26.995088,11.2394475 25.5758307,9.82019008 23.8250881,9.82019008 L9.35508807,9.82019008 C7.30109319,9.83447645 5.46479454,11.1034945 4.72521694,13.0197732 C3.98563934,14.9360519 4.49326159,17.1096939 6.00508807,18.5001901 C5.91508807,18.5901901 5.81508807,18.6701901 5.73508807,18.7601901 C4.78690249,19.7519335 4.28793244,21.0897518 4.35508807,22.4601901 C4.52879962,25.1339911 6.74565458,27.2152987 9.42508807,27.220241 L25.6550881,27.220241 C26.0360557,27.2235193 26.4001597,27.0633136 26.6550881,26.7801901 C26.9021346,26.507873 27.0283945,26.1471307 27.0050881,25.7801901 C26.9064769,25.0917012 26.3205597,24.5779622 25.6250881,24.5701901 L9.35508807,24.5701901 C8.6887201,24.5827021 8.04915612,24.3080254 7.59940251,23.8161672 C7.14964889,23.3243089 6.93315106,22.6627819 7.00508807,22.0001901 C7.15284799,20.7907658 8.18675251,19.8860993 9.40508807,19.9001901 L23.8250881,19.9001901 C24.1012304,19.9001901 24.3250881,20.1240477 24.3250881,20.4001901 C24.3250881,20.6763325 24.1012304,20.9001901 23.8250881,20.9001901 L23.8250881,20.8701901 Z" id="Path" fill="#A5D8EE"></path>
            <path d="M21.2850881,0.000190081964 L10.0650881,0.000190081964 C8.28470934,0.00220077287 6.75116291,1.25578097 6.39508807,3.00019008 L5.66508807,10.2001901 C6.71209768,9.15856427 8.12819705,8.57271605 9.60508807,8.57019008 L23.2650881,8.57019008 C24.1447886,8.57099099 24.9981055,8.87070972 25.6850881,9.42019008 L25.0050881,3.00019008 C24.641783,1.23943259 23.0828463,-0.0177744054 21.2850881,0.000190081964 Z" id="Path" fill="#11B0DE"></path>
            <polygon id="Path" fill="#A5D8EE" points="8.01508807 3.79019008 8.25508807 4.27019008 8.78508807 4.35019008 8.40508807 4.73019008 8.49508807 5.26019008 8.01508807 5.01019008 7.54508807 5.26019008 7.63508807 4.73019008 7.24508807 4.35019008 7.77508807 4.27019008"></polygon>
            <polygon id="Path" fill="#A5D8EE" points="10.1650881 1.55019008 10.4050881 2.03019008 10.9350881 2.11019008 10.5450881 2.48019008 10.6350881 3.02019008 10.1650881 2.77019008 9.68508807 3.02019008 9.77508807 2.48019008 9.39508807 2.11019008 9.92508807 2.03019008"></polygon>
            <polygon id="Path" fill="#A5D8EE" points="14.5550881 1.03019008 14.7950881 1.51019008 15.3250881 1.59019008 14.9450881 1.96019008 15.0350881 2.49019008 14.5550881 2.24019008 14.0750881 2.49019008 14.1650881 1.96019008 13.7850881 1.59019008 14.3150881 1.51019008"></polygon>
            <polygon id="Path" fill="#A5D8EE" points="22.1650881 5.08019008 22.4050881 5.56019008 22.9350881 5.63019008 22.5550881 6.01019008 22.6450881 6.54019008 22.1650881 6.29019008 21.6950881 6.54019008 21.7850881 6.01019008 21.3950881 5.63019008 21.9350881 5.56019008"></polygon>
            <polygon id="Path" fill="#A5D8EE" points="14.5550881 5.81019008 14.7950881 6.29019008 15.3250881 6.37019008 14.9450881 6.74019008 15.0350881 7.27019008 14.5550881 7.02019008 14.0750881 7.27019008 14.1650881 6.74019008 13.7850881 6.37019008 14.3150881 6.29019008"></polygon>
            <polygon id="Path" fill="#A5D8EE" points="19.7950881 3.06019008 20.0350881 3.54019008 20.5650881 3.62019008 20.1750881 3.99019008 20.2750881 4.52019008 19.7950881 4.27019008 19.3150881 4.52019008 19.4050881 3.99019008 19.0250881 3.62019008 19.5550881 3.54019008"></polygon>
            <polygon id="Path" fill="#A5D8EE" points="18.1850881 1.03019008 18.4250881 1.51019008 18.9550881 1.59019008 18.5650881 1.96019008 18.6650881 2.49019008 18.1850881 2.24019008 17.7050881 2.49019008 17.7950881 1.96019008 17.4150881 1.59019008 17.9450881 1.51019008"></polygon>
            <polygon id="Path" fill="#A5D8EE" points="10.1650881 5.22019008 10.4550881 5.82019008 11.1150881 5.91019008 10.6350881 6.37019008 10.7450881 7.03019008 10.1650881 6.72019008 9.57508807 7.03019008 9.69508807 6.37019008 9.21508807 5.91019008 9.87508807 5.82019008"></polygon>
            <polygon id="Path" fill="#A5D8EE" points="12.4450881 3.02019008 12.7350881 3.61019008 13.3850881 3.70019008 12.9150881 4.17019008 13.0250881 4.82019008 12.4450881 4.51019008 11.8550881 4.82019008 11.9650881 4.17019008 11.4950881 3.70019008 12.1450881 3.61019008"></polygon>
            <polygon id="Path" fill="#A5D8EE" points="18.8450881 5.64019008 19.1350881 6.23019008 19.7950881 6.33019008 19.3250881 6.79019008 19.4350881 7.44019008 18.8450881 7.13019008 18.2550881 7.44019008 18.3750881 6.79019008 17.8950881 6.33019008 18.5550881 6.23019008"></polygon>
            <polygon id="Path" fill="#A5D8EE" points="16.6250881 2.89019008 16.9150881 3.48019008 17.5750881 3.58019008 17.0950881 4.04019008 17.2050881 4.69019008 16.6250881 4.38019008 16.0350881 4.69019008 16.1450881 4.04019008 15.6750881 3.58019008 16.3250881 3.48019008"></polygon>
            <polygon id="Path" fill="#A5D8EE" points="21.9850881 0.860190082 22.2850881 1.45019008 22.9350881 1.55019008 22.4650881 2.01019008 22.5750881 2.66019008 21.9850881 2.35019008 21.4050881 2.66019008 21.5150881 2.01019008 21.0450881 1.55019008 21.6950881 1.45019008"></polygon>
        </g>
    </g>
</svg>