<?xml version="1.0" encoding="UTF-8"?>
<svg width="33px" height="29px" viewBox="0 0 33 29" version="1.1" xmlns="http://www.w3.org/2000/svg" xmlns:xlink="http://www.w3.org/1999/xlink">
    <title>Untitled 16</title>
    <g id="Page-1" stroke="none" stroke-width="1" fill="none" fill-rule="evenodd">
        <g id="delantal" transform="translate(0.994912, 0.000000)" fill-rule="nonzero">
            <path d="M13.4350881,3.33 C8.17508807,2.11 1.89508807,3.73 0.295088069,12.19 C-1.30491193,20.65 3.68508807,24.74 13.2350881,24.84 C22.7850881,24.94 32.8450881,23 31.1550881,15.48 C29.4650881,7.96 24.1550881,8.11 21.6050881,8.48 C19.0550881,8.85 17.7150881,4.33 13.4350881,3.33 Z" id="Path" fill="#E8F4FA"></path>
            <path d="M24.2050881,15.77 L24.2050881,9.7 C23.2356981,9.7191515 22.3002139,9.34318992 21.6136755,8.65853763 C20.9271372,7.97388534 20.5486035,7.039439 20.5650881,6.07 L20.5650881,0 L18.1450881,0 L18.1450881,1.21 C18.2031395,2.11353505 17.7540517,2.97441788 16.9798145,3.44378159 C16.2055773,3.91314529 15.2345989,3.91314529 14.4603616,3.44378159 C13.6861244,2.97441788 13.2370366,2.11353505 13.2950881,1.21 L13.2950881,0 L10.8650881,0 L10.8650881,6.07 C10.8815727,7.039439 10.503039,7.97388534 9.81650059,8.65853763 C9.12996221,9.34318992 8.19447805,9.7191515 7.22508807,9.7 L7.22508807,15.77 L3.58508807,15.77 L3.58508807,18.2 L7.22508807,18.2 L7.22508807,28.26 L24.2250881,28.26 L24.2250881,18.2 L27.8650881,18.2 L27.8650881,15.77 L24.2050881,15.77 Z" id="Path" fill="#CBAD95"></path>
            <path d="M10.7550881,15.75 L20.5950881,15.75 C20.5950881,15.75 20.0050881,20.3 15.4950881,20.3 C10.9850881,20.3 10.7550881,15.75 10.7550881,15.75 Z" id="Path" fill="#ECE0D4"></path>
            <rect id="Rectangle" fill="#ECE0D4" x="7.22508807" y="27.3" width="16.98" height="1"></rect>
            <rect id="Rectangle" fill="#ECE0D4" x="7.22508807" y="26.47" width="16.98" height="1"></rect>
            <circle id="Oval" fill="#ECE0D4" cx="15.8250881" cy="4.87" r="1"></circle>
            <circle id="Oval" fill="#ECE0D4" cx="15.8250881" cy="6.09" r="1"></circle>
            <circle id="Oval" fill="#ECE0D4" cx="15.8250881" cy="7.3" r="1"></circle>
        </g>
    </g>
</svg>