<?xml version="1.0" encoding="UTF-8"?>
<svg width="35px" height="27px" viewBox="0 0 35 27" version="1.1" xmlns="http://www.w3.org/2000/svg" xmlns:xlink="http://www.w3.org/1999/xlink">
    <title>Untitled 18</title>
    <g id="Page-1" stroke="none" stroke-width="1" fill="none" fill-rule="evenodd">
        <g id="faldafiesta" transform="translate(0.002145, 0.000000)" fill-rule="nonzero">
            <path d="M14.997855,1.68 C9.11785499,0.31 2.10785499,2.12 0.327854987,11.57 C-1.45214501,21.02 4.10785499,25.57 14.767855,25.68 C25.427855,25.79 36.657855,23.68 34.767855,15.24 C32.877855,6.8 26.997855,7 24.097855,7.46 C21.197855,7.92 19.767855,2.79 14.997855,1.68 Z" id="Path" fill="#E8F4FA"></path>
            <path d="M12.227855,0 C12.117855,0.42 12.017855,1.28 11.907855,1.7 C11.907855,1.86 11.737855,1.94 11.647855,2.05 C10.8013218,3.02154398 10.2314471,4.20273881 9.99785499,5.47 C9.43785499,8.16 8.99785499,10.89 8.58785499,13.63 C7.99785499,17 7.58785499,20.33 7.16785499,23.69 C7.71954512,24.6330611 8.51826915,25.4075814 9.47785499,25.93 C10.6288969,26.3340437 11.8779162,26.3655316 13.047855,26.02 L13.107855,26.96 C15.6340868,26.9452333 18.1577096,26.7950177 20.667855,26.51 C21.9507559,26.3604841 23.2208724,26.1164881 24.467855,25.78 C25.3959956,25.4667766 26.1127599,24.7201471 26.387855,23.78 C26.5134723,23.4866487 26.5715698,23.1688207 26.557855,22.85 C26.097855,20.38 25.637855,17.91 25.157855,15.45 C24.527855,12.23 23.877855,9.02 23.157855,5.84 C23.037855,5.36 22.927855,4.84 22.797855,4.41 C22.4644906,3.3783019 21.9460329,2.4159359 21.267855,1.57 C21.087855,1.09 20.997855,0.54 20.787855,0 L12.227855,0 Z" id="Path" fill="#DBC5AF"></path>
            <path d="M12.227855,0 L20.787855,0 L21.257855,1.62 C18.1848361,2.33259565 14.9926172,2.35990875 11.907855,1.7 L12.227855,0 Z" id="Path" fill="#ECE0D4"></path>
            <path d="M13.107855,27 C13.107855,27 12.797855,5.92 14.997855,1.68 C14.997855,1.68 13.547855,6.55 13.107855,27 Z" id="Path" fill="#ECE0D4"></path>
            <circle id="Oval" fill="#CBAD95" cx="16.727855" cy="0.63" r="1"></circle>
            <circle id="Oval" fill="#CBAD95" cx="16.727855" cy="1.42" r="1"></circle>
        </g>
    </g>
</svg>