<?xml version="1.0" encoding="UTF-8"?>
<svg width="35px" height="26px" viewBox="0 0 35 26" version="1.1" xmlns="http://www.w3.org/2000/svg" xmlns:xlink="http://www.w3.org/1999/xlink">
    <title>Untitled 17</title>
    <g id="Page-1" stroke="none" stroke-width="1" fill="none" fill-rule="evenodd">
        <g id="falda" transform="translate(0.002145, 0.983730)" fill-rule="nonzero">
            <path d="M14.997855,0.416269695 C9.11785499,-0.983730305 2.10785499,0.866269695 0.327854987,10.3062697 C-1.45214501,19.7462697 4.10785499,24.3062697 14.767855,24.4162697 C25.427855,24.5262697 36.657855,22.4162697 34.767855,13.9762697 C32.877855,5.5362697 26.997855,5.7562697 24.097855,6.1962697 C21.197855,6.6362697 19.767855,1.5262697 14.997855,0.416269695 Z" id="Path" fill="#E8F4FA"></path>
            <path d="M24.227855,11.8862697 C22.9366261,8.53975695 21.9982089,5.06761351 21.427855,1.5262697 L12.307855,1.5262697 C11.737501,5.06761351 10.7990839,8.53975695 9.50785499,11.8862697 C8.74785499,14.0962697 7.99785499,16.3762697 7.36785499,18.7062697 C7.24383263,19.1248547 7.35897417,19.5777448 7.66785499,19.8862697 C10.3589954,21.7967718 13.5677954,22.8431196 16.867855,22.8862697 C20.1679146,22.8431196 23.3767145,21.7967718 26.067855,19.8862697 C26.3767358,19.5777448 26.4918773,19.1248547 26.367855,18.7062697 C25.777855,16.3762697 24.997855,14.0862697 24.227855,11.8862697 Z" id="Path" fill="#A5D8EE"></path>
            <path d="M12.217855,18.7062697 C12.217855,18.7062697 14.997855,7.9462697 15.137855,4.5362697 L12.217855,18.7062697 Z" id="Path" fill="#11B0DE"></path>
            <path d="M21.687855,18.7062697 C21.687855,18.7062697 18.997855,7.9462697 18.767855,4.5362697 L21.687855,18.7062697 Z" id="Path" fill="#11B0DE"></path>
            <path d="M12.307855,1.5262697 L21.427855,1.5262697 L21.687855,3.1462697 C18.4983397,3.69957004 15.2373703,3.69957004 12.047855,3.1462697 L12.307855,1.5262697 Z" id="Path" fill="#11B0DE"></path>
        </g>
    </g>
</svg>