<?xml version="1.0" encoding="UTF-8"?>
<svg width="33px" height="27px" viewBox="0 0 33 27" version="1.1" xmlns="http://www.w3.org/2000/svg" xmlns:xlink="http://www.w3.org/1999/xlink">
    <title>Untitled 19</title>
    <g id="Page-1" stroke="none" stroke-width="1" fill="none" fill-rule="evenodd">
        <g id="frazada" transform="translate(0.994912, 0.999605)" fill-rule="nonzero">
            <path d="M13.4350881,0.360394701 C8.17508807,-0.859605299 1.89508807,0.760394701 0.295088069,9.2203947 C-1.30491193,17.6803947 3.68508807,21.7603947 13.2350881,21.8603947 C22.7850881,21.9603947 32.8450881,20.0703947 31.1550881,12.5103947 C29.4650881,4.9503947 24.1550881,5.1403947 21.6050881,5.5103947 C19.0550881,5.8803947 17.7150881,1.3603947 13.4350881,0.360394701 Z" id="Path" fill="#E8F4FA"></path>
            <path d="M9.55508807,0.110334451 C9.31911278,0.107619412 9.09213397,0.200825648 8.92620813,0.36863701 C8.76028229,0.536448373 8.66964665,0.764465836 8.67508807,1.0003947 L8.67508807,22.4103947 C8.67508807,23.376893 7.89158638,24.1603947 6.92508807,24.1603947 L11.3050881,24.1603947 L11.3050881,25.4603947 C11.2988594,25.6924188 11.4739339,25.8893776 11.7050881,25.9103947 C11.822485,25.9214683 11.9392783,25.8838453 12.0281377,25.8063297 C12.1169971,25.728814 12.1701246,25.6182082 12.1750881,25.5003947 L12.1750881,24.1603947 L13.0550881,24.1603947 L13.0550881,25.4603947 C13.0877786,25.6753868 13.2726248,25.8342509 13.4900881,25.8342509 C13.7075513,25.8342509 13.8923975,25.6753868 13.9250881,25.4603947 L13.9250881,24.1603947 L14.7950881,24.1603947 L14.7950881,25.4603947 C14.7987592,25.6923091 14.9745157,25.8852125 15.2050881,25.9103947 C15.3218478,25.9186283 15.4370761,25.8799998 15.5252811,25.803055 C15.6134861,25.7261102 15.6673974,25.6171915 15.6750881,25.5003947 L15.6750881,24.1603947 L16.5450881,24.1603947 L16.5450881,25.4603947 C16.5487592,25.6923091 16.7245157,25.8852125 16.9550881,25.9103947 C17.0718478,25.9186283 17.1870761,25.8799998 17.2752811,25.803055 C17.3634861,25.7261102 17.4173974,25.6171915 17.4250881,25.5003947 L17.4250881,24.1603947 L18.2950881,24.1603947 L18.2950881,25.4603947 C18.2987592,25.6923091 18.4745157,25.8852125 18.7050881,25.9103947 C18.8218478,25.9186283 18.9370761,25.8799998 19.0252811,25.803055 C19.1134861,25.7261102 19.1673974,25.6171915 19.1750881,25.5003947 L19.1750881,24.1603947 L20.0050881,24.1603947 L20.0050881,25.4603947 C20.0087592,25.6923091 20.1845157,25.8852125 20.4150881,25.9103947 C20.5318478,25.9186283 20.6470761,25.8799998 20.7352811,25.803055 C20.8234861,25.7261102 20.8773974,25.6171915 20.8850881,25.5003947 L20.8850881,24.1603947 L21.7550881,24.1603947 L21.7550881,25.4603947 C21.7587592,25.6923091 21.9345157,25.8852125 22.1650881,25.9103947 C22.2818478,25.9186283 22.3970761,25.8799998 22.4852811,25.803055 C22.5734861,25.7261102 22.6273974,25.6171915 22.6350881,25.5003947 L22.6350881,24.1603947 L23.5050881,24.1603947 L23.5050881,25.4603947 C23.5087592,25.6923091 23.6845157,25.8852125 23.9150881,25.9103947 C24.0315099,25.921555 24.1473126,25.8836656 24.2346215,25.8058468 C24.3219303,25.7280281 24.3728371,25.6173286 24.3750881,25.5003947 L24.3750881,24.1603947 L25.2450881,24.1603947 L25.2450881,25.4603947 C25.2441631,25.6941045 25.4223014,25.8896222 25.6550881,25.9103947 C25.7715099,25.921555 25.8873126,25.8836656 25.9746215,25.8058468 C26.0619303,25.7280281 26.1128371,25.6173286 26.1150881,25.5003947 L26.1150881,3.6103947 C26.1153687,1.70058915 24.584613,0.143134204 22.6750881,0.110334451 L9.55508807,0.110334451 Z" id="Path" fill="#CBAD95"></path>
            <path d="M8.67508807,22.4103947 L8.67508807,1.8603947 L7.80508807,1.8603947 L7.80508807,0.550394701 C7.80508807,0.307389411 7.60809336,0.110394701 7.36508807,0.110394701 C7.12208278,0.110394701 6.92508807,0.307389411 6.92508807,0.550394701 L6.92508807,1.8603947 L6.05508807,1.8603947 L6.05508807,0.550394701 C6.05508807,0.307389411 5.85809336,0.110394701 5.61508807,0.110394701 C5.37208278,0.110394701 5.17508807,0.307389411 5.17508807,0.550394701 L5.17508807,22.4103947 C5.17508807,23.0356095 5.50863617,23.6133318 6.05008806,23.9259392 C6.59153995,24.2385466 7.25863619,24.2385466 7.80008808,23.9259392 C8.34153997,23.6133318 8.67508807,23.0356095 8.67508807,22.4103947 L8.67508807,22.4103947 Z" id="Path" fill="#CBAD95"></path>
            <polygon id="Path" fill="#ECE0D4" points="26.1650881 17.6003947 26.1650881 21.1003947 10.4250881 21.1003947 10.4250881 17.6003947"></polygon>
            <polygon id="Path" fill="#ECE0D4" points="8.67508807 4.9203947 8.67508807 8.4203947 5.17508807 8.4203947 5.17508807 4.9203947"></polygon>
            <path d="M10.4250881,24.1603947 L6.92508807,24.1603947 C7.89158638,24.1603947 8.67508807,23.376893 8.67508807,22.4103947 L8.67508807,1.0003947 C8.63923007,0.665452005 8.79772314,0.339428426 9.08327882,0.160737743 C9.3688345,-0.0179529403 9.73134164,-0.0179529403 10.0168973,0.160737743 C10.302453,0.339428426 10.4609461,0.665452005 10.4250881,1.0003947 L10.4250881,24.1603947 Z" id="Path" fill="#ECE0D4"></path>
        </g>
    </g>
</svg>