<?xml version="1.0" encoding="UTF-8"?>
<svg width="33px" height="25px" viewBox="0 0 33 25" version="1.1" xmlns="http://www.w3.org/2000/svg" xmlns:xlink="http://www.w3.org/1999/xlink">
    <title>Untitled 20</title>
    <g id="Page-1" stroke="none" stroke-width="1" fill="none" fill-rule="evenodd">
        <g id="funda" transform="translate(0.994912, 0.999605)">
            <path d="M13.4350881,0.360394701 C8.17508807,-0.859605299 1.89508807,0.760394701 0.295088069,9.2203947 C-1.30491193,17.6803947 3.68508807,21.7603947 13.2350881,21.8603947 C22.7850881,21.9603947 32.8450881,20.0703947 31.1550881,12.5103947 C29.4650881,4.9503947 24.1550881,5.1403947 21.6050881,5.5103947 C19.0550881,5.8803947 17.7150881,1.3603947 13.4350881,0.360394701 Z" id="Path" fill="#E8F4FA" fill-rule="nonzero"></path>
            <path d="M13.0050881,8.5403947 C15.4465162,9.09171407 17.942193,9.36677523 20.4450881,9.3603947 C22.9447679,9.3684076 25.4373155,9.0933216 27.8750881,8.5403947 C28.2442288,8.47290553 28.5996287,8.71280047 28.6750881,9.0803947 C28.7048639,9.17135321 28.7048639,9.2694362 28.6750881,9.3603947 C28.4950881,10.3603947 28.3150881,11.4603947 28.1750881,12.6103947 C28.0358466,13.7717799 27.9690507,14.9407079 27.9750881,16.1103947 C27.9699042,17.2734097 28.0366986,18.435631 28.1750881,19.5903947 C28.3150881,20.7503947 28.4950881,21.8303947 28.6750881,22.8603947 C28.7489254,23.2220026 28.5164221,23.5752287 28.1550881,23.6503947 C28.0628289,23.6704205 27.9673472,23.6704205 27.8750881,23.6503947 C22.9787014,22.557165 17.9014747,22.557165 13.0050881,23.6503947 C12.6453081,23.71977 12.294045,23.4958398 12.2050881,23.1403947 C12.18513,23.0380251 12.18513,22.9327643 12.2050881,22.8303947 C12.3850881,21.8303947 12.5750881,20.7303947 12.7150881,19.5903947 C12.8485006,18.4351956 12.9152778,17.2732721 12.9150881,16.1103947 C12.9161375,14.9408427 12.8493587,13.7722141 12.7150881,12.6103947 C12.5750881,11.4603947 12.3850881,10.3603947 12.2050881,9.3403947 C12.1668659,9.16379965 12.2015892,8.97925279 12.3013798,8.82862548 C12.4011704,8.67799817 12.557568,8.57406053 12.7350881,8.5403947 C12.8239952,8.52055997 12.9161809,8.52055997 13.0050881,8.5403947 Z M3.39508807,3.1003947 C5.88962506,3.20526022 8.38811266,3.03422282 10.8450881,2.5903947 C13.3036415,2.14930218 15.7052085,1.43486954 18.0050881,0.460394701 C18.1708205,0.395054597 18.3557514,0.398408429 18.5190057,0.469714907 C18.68226,0.541021385 18.8103946,0.674408764 18.8750881,0.840394701 C18.9097474,0.930510347 18.9097474,1.03027905 18.8750881,1.1203947 C18.8750881,2.1203947 18.8750881,3.2703947 18.9450881,4.4103947 C19.0027941,5.57643641 19.1263242,6.73828729 19.3150881,7.8903947 L19.3150881,7.9603947 C17.2513949,7.92193764 15.19718,7.67060629 13.1850881,7.2103947 C12.9217975,7.1503852 12.6483787,7.1503852 12.3850881,7.2103947 C11.2782474,7.43212816 10.5531378,8.49977406 10.7550881,9.6103947 C10.9450881,10.6603947 11.1250881,11.7103947 11.2450881,12.7903947 C11.3837245,13.898463 11.4571843,15.0137153 11.4650881,16.1303947 L11.4650881,16.2003947 C9.59459173,16.6347312 7.76716311,17.2371802 6.00508807,18.0003947 C5.8393556,18.0657348 5.65442476,18.062381 5.49117046,17.9910745 C5.32791615,17.919768 5.19978158,17.7863806 5.13508807,17.6203947 C5.06234616,17.5358845 5.0170091,17.4312606 5.00508807,17.3203947 C5.00508807,16.2703947 5.00508807,15.1703947 5.00508807,14.0003947 C4.93552072,12.8344167 4.80534482,11.6728471 4.61508807,10.5203947 C4.4107775,9.36999554 4.14371213,8.2316294 3.81508807,7.1103947 C3.43508807,6.0003947 3.07508807,5.0003947 2.72508807,4.0003947 C2.59447641,3.64711794 2.76681843,3.2538246 3.11508807,3.1103947 C3.20775941,3.09666248 3.30167321,3.09330842 3.39508807,3.1003947 Z" id="Shape" fill="#11B0DE"></path>
            <polygon id="Path" fill="#A5D8EE" points="12.5350881 11.5803947 12.6850881 12.6103947 28.1450881 12.6103947 28.2850881 11.5803947"></polygon>
            <polygon id="Path" fill="#A5D8EE" points="12.8850881 15.1303947 12.8850881 16.1103947 27.9350881 16.1103947 27.9350881 15.2203947"></polygon>
            <polygon id="Path" fill="#A5D8EE" fill-rule="nonzero" points="12.8050881 18.2903947 12.6850881 19.5903947 28.1450881 19.5903947 28.0250881 18.3503947"></polygon>
            <circle id="Oval" fill="#A5D8EE" fill-rule="nonzero" cx="5.04508807" cy="4.9603947" r="1"></circle>
            <circle id="Oval" fill="#A5D8EE" fill-rule="nonzero" cx="8.54508807" cy="7.1203947" r="1"></circle>
            <circle id="Oval" fill="#A5D8EE" fill-rule="nonzero" cx="7.24508807" cy="11.1303947" r="1"></circle>
            <circle id="Oval" fill="#A5D8EE" fill-rule="nonzero" cx="9.88508807" cy="14.8303947" r="1"></circle>
            <circle id="Oval" fill="#A5D8EE" fill-rule="nonzero" cx="6.45508807" cy="14.9203947" r="1"></circle>
            <circle id="Oval" fill="#A5D8EE" fill-rule="nonzero" cx="11.1050881" cy="3.9803947" r="1"></circle>
            <circle id="Oval" fill="#A5D8EE" fill-rule="nonzero" cx="14.1550881" cy="5.4503947" r="1"></circle>
            <circle id="Oval" fill="#A5D8EE" fill-rule="nonzero" cx="16.5950881" cy="2.8203947" r="1"></circle>
            <circle id="Oval" fill="#A5D8EE" fill-rule="nonzero" cx="17.4250881" cy="5.9903947" r="1"></circle>
        </g>
    </g>
</svg>