<?xml version="1.0" encoding="UTF-8"?>
<svg width="33px" height="24px" viewBox="0 0 33 24" version="1.1" xmlns="http://www.w3.org/2000/svg" xmlns:xlink="http://www.w3.org/1999/xlink">
    <title>Untitled 21</title>
    <g id="Page-1" stroke="none" stroke-width="1" fill="none" fill-rule="evenodd">
        <g id="mantellargo" transform="translate(0.994912, 0.999605)" fill-rule="nonzero">
            <path d="M13.4350881,0.360394701 C8.17508807,-0.859605299 1.89508807,0.760394701 0.295088069,9.2203947 C-1.30491193,17.6803947 3.68508807,21.7603947 13.2350881,21.8603947 C22.7850881,21.9603947 32.8450881,20.0703947 31.1550881,12.5103947 C29.4650881,4.9503947 24.1550881,5.1403947 21.6050881,5.5103947 C19.0550881,5.8803947 17.7150881,1.3603947 13.4350881,0.360394701 Z" id="Path" fill="#E8F4FA"></path>
            <path d="M28.6351759,8.1103947 C28.6377709,8.26329324 28.578904,8.41085729 28.4717161,8.51992568 C28.3645282,8.62899407 28.2180101,8.69041824 28.0650881,8.69039471 L2.00508807,8.69039471 C1.6886749,8.68493849 1.43508807,8.4268549 1.43508807,8.1103947 C1.43744806,8.03452784 1.45442505,7.95982906 1.48508807,7.8903947 C1.57295762,7.6803398 1.777407,7.54272964 2.00508807,7.5403947 L28.0650881,7.5403947 C28.2156407,7.5420089 28.3594397,7.60312348 28.4650881,7.7103947 C28.5224692,7.75887948 28.5671027,7.8206797 28.5950881,7.8903947 C28.6093744,7.96303224 28.6093744,8.03775716 28.5950881,8.1103947 L28.6351759,8.1103947 Z" id="Path" fill="#CBAD95"></path>
            <path d="M26.7450881,8.6903947 L3.30508807,8.6903947 L3.30508807,10.3103947 C3.30508807,10.6655105 3.59001426,10.9549314 3.94508807,10.9603947 L26.0950881,10.9603947 C26.4540732,10.9603947 26.7450881,10.6693798 26.7450881,10.3103947 L26.7450881,8.6903947 Z" id="Path" fill="#CBAD95"></path>
            <path d="M5.08508807,11.0003947 L5.08508807,22.0003947 C5.08508807,22.1936944 4.92838773,22.3503947 4.73508807,22.3503947 L4.73508807,22.3503947 C4.54570458,22.3449815 4.39501072,22.1898555 4.39508807,22.0003947 L4.39508807,11.0003947 L5.08508807,11.0003947 Z" id="Path" fill="#CBAD95"></path>
            <path d="M26.0950881,11.0003947 L26.0950881,22.0003947 C26.0950881,22.1936944 25.9383877,22.3503947 25.7450881,22.3503947 L25.7450881,22.3503947 C25.5517884,22.3503947 25.3950881,22.1936944 25.3950881,22.0003947 L25.3950881,11.0003947 L26.0950881,11.0003947 Z" id="Path" fill="#CBAD95"></path>
            <path d="M23.3250881,7.5403947 L23.3250881,16.6603947 C23.3250881,16.986611 23.1954992,17.2994663 22.9648294,17.530136 C22.7341597,17.7608058 22.4213044,17.8904354 22.0950881,17.8904354 L8.00508807,17.8904354 C7.6771426,17.893061 7.36171213,17.7646501 7.12887505,17.5336908 C6.89603796,17.3027314 6.76508807,16.988351 6.76508807,16.6603947 L6.76508807,7.5403947 L23.3250881,7.5403947 Z" id="Path" fill="#CBAD95"></path>
            <path d="M21.5950881,7.5403947 L21.5950881,9.2803947 L20.0050881,9.2803947 L20.0050881,7.5403947 L19.4050881,7.5403947 L19.4050881,9.2803947 L17.6750881,9.2803947 L17.6750881,7.5403947 L17.0650881,7.5403947 L17.0650881,9.2803947 L15.3250881,9.2803947 L15.3250881,7.5403947 L14.7150872,7.5403947 L14.7150872,9.2803947 L13.0050881,9.2803947 L13.0050881,7.5403947 L12.3950881,7.5403947 L12.3950881,9.2803947 L10.6350881,9.2803947 L10.6350881,7.5403947 L10.0050881,7.5403947 L10.0050881,9.2803947 L8.44508807,9.2803947 L8.44508807,7.5403947 L6.7150872,7.5403947 L6.7150872,16.6603947 C6.71468701,16.9972778 6.85247942,17.3195813 7.09629454,17.5520562 C7.34010965,17.7845311 7.6686058,17.9068283 8.00508807,17.8903947 L22.0950881,17.8903947 C22.4213044,17.8903947 22.7341597,17.7608058 22.9648294,17.530136 C23.1954992,17.2994663 23.3250881,16.986611 23.3250881,16.6603947 L23.3250881,7.5403947 L21.5950881,7.5403947 Z M10.0050881,16.1603947 L8.44508807,16.1603947 L8.44508807,14.5803947 L10.0050881,14.5803947 L10.0050881,16.1603947 Z M10.0050881,14.0003947 L8.44508807,14.0003947 L8.44508807,12.2403947 L10.0050881,12.2403947 L10.0050881,14.0003947 Z M10.0050881,11.6503947 L8.44508807,11.6503947 L8.44508807,9.8903947 L10.0050881,9.8903947 L10.0050881,11.6503947 Z M12.3450881,16.1803947 L10.6350881,16.1803947 L10.6350881,14.5803947 L12.3650881,14.5803947 L12.3450881,16.1803947 Z M12.3450881,14.0003947 L10.6350881,14.0003947 L10.6350881,12.2403947 L12.3650881,12.2403947 L12.3450881,14.0003947 Z M12.3450881,11.6503947 L10.6350881,11.6503947 L10.6350881,9.8903947 L12.3650881,9.8903947 L12.3450881,11.6503947 Z M14.6950881,16.1803947 L13.0050881,16.1803947 L13.0050881,14.5803947 L14.7450881,14.5803947 L14.6950881,16.1803947 Z M14.6950881,14.0003947 L13.0050881,14.0003947 L13.0050881,12.2403947 L14.7450881,12.2403947 L14.6950881,14.0003947 Z M14.6950881,11.6503947 L13.0050881,11.6503947 L13.0050881,9.8903947 L14.7450881,9.8903947 L14.6950881,11.6503947 Z M17.0450881,16.1803947 L15.3250881,16.1803947 L15.3250881,14.5803947 L17.0650881,14.5803947 L17.0450881,16.1803947 Z M17.0450881,14.0003947 L15.3250881,14.0003947 L15.3250881,12.2403947 L17.0650881,12.2403947 L17.0450881,14.0003947 Z M17.0450881,11.6503947 L15.3250881,11.6503947 L15.3250881,9.8903947 L17.0650881,9.8903947 L17.0450881,11.6503947 Z M19.3950881,16.1803947 L17.6750881,16.1803947 L17.6750881,14.5803947 L19.4150881,14.5803947 L19.3950881,16.1803947 Z M19.3950881,14.0003947 L17.6750881,14.0003947 L17.6750881,12.2403947 L19.4150881,12.2403947 L19.3950881,14.0003947 Z M19.3950881,11.6503947 L17.6750881,11.6503947 L17.6750881,9.8903947 L19.4150881,9.8903947 L19.3950881,11.6503947 Z M21.5750881,16.1803947 L20.0050881,16.1803947 L20.0050881,14.5803947 L21.5850881,14.5803947 L21.5750881,16.1803947 Z M21.5750881,14.0003947 L20.0050881,14.0003947 L20.0050881,12.2403947 L21.5850881,12.2403947 L21.5750881,14.0003947 Z M21.5750881,11.6503947 L20.0050881,11.6503947 L20.0050881,9.8903947 L21.5850881,9.8903947 L21.5750881,11.6503947 Z" id="Shape" fill="#ECE0D4"></path>
        </g>
    </g>
</svg>