<?xml version="1.0" encoding="UTF-8"?>
<svg width="40px" height="37px" viewBox="0 0 40 37" version="1.1" xmlns="http://www.w3.org/2000/svg" xmlns:xlink="http://www.w3.org/1999/xlink">
    <title>Untitled 22</title>
    <g id="Page-1" stroke="none" stroke-width="1" fill="none" fill-rule="evenodd">
        <g id="pantalonesx5" transform="translate(0.001308, 0.000000)" fill-rule="nonzero">
            <path d="M16.4886918,7.83 C9.9986918,6.33 2.3086918,8.32 0.358691803,18.7 C-1.5913082,29.08 4.5086918,34.09 16.2386918,34.21 C27.9686918,34.33 40.3086918,32.02 38.2386918,22.73 C36.1686918,13.44 29.6886918,13.73 26.5086918,14.18 C23.3286918,14.63 21.7386918,9.05 16.4886918,7.83 Z" id="Path" fill="#E8F4FA"></path>
            <path d="M12.7786918,3 L20.4686918,4 L20.4686918,13.2 L19.7386918,36.27 C19.7386918,36.27 17.1386918,37.67 12.5986918,36.27 C12.5986918,36.23 11.8686918,7.09 12.7786918,3 Z" id="Path" fill="#11B0DE"></path>
            <path d="M12.7786918,3 C12.683986,3.44468798 12.6238066,3.89603323 12.5986918,4.35 L20.5986918,5.35 L20.4686918,4 L12.7786918,3 Z" id="Path" fill="#A5D8EE"></path>
            <polygon id="Path" fill="#FFFFFF" points="15.8786918 3.38 16.6286918 3.46 16.6586918 5 15.8786918 4.91"></polygon>
            <path d="M28.1486918,3 L20.4686918,4 L20.4686918,13.2 L21.5586918,36.27 C21.5586918,36.27 23.7886918,37.67 28.3386918,36.27 C28.3386918,36.23 29.0586918,7.09 28.1486918,3 Z" id="Path" fill="#11B0DE"></path>
            <path d="M20.4686918,2.8 C18.9386918,2.8 12.7786918,2.96 12.7786918,2.96 L20.4686918,3.96 L28.1486918,2.96 C28.1486918,2.96 21.9986918,2.76 20.4686918,2.8 Z" id="Path" fill="#A5D8EE"></path>
            <path d="M20.3986918,4 L21.8286918,3.88 C21.8286918,3.88 21.8286918,8.95 21.8286918,9.68 C21.534905,10.1391323 21.0996423,10.4901507 20.5886918,10.68 L20.3986918,4 Z" id="Path" fill="#A5D8EE"></path>
            <path d="M28.1486918,3 C28.1486918,3 28.2686918,3.79 28.3286918,4.35 C28.3286918,4.35 22.2086918,5.68 18.8586918,5.13 L18.8586918,3.8 C21.9701479,3.74878638 25.0742874,3.4814762 28.1486918,3 L28.1486918,3 Z" id="Path" fill="#A5D8EE"></path>
            <polygon id="Path" fill="#FFFFFF" points="25.0486918 3.38 24.3086918 3.46 24.3086918 5.18 25.0486918 5.07"></polygon>
            <path d="M12.4486918,8.29 C12.4486918,8.29 15.6886918,8.69 16.3986918,4.95 C15.804974,6.710839 14.2837138,7.99717038 12.4486918,8.29 L12.4486918,8.29 Z" id="Path" fill="#A5D8EE"></path>
            <path d="M28.4786918,8.29 C26.5614778,8.47697838 24.8320742,7.13383754 24.5386918,5.23 C25.1791045,6.90457647 26.6977092,8.08400045 28.4786918,8.29 Z" id="Path" fill="#A5D8EE"></path>
            <circle id="Oval" fill="#7FBC5B" cx="31.4186918" cy="7.68" r="7.68"></circle>
            <text id="x5" fill="#FFFFFF" font-family="Helvetica" font-size="8.65" font-weight="normal">
                <tspan x="25.9386918" y="10.47">x5</tspan>
            </text>
        </g>
    </g>
</svg>