<?xml version="1.0" encoding="UTF-8"?>
<svg width="36px" height="35px" viewBox="0 0 36 35" version="1.1" xmlns="http://www.w3.org/2000/svg" xmlns:xlink="http://www.w3.org/1999/xlink">
    <title>Untitled 21</title>
    <g id="Page-1" stroke="none" stroke-width="1" fill="none" fill-rule="evenodd">
        <g id="pantalonesfaldas" transform="translate(0.002678, 0.000000)" fill-rule="nonzero">
            <path d="M15.0573223,7.18 C9.1673223,5.81 2.1073223,7.62 0.327322304,17.11 C-1.4526777,26.6 4.1173223,31.17 14.8373223,31.29 C25.5573223,31.41 36.8373223,29.29 34.9273223,20.79 C33.0173223,12.29 27.1173223,12.53 24.2073223,13 C21.2973223,13.47 19.8573223,8.29 15.0573223,7.18 Z" id="Path" fill="#E8F4FA"></path>
            <path d="M10.5773223,0.17 L18.2673223,1.17 L18.2673223,10.36 L17.5373223,33.44 C17.5373223,33.44 14.9373223,34.84 10.3973223,33.44 C10.3973223,33.44 9.6673223,4.3 10.5773223,0.17 Z" id="Path" fill="#DBC5AF"></path>
            <path d="M10.5773223,0.17 C10.4830862,0.611396459 10.422909,1.05938199 10.3973223,1.51 L18.3973223,2.51 L18.2773223,1.14 L10.5773223,0.17 Z" id="Path" fill="#ECE0D4"></path>
            <polygon id="Path" fill="#CBAD95" points="13.6773223 0.58 14.4273223 0.67 14.4573223 2.21 13.6773223 2.11"></polygon>
            <path d="M25.9973223,0.17 L18.3173223,1.17 L18.3173223,10.36 L19.4073223,33.44 C19.4073223,33.44 21.6373223,34.84 26.1873223,33.44 C26.1373223,33.44 26.8573223,4.3 25.9973223,0.17 Z" id="Path" fill="#DBC5AF"></path>
            <path d="M18.2673223,0 C16.7373223,0 10.5773223,0.17 10.5773223,0.17 L18.2673223,1.17 L25.9973223,0.17 C25.9973223,0.17 19.7973223,0 18.2673223,0 Z" id="Path" fill="#CBAD95"></path>
            <path d="M18.1973223,1.19 L19.6273223,1.07 C19.6273223,1.07 19.6273223,6.13 19.6273223,6.87 C19.3335355,7.32913231 18.8982728,7.68015067 18.3873223,7.87 L18.1973223,1.19 Z" id="Path" fill="#ECE0D4"></path>
            <path d="M25.9973223,0.17 C25.9973223,0.17 26.1173223,0.96 26.1773223,1.52 C26.1773223,1.52 20.0573223,2.85 16.7073223,2.3 L16.6973223,1 C19.8128183,0.939322231 22.9203194,0.661986113 25.9973223,0.17 L25.9973223,0.17 Z" id="Path" fill="#ECE0D4"></path>
            <polygon id="Path" fill="#CBAD95" points="22.8473223 0.58 22.1073223 0.67 22.1073223 2.38 22.8473223 2.27"></polygon>
            <circle id="Oval" fill="#7FBC5B" cx="28.7073223" cy="7.04" r="7.02"></circle>
            <text id="x" fill="#FFFFFF" font-family="Helvetica" font-size="7.91" font-weight="normal">
                <tspan x="23.6573223" y="9.59">x</tspan>
            </text>
        </g>
    </g>
</svg>