<?xml version="1.0" encoding="UTF-8"?>
<svg width="35px" height="28px" viewBox="0 0 35 28" version="1.1" xmlns="http://www.w3.org/2000/svg" xmlns:xlink="http://www.w3.org/1999/xlink">
    <title>Untitled 22</title>
    <g id="Page-1" stroke="none" stroke-width="1" fill="none" fill-rule="evenodd">
        <g id="parka" transform="translate(0.000000, 0.999912)" fill-rule="nonzero">
            <path d="M14.75,2.57008798 C9.15,1.27008798 2.46,3.00008798 0.77,12.000088 C-0.92,21.000088 4.37,25.340088 14.53,25.440088 C24.69,25.540088 35.39,23.540088 33.59,15.440088 C31.79,7.34008798 26.18,7.65008798 23.43,8.08008798 C20.68,8.51008798 19.3,3.63008798 14.75,2.57008798 Z" id="Path" fill="#E8F4FA"></path>
            <path d="M33.46,22.050088 C33.5404683,21.8941227 33.5913275,21.724592 33.61,21.550088 C33.18,17.120088 26.33,4.71008798 26.33,4.71008798 C24.54,2.93008798 20.76,1.78008798 20.76,1.78008798 C20.6952273,1.23872269 20.4442286,0.736725291 20.05,0.360087984 C19.8187823,0.136243526 19.5117295,0.0077097886 19.19,0 L17.41,0.140087984 L16.77,0.140087984 L15,0 C14.6788249,-0.00388195229 14.3706256,0.126649498 14.15,0.360087984 C13.7507124,0.734197944 13.4958226,1.23689718 13.43,1.78008798 C13.43,1.78008798 9.63,2.93008798 7.85,4.71008798 C7.85,4.71008798 1,17.120088 0.57,21.550088 C0.541269366,21.7292103 0.592430798,21.9119297 0.71,22.050088 L0,23.690088 C0.922484907,24.4726877 2.02590735,25.0123678 3.21,25.260088 L3.85,23.690088 C4.1525485,23.6964861 4.43216661,23.5294919 4.57,23.260088 C5.21,21.900088 7,18.190088 8.21,15.340088 C8.06,17.550088 7.85,23.340088 8.99,24.470088 C9.10366294,24.5187362 9.22638932,24.5425996 9.35,24.540088 C9.42,25.190088 9.35,26.760088 9.35,26.760088 L16.84,26.760088 L16.84,6.06008798 C16.34,5.14008798 15.55,3.42008798 15.55,3.42008798 L14.84,1.57008798 C15.48,1.50008798 17.2,1.57008798 17.2,1.57008798 C17.2,1.57008798 18.91,1.50008798 19.55,1.57008798 L18.84,3.42008798 C18.84,3.42008798 18.05,5.14008798 17.55,6.06008798 L17.55,26.760088 L25,26.760088 C25,26.760088 24.93,25.190088 25,24.540088 C25.1161582,24.500117 25.2373274,24.4765563 25.36,24.470088 C26.5,23.330088 26.29,17.550088 26.14,15.340088 C27.36,18.120088 29.14,21.900088 29.78,23.260088 C29.9178334,23.5294919 30.1974515,23.6964861 30.5,23.690088 L31.14,25.260088 C32.3083277,24.9678391 33.4020441,24.4329061 34.35,23.690088 L33.46,22.050088 Z" id="Path" fill="#151C32"></path>
            <path d="M9.35,24.540088 C14.5406758,25.1171813 19.7793242,25.1171813 24.97,24.540088 C24.97,24.540088 20.63,25.000088 9.35,24.540088 Z" id="Path" fill="#484E5F"></path>
            <path d="M0.71,22.050088 C0.71,22.050088 1.2,23.150088 3.85,23.690088 C3.85,23.690088 0.86,22.550088 0.71,22.050088 Z" id="Path" fill="#484E5F"></path>
            <path d="M30.47,23.690088 C31.654048,23.5827391 32.7404516,22.9888385 33.47,22.050088 C33.47,22.050088 31.38,23.620088 30.47,23.690088 Z" id="Path" fill="#484E5F"></path>
            <path d="M13.41,1.78008798 C13.41,1.78008798 14.26,5.17008798 16.84,6.06008798 C15.2919726,5.01113975 14.0965258,3.51944519 13.41,1.78008798 Z" id="Path" fill="#484E5F"></path>
            <path d="M20.84,1.78008798 C20.84,1.78008798 20,5.17008798 17.41,6.06008798 C18.9580274,5.01113975 20.1534742,3.51944519 20.84,1.78008798 L20.84,1.78008798 Z" id="Path" fill="#484E5F"></path>
            <rect id="Rectangle" fill="#484E5F" x="16.84" y="6.06008798" width="1" height="20.69"></rect>
            <path d="M10.22,22.050088 L10.22,17.540088 C10.22,17.540088 10.83,18.900088 10.22,22.050088 Z" id="Path" fill="#484E5F"></path>
            <path d="M24.14,22.050088 L24.14,17.540088 C24.14,17.540088 23.53,18.900088 24.14,22.050088 Z" id="Path" fill="#484E5F"></path>
        </g>
    </g>
</svg>