<?xml version="1.0" encoding="UTF-8"?>
<svg width="35px" height="28px" viewBox="0 0 35 28" version="1.1" xmlns="http://www.w3.org/2000/svg" xmlns:xlink="http://www.w3.org/1999/xlink">
    <title>Untitled 22</title>
    <g id="Page-1" stroke="none" stroke-width="1" fill="none" fill-rule="evenodd">
        <g id="parkaplumas" transform="translate(0.999281, 0.033379)" fill-rule="nonzero">
            <path d="M14.290719,4.27662114 C8.70071902,2.96662114 2.00071902,4.69662114 0.310719016,13.6966211 C-1.37928098,22.6966211 3.91071902,27.0366211 14.080719,27.1466211 C24.250719,27.2566211 34.940719,25.2366211 33.140719,17.1966211 C31.340719,9.15662114 25.730719,9.35662114 23.000719,9.77662114 C20.270719,10.1966211 18.840719,5.33662114 14.290719,4.27662114 Z" id="Path" fill="#E8F4FA"></path>
            <path d="M31.200719,21.4566211 C30.6056781,17.00787 29.7102997,12.6044795 28.520719,8.27662114 C27.360719,4.62662114 22.690719,3.49662114 21.060719,3.20662114 C21.1308184,2.80969234 21.1308184,2.40354994 21.060719,2.00662114 C21.0445549,1.9882774 21.0238687,1.97448658 21.000719,1.96662114 C20.8090342,1.44343026 20.4596112,0.992674507 20.000719,0.676621142 C19.900719,0.596621142 19.000719,-0.0733788577 16.600719,0.00662114229 C14.210719,-0.0733788577 13.300719,0.596621142 13.220719,0.666621142 C12.7601878,0.985293379 12.4106005,1.43975687 12.220719,1.96662114 C12.219442,1.989937 12.219442,2.01330528 12.220719,2.03662114 C12.1506197,2.43354994 12.1506197,2.83969234 12.220719,3.23662114 C10.670719,3.49662114 6.00071902,4.62662114 4.83071902,8.29662114 C3.6474549,12.6220328 2.75545547,17.0218952 2.16071902,21.4666211 C2.08907011,22.4058529 2.18385915,23.350358 2.44071902,24.2566211 C2.48866481,24.4144627 2.6191321,24.5334182 2.78071902,24.5666211 L5.31071902,25.2166211 C5.47448647,25.2586631 5.64835837,25.2133053 5.77071902,25.0966211 C6.53274628,24.3266537 7.0748317,23.3667827 7.34071902,22.3166211 L8.44071902,16.9666211 C8.28980606,19.5947643 8.36340632,22.2309919 8.66071902,24.8466211 C8.79219318,25.6831676 9.11002738,26.4794619 9.59071902,27.1766211 C9.68229608,27.2790104 9.81335268,27.3372578 9.95071902,27.3366263 L23.420719,27.3366263 C23.554595,27.3344376 23.6814743,27.2764356 23.770719,27.1766211 C24.2452493,26.4872238 24.5627155,25.7020924 24.700719,24.8766211 C24.9969887,22.2508766 25.0705845,19.604774 24.920719,16.9666211 L26.000719,22.3466211 C26.2780994,23.381157 26.8150621,24.3277258 27.560719,25.0966211 C27.6848929,25.2100098 27.8569792,25.2549018 28.020719,25.2166211 L30.550719,24.5666211 C30.7132283,24.5309318 30.8456648,24.4136308 30.900719,24.2566211 C31.1669635,23.3486598 31.2685651,22.4003779 31.200719,21.4566211 Z M17.270719,3.37662114 C17.1404872,3.38922538 17.0207053,3.4533905 16.938057,3.55482249 C16.8554087,3.65625447 16.8167594,3.78652765 16.830719,3.91662114 C16.8207061,3.96275071 16.8207061,4.01049158 16.830719,4.05662114 C16.7100179,3.8453804 16.5544961,3.65604951 16.370719,3.49662114 C16.2993319,3.42362898 16.2027355,3.38069724 16.100719,3.37662114 C15.8358229,3.35672922 15.5740988,3.30639766 15.320719,3.22662114 C15.7498008,3.10454921 16.194709,3.04725042 16.640719,3.05662114 C17.1000884,3.04319691 17.5587885,3.10053442 18.000719,3.22662114 C17.7628563,3.30029457 17.5183597,3.35053359 17.270719,3.37662114 Z" id="Shape" fill="#CBAD95"></path>
            <path d="M16.870719,4.05662114 C15.3024149,11.7279373 15.2378885,19.6307191 16.680719,27.3266211 C16.680719,27.3266211 14.940719,11.7566211 16.870719,4.05662114 Z" id="Path" fill="#ECE0D4"></path>
            <path d="M12.300719,3.20662114 C12.300719,3.20662114 16.300719,7.56662114 21.060719,3.20662114 C21.060719,3.20662114 17.160719,7.09662114 12.300719,3.20662114 Z" id="Path" fill="#ECE0D4"></path>
            <path d="M2.24071902,23.2266211 L6.31071902,24.2266211 C4.91266467,24.0928469 3.54158029,23.7559712 2.24071902,23.2266211 L2.24071902,23.2266211 Z" id="Path" fill="#ECE0D4"></path>
            <path d="M26.920719,24.2666211 L30.920719,23.1766211 C29.6449998,23.7254539 28.2985122,24.0923718 26.920719,24.2666211 Z" id="Path" fill="#ECE0D4"></path>
            <path d="M9.92071902,23.1366211 L11.780719,19.0266211 C11.780719,19.0266211 11.770719,20.5166211 9.92071902,23.1366211 Z" id="Path" fill="#ECE0D4"></path>
            <path d="M23.300719,23.1366211 L21.450719,19.0266211 C21.450719,19.0266211 21.450719,20.5166211 23.300719,23.1366211 Z" id="Path" fill="#ECE0D4"></path>
            <path d="M9.00071902,26.0166211 C9.00071902,26.0166211 14.310719,27.1266211 24.450719,25.8866211 C19.3130118,26.3538445 14.1455609,26.3973247 9.00071902,26.0166211 L9.00071902,26.0166211 Z" id="Path" fill="#ECE0D4"></path>
        </g>
    </g>
</svg>