<?xml version="1.0" encoding="UTF-8"?>
<svg width="33px" height="24px" viewBox="0 0 33 24" version="1.1" xmlns="http://www.w3.org/2000/svg" xmlns:xlink="http://www.w3.org/1999/xlink">
    <title>Untitled 22</title>
    <g id="Page-1" stroke="none" stroke-width="1" fill="none" fill-rule="evenodd">
        <g id="plumon" transform="translate(0.994912, 0.999605)" fill-rule="nonzero">
            <path d="M13.4350881,0.360394701 C8.17508807,-0.859605299 1.89508807,0.760394701 0.295088069,9.2203947 C-1.30491193,17.6803947 3.68508807,21.7603947 13.2350881,21.8603947 C22.7850881,21.9603947 32.8450881,20.0703947 31.1550881,12.5103947 C29.4650881,4.9503947 24.1550881,5.1403947 21.6050881,5.5103947 C19.0550881,5.8803947 17.7150881,1.3603947 13.4350881,0.360394701 Z" id="Path" fill="#E8F4FA"></path>
            <polygon id="Path" fill="#CBAD95" points="12.8550881 1.3103947 7.71508807 6.8303947 7.57508807 21.6603947 8.21508807 22.3403947 21.3150881 22.1203947 21.9250881 21.2803947 21.7950881 2.4403947 20.8450881 1.0003947"></polygon>
            <path d="M21.0050881,0.330394701 L12.5050881,0.330394701 L6.87508807,6.5803947 L6.87508807,21.0003947 C6.76178853,21.9707143 7.43892697,22.8558625 8.40508807,23.0003947 L21.0050881,23.0003947 C21.9700941,22.8559145 22.6442619,21.9688517 22.5250881,21.0003947 L22.5250881,2.3303947 C22.6388139,1.36341656 21.9672106,0.479728065 21.0050881,0.330394701 Z M21.5150881,2.3303947 L21.5150881,4.6003947 L18.8350881,4.6003947 L18.8350881,1.6603947 L21.0050881,1.6603947 C21.3105576,1.72990466 21.5137111,2.01950644 21.4750881,2.3303947 L21.5150881,2.3303947 Z M11.9450881,7.5403947 C12.6918167,7.42714506 13.2217245,6.7527169 13.1550881,6.0003947 L13.1550881,6.0003947 L14.1550881,6.0003947 L14.1550881,8.8703947 L11.5450881,8.8703947 L11.5450881,7.5403947 L11.9450881,7.5403947 Z M14.1750881,10.1903947 L14.1750881,13.1303947 L11.5450881,13.1303947 L11.5450881,10.1903947 L14.1750881,10.1903947 Z M15.1750881,10.1903947 L17.8050881,10.1903947 L17.8050881,13.1303947 L15.1950881,13.1303947 L15.1750881,10.1903947 Z M15.1750881,8.8703947 L15.1750881,5.9303947 L17.8050881,5.9303947 L17.8050881,8.8703947 L15.1750881,8.8703947 Z M15.1750881,4.6003947 L15.1750881,1.6603947 L17.8050881,1.6603947 L17.8050881,4.6003947 L15.1750881,4.6003947 Z M14.1750881,4.6003947 L13.1750881,4.6003947 L13.1750881,1.6603947 L14.1750881,1.6603947 L14.1750881,4.6003947 Z M12.1350881,6.0003947 C12.1350881,6.1403947 12.0550881,6.2503947 11.9450881,6.2503947 L8.77508807,6.2503947 L12.1350881,2.4803947 L12.1350881,6.0003947 Z M10.5250881,7.5403947 L10.5250881,8.8703947 L7.89508807,8.8703947 L7.89508807,7.5403947 L10.5250881,7.5403947 Z M10.5250881,10.1903947 L10.5250881,13.1303947 L7.89508807,13.1303947 L7.89508807,10.1903947 L10.5250881,10.1903947 Z M10.5250881,14.4603947 L10.5250881,17.4003947 L7.89508807,17.4003947 L7.89508807,14.4603947 L10.5250881,14.4603947 Z M11.5250881,14.4603947 L14.1550881,14.4603947 L14.1550881,17.4003947 L11.5450881,17.4003947 L11.5250881,14.4603947 Z M14.1550881,18.7303947 L14.1550881,21.6603947 L11.5450881,21.6603947 L11.5450881,18.7303947 L14.1550881,18.7303947 Z M15.1550881,18.7303947 L17.7850881,18.7303947 L17.7850881,21.6603947 L15.1950881,21.6603947 L15.1550881,18.7303947 Z M15.1550881,17.4003947 L15.1550881,14.4603947 L17.7850881,14.4603947 L17.7850881,17.4003947 L15.1550881,17.4003947 Z M18.7950881,14.4603947 L21.4250881,14.4603947 L21.4250881,17.4003947 L18.8350881,17.4003947 L18.7950881,14.4603947 Z M18.7950881,13.1303947 L18.7950881,10.1903947 L21.4250881,10.1903947 L21.4250881,13.1303947 L18.7950881,13.1303947 Z M18.7950881,8.8703947 L18.7950881,5.9303947 L21.4250881,5.9303947 L21.4250881,8.8703947 L18.7950881,8.8703947 Z M7.89508807,21.0003947 L7.89508807,18.7303947 L10.5250881,18.7303947 L10.5250881,21.6603947 L8.40508807,21.6603947 C8.08496563,21.613849 7.85937305,21.3219057 7.89508807,21.0003947 Z M21.0050881,21.6603947 L18.8350881,21.6603947 L18.8350881,18.7303947 L21.4750881,18.7303947 L21.4750881,21.0003947 C21.5130516,21.3089308 21.3090737,21.5953679 21.0050881,21.6603947 Z" id="Shape" fill="#ECE0D4"></path>
        </g>
    </g>
</svg>