<?xml version="1.0" encoding="UTF-8"?>
<svg width="33px" height="24px" viewBox="0 0 33 24" version="1.1" xmlns="http://www.w3.org/2000/svg" xmlns:xlink="http://www.w3.org/1999/xlink">
    <title>Untitled 22</title>
    <g id="Page-1" stroke="none" stroke-width="1" fill="none" fill-rule="evenodd">
        <g id="plumon_king" transform="translate(0.994912, 0.000000)" fill-rule="nonzero">
            <path d="M13.4350881,1.59 C8.17508807,0.36 1.89508807,2 0.295088069,10.44 C-1.30491193,18.88 3.68508807,23 13.2350881,23.09 C22.7850881,23.18 32.8450881,21.29 31.1550881,13.73 C29.4650881,6.17 24.1550881,6.36 21.6050881,6.73 C19.0550881,7.1 17.7150881,2.58 13.4350881,1.59 Z" id="Path" fill="#E8F4FA"></path>
            <polygon id="Path" fill="#ECE0D4" points="12.9650881 0.98 6.24508807 6.5 6.07508807 21.33 6.91508807 22 24.0050881 21.78 24.8050881 20.94 24.6250881 2.11 23.3850881 0.67"></polygon>
            <path d="M23.5350881,0 L12.4450881,0 L5.16508807,6.25 L5.16508807,20.67 C5.16508807,21.7745695 6.06051857,22.67 7.16508807,22.67 L23.5350881,22.67 C24.6396576,22.67 25.5350881,21.7745695 25.5350881,20.67 L25.5350881,2 C25.5350881,0.8954305 24.6396576,0 23.5350881,0 Z M24.2050881,2 L24.2050881,4.27 L20.7750881,4.27 L20.7750881,1.33 L23.5350881,1.33 C23.9051189,1.33 24.2050881,1.62996922 24.2050881,2 Z M11.7750881,7.2 C12.1932079,7.20266324 12.5951174,7.03842946 12.8917158,6.74370819 C13.1883143,6.44898692 13.3550966,6.04812831 13.3550881,5.63 L13.3550881,5.63 L14.6850881,5.63 L14.6850881,8.53 L11.2550881,8.53 L11.2550881,7.2 L11.7750881,7.2 Z M14.6850881,9.86 L14.6850881,12.8 L11.2550881,12.8 L11.2550881,9.86 L14.6850881,9.86 Z M16.0150881,9.86 L19.4450881,9.86 L19.4450881,12.8 L16.0050881,12.8 L16.0150881,9.86 Z M16.0150881,8.53 L16.0150881,5.59 L19.4450881,5.59 L19.4450881,8.53 L16.0150881,8.53 Z M16.0150881,4.27 L16.0150881,1.33 L19.4450881,1.33 L19.4450881,4.27 L16.0150881,4.27 Z M14.6850881,4.27 L13.3550881,4.27 L13.3550881,1.33 L14.6850881,1.33 L14.6850881,4.27 Z M12.0050881,5.63 C12.0050881,5.76807119 11.8931593,5.88 11.7550881,5.88 L7.63508807,5.88 L12.0050881,2.11 L12.0050881,5.63 Z M9.92508807,7.2 L9.92508807,8.53 L6.49508807,8.53 L6.49508807,7.2 L9.92508807,7.2 Z M9.92508807,9.86 L9.92508807,12.8 L6.49508807,12.8 L6.49508807,9.86 L9.92508807,9.86 Z M9.92508807,14.13 L9.92508807,17.06 L6.49508807,17.06 L6.49508807,14.13 L9.92508807,14.13 Z M11.2550881,14.13 L14.6850881,14.13 L14.6850881,17.06 L11.2550881,17.06 L11.2550881,14.13 Z M14.6850881,18.39 L14.6850881,21.33 L11.2550881,21.33 L11.2550881,18.39 L14.6850881,18.39 Z M16.0150881,18.39 L19.4450881,18.39 L19.4450881,21.33 L16.0050881,21.33 L16.0150881,18.39 Z M16.0150881,17.06 L16.0150881,14.13 L19.4450881,14.13 L19.4450881,17.06 L16.0150881,17.06 Z M20.7750881,14.13 L24.2050881,14.13 L24.2050881,17.06 L20.7750881,17.06 L20.7750881,14.13 Z M20.7750881,12.8 L20.7750881,9.86 L24.2050881,9.86 L24.2050881,12.8 L20.7750881,12.8 Z M20.7750881,8.53 L20.7750881,5.59 L24.2050881,5.59 L24.2050881,8.53 L20.7750881,8.53 Z M6.49508807,20.67 L6.49508807,18.39 L9.92508807,18.39 L9.92508807,21.33 L7.15508807,21.33 C6.79058013,21.33 6.49508807,21.0345079 6.49508807,20.67 L6.49508807,20.67 Z M23.4950881,21.33 L20.7750881,21.33 L20.7750881,18.39 L24.2050881,18.39 L24.2050881,20.67 C24.199623,21.0361197 23.9012485,21.3300408 23.5350881,21.33 L23.4950881,21.33 Z" id="Shape" fill="#CBAD95"></path>
        </g>
    </g>
</svg>