<?xml version="1.0" encoding="UTF-8"?>
<svg width="33px" height="25px" viewBox="0 0 33 25" version="1.1" xmlns="http://www.w3.org/2000/svg" xmlns:xlink="http://www.w3.org/1999/xlink">
    <title>Untitled 22</title>
    <g id="Page-1" stroke="none" stroke-width="1" fill="none" fill-rule="evenodd">
        <g id="plumon_sintetico" transform="translate(0.994912, 0.999605)" fill-rule="nonzero">
            <path d="M13.4350881,0.360394701 C8.17508807,-0.859605299 1.89508807,0.760394701 0.295088069,9.2203947 C-1.30491193,17.6803947 3.68508807,21.7603947 13.2350881,21.8603947 C22.7850881,21.9603947 32.8450881,20.0703947 31.1550881,12.5103947 C29.4650881,4.9503947 24.1550881,5.1403947 21.6050881,5.5103947 C19.0550881,5.8803947 17.7150881,1.3603947 13.4350881,0.360394701 Z" id="Path" fill="#E8F4FA"></path>
            <polygon id="Path" fill="#11B0DE" points="12.9650881 1.9603947 6.24508807 7.4803947 6.07508807 22.3103947 6.91508807 22.9903947 24.0050881 22.7703947 24.8050881 21.9303947 24.6250881 3.0903947 23.3850881 1.6503947"></polygon>
            <path d="M23.5350881,1.0003947 L12.4450881,1.0003947 L5.16508807,7.2303947 L5.16508807,21.6503947 C5.16508807,22.7549642 6.06051857,23.6503947 7.16508807,23.6503947 L23.5350881,23.6503947 C24.6396576,23.6503947 25.5350881,22.7549642 25.5350881,21.6503947 L25.5350881,3.0003947 C25.5350881,1.8958252 24.6396576,1.0003947 23.5350881,1.0003947 Z M24.2050881,3.0003947 L24.2050881,5.2503947 L20.7750881,5.2503947 L20.7750881,2.31039463 L23.5350881,2.31039463 C23.7163032,2.31031394 23.8898228,2.38364181 24.0160633,2.51365064 C24.1423038,2.64365947 24.2104975,2.81926026 24.2050881,3.0003947 L24.2050881,3.0003947 Z M11.7750881,8.1903947 C12.1941301,8.1903947 12.5960093,8.02393089 12.8923168,7.72762341 C13.1886243,7.43131594 13.3550881,7.02943675 13.3550881,6.6103947 L13.3550881,6.6103947 L14.6850881,6.6103947 L14.6850881,9.5103947 L11.2550881,9.5103947 L11.2550881,8.1903947 L11.7750881,8.1903947 Z M14.6850881,10.8403947 L14.6850881,13.7803947 L11.2550881,13.7803947 L11.2550881,10.8403947 L14.6850881,10.8403947 Z M16.0150881,10.8403947 L19.4450881,10.8403947 L19.4450881,13.7803947 L16.0050881,13.7803947 L16.0150881,10.8403947 Z M16.0150881,9.5103947 L16.0150881,6.5803947 L19.4450881,6.5803947 L19.4450881,9.5103947 L16.0150881,9.5103947 Z M16.0150881,5.2503947 L16.0150881,2.3103947 L19.4450881,2.3103947 L19.4450881,5.2503947 L16.0150881,5.2503947 Z M14.6850881,5.2503947 L13.3550881,5.2503947 L13.3550881,2.3103947 L14.6850881,2.3103947 L14.6850881,5.2503947 Z M12.0050881,6.6103947 C12.0050881,6.74846589 11.8931593,6.8603947 11.7550881,6.8603947 L7.63508807,6.8603947 L12.0050881,3.0903947 L12.0050881,6.6103947 Z M9.92508807,8.1903947 L9.92508807,9.5103947 L6.49508807,9.5103947 L6.49508807,8.1903947 L9.92508807,8.1903947 Z M9.92508807,10.8403947 L9.92508807,13.7803947 L6.49508807,13.7803947 L6.49508807,10.8403947 L9.92508807,10.8403947 Z M9.92508807,15.1103947 L9.92508807,18.0503947 L6.49508807,18.0503947 L6.49508807,15.1103947 L9.92508807,15.1103947 Z M11.2550881,15.1103947 L14.6850881,15.1103947 L14.6850881,18.0503947 L11.2550881,18.0503947 L11.2550881,15.1103947 Z M14.6850881,19.3703947 L14.6850881,22.3103947 L11.2550881,22.3103947 L11.2550881,19.3703947 L14.6850881,19.3703947 Z M16.0150881,19.3703947 L19.4450881,19.3703947 L19.4450881,22.3103947 L16.0050881,22.3103947 L16.0150881,19.3703947 Z M16.0150881,18.0503947 L16.0150881,15.1103947 L19.4450881,15.1103947 L19.4450881,18.0503947 L16.0150881,18.0503947 Z M20.7750881,15.1103947 L24.2050881,15.1103947 L24.2050881,18.0503947 L20.7750881,18.0503947 L20.7750881,15.1103947 Z M20.7750881,13.7803947 L20.7750881,10.8403947 L24.2050881,10.8403947 L24.2050881,13.7803947 L20.7750881,13.7803947 Z M20.7750881,9.5103947 L20.7750881,6.5803947 L24.2050881,6.5803947 L24.2050881,9.5103947 L20.7750881,9.5103947 Z M6.49508807,21.6503947 L6.49508807,19.3703947 L9.92508807,19.3703947 L9.92508807,22.3103947 L7.15508807,22.3103947 C6.79058013,22.3103947 6.49508807,22.0149026 6.49508807,21.6503947 L6.49508807,21.6503947 Z M23.4950881,22.3103947 L20.7750881,22.3103947 L20.7750881,19.3703947 L24.2050881,19.3703947 L24.2050881,21.6503947 C24.199623,22.0165144 23.9012485,22.3104355 23.5350881,22.3103947 L23.4950881,22.3103947 Z" id="Shape" fill="#A5D8EE"></path>
        </g>
    </g>
</svg>