<?xml version="1.0" encoding="UTF-8"?>
<svg width="33px" height="23px" viewBox="0 0 33 23" version="1.1" xmlns="http://www.w3.org/2000/svg" xmlns:xlink="http://www.w3.org/1999/xlink">
    <title>Untitled 22</title>
    <g id="Page-1" stroke="none" stroke-width="1" fill="none" fill-rule="evenodd">
        <g id="plumon2" transform="translate(0.994912, 0.000000)" fill-rule="nonzero">
            <path d="M13.4350881,0.76 C8.17508807,-0.47 1.89508807,1.16 0.295088069,9.62 C-1.30491193,18.08 3.68508807,22.16 13.2350881,22.26 C22.7850881,22.36 32.8450881,20.47 31.1550881,12.9 C29.4650881,5.33 24.1550881,5.54 21.6050881,5.9 C19.0550881,6.26 17.7150881,1.75 13.4350881,0.76 Z" id="Path" fill="#E8F4FA"></path>
            <polygon id="Path" fill="#151C32" points="12.8550881 0.98 7.71508807 6.5 7.57508807 21.33 8.21508807 22 21.3150881 21.78 21.9250881 20.94 21.7950881 2.11 20.8450881 0.67"></polygon>
            <path d="M20.9450881,0 L12.4450881,0 L6.86508807,6.25 L6.86508807,20.67 C6.75136225,21.6369781 7.4229655,22.5206666 8.38508807,22.67 L20.9450881,22.67 C21.9072106,22.5206666 22.5788139,21.6369781 22.4650881,20.67 L22.4650881,2 C22.5842619,1.03154304 21.9100941,0.144480247 20.9450881,0 Z M21.4550881,2 L21.4550881,4.27 L18.8250881,4.27 L18.8250881,1.33 L20.9450881,1.33 C21.2695662,1.37652403 21.4966494,1.67484891 21.4550881,2 L21.4550881,2 Z M11.9350881,7.2 C12.6933442,7.08644906 13.2245338,6.39147596 13.1350881,5.63 L13.1350881,5.63 L14.1350881,5.63 L14.1350881,8.53 L11.5250881,8.53 L11.5250881,7.2 L11.9350881,7.2 Z M14.1550881,9.86 L14.1550881,12.8 L11.5250881,12.8 L11.5250881,9.86 L14.1550881,9.86 Z M15.1550881,9.86 L17.8050881,9.86 L17.8050881,12.8 L15.1750881,12.8 L15.1550881,9.86 Z M15.1550881,8.53 L15.1550881,5.59 L17.8050881,5.59 L17.8050881,8.53 L15.1550881,8.53 Z M15.1550881,4.27 L15.1550881,1.33 L17.8050881,1.33 L17.8050881,4.27 L15.1550881,4.27 Z M14.1550881,4.27 L13.1550881,4.27 L13.1550881,1.33 L14.1550881,1.33 L14.1550881,4.27 Z M12.1550881,5.63 C12.1550881,5.76 12.0650881,5.88 11.9650881,5.88 L8.75508807,5.88 L12.1250881,2.11 L12.1550881,5.63 Z M10.5050881,7.2 L10.5050881,8.53 L7.87508807,8.53 L7.87508807,7.2 L10.5050881,7.2 Z M10.5050881,9.86 L10.5050881,12.8 L7.87508807,12.8 L7.87508807,9.86 L10.5050881,9.86 Z M10.5050881,14.13 L10.5050881,17.06 L7.87508807,17.06 L7.87508807,14.13 L10.5050881,14.13 Z M11.5050881,14.13 L14.1350881,14.13 L14.1350881,17.06 L11.5250881,17.06 L11.5050881,14.13 Z M14.1350881,18.39 L14.1350881,21.33 L11.5250881,21.33 L11.5250881,18.39 L14.1350881,18.39 Z M15.1350881,18.39 L17.8050881,18.39 L17.8050881,21.33 L15.1750881,21.33 L15.1350881,18.39 Z M15.1350881,17.06 L15.1350881,14.13 L17.8050881,14.13 L17.8050881,17.06 L15.1350881,17.06 Z M18.7850881,14.13 L21.4150881,14.13 L21.4150881,17.06 L18.8250881,17.06 L18.7850881,14.13 Z M18.7850881,12.8 L18.7850881,9.86 L21.4150881,9.86 L21.4150881,12.8 L18.7850881,12.8 Z M18.7850881,8.53 L18.7850881,5.59 L21.4150881,5.59 L21.4150881,8.53 L18.7850881,8.53 Z M7.87508807,20.67 L7.87508807,18.39 L10.5050881,18.39 L10.5050881,21.33 L8.38508807,21.33 C8.06496563,21.2834543 7.83937305,20.991511 7.87508807,20.67 Z M20.9450881,21.33 L18.8250881,21.33 L18.8250881,18.39 L21.4550881,18.39 L21.4550881,20.67 C21.4908031,20.991511 21.2652105,21.2834543 20.9450881,21.33 L20.9450881,21.33 Z" id="Shape" fill="#484E5F"></path>
        </g>
    </g>
</svg>