<?xml version="1.0" encoding="UTF-8"?>
<svg width="42px" height="32px" viewBox="0 0 42 32" version="1.1" xmlns="http://www.w3.org/2000/svg" xmlns:xlink="http://www.w3.org/1999/xlink">
    <title>Untitled 25</title>
    <g id="Page-1" stroke="none" stroke-width="1" fill="none" fill-rule="evenodd">
        <g id="poleron" transform="translate(0.996185, 0.999982)" fill-rule="nonzero">
            <path d="M18.0038147,7.93001808 C12.5138147,6.65001808 6.00381473,8.34001808 4.31381473,17.1500181 C2.62381473,25.9600181 7.83381473,30.2000181 17.7738147,30.3000181 C27.7138147,30.4000181 38.1838147,28.4400181 36.4238147,20.5600181 C34.6638147,12.6800181 29.1738147,12.9000181 26.4238147,13.3100181 C23.6738147,13.7200181 22.4338147,9.00001808 18.0038147,7.93001808 Z" id="Path" fill="#E8F4FA"></path>
            <rect id="Rectangle" fill="#FFFFFF" x="20.5438147" y="6.34001808" width="1" height="22.45"></rect>
            <path d="M33.2438147,10.8800181 L30.0938147,7.08001808 C29.3461619,6.17066225 28.4335035,5.41067903 27.4038147,4.84001808 L27.4038147,2.77001808 C27.4038195,2.0336325 27.1106088,1.32755245 26.5889682,0.807788263 C26.0673276,0.288024078 25.3601955,-0.00264035537 24.6238147,0 L16.4638147,0 C14.933986,0 13.6938147,1.24018932 13.6938147,2.77001808 L13.6938147,4.77001808 C12.6083936,5.34308199 11.6493645,6.12866969 10.8738147,7.08001808 L7.71381473,10.8800181 C7.53381473,11.1100181 -0.196185268,20.3500181 0.0038147319,20.5700181 L3.25381473,24.1600181 C3.42849377,24.3589898 3.71294351,24.4199433 3.95381473,24.3100181 L12.1538147,15.2000181 L12.1538147,29.7800181 C12.1511339,29.9435258 12.2142162,30.1012631 12.3289052,30.2178323 C12.4435942,30.3344015 12.6002851,30.4000181 12.7638147,30.4000181 L28.1938147,30.4000181 C28.3573444,30.4000181 28.5140352,30.3344015 28.6287243,30.2178323 C28.7434133,30.1012631 28.8064955,29.9435258 28.8038147,29.7800181 L28.8038147,29.7800181 L28.8038147,15.2000181 L36.6638147,24.5600181 C36.9080812,24.6682069 37.1941821,24.607763 37.3738147,24.4100181 L40.6138147,20.8200181 C40.8138147,20.6000181 33.4338147,11.1100181 33.2438147,10.8800181 Z" id="Path" fill="#11B0DE"></path>
            <rect id="Rectangle" fill="#FFFFFF" x="20.5438147" y="6.36001808" width="1" height="22.52"></rect>
            <rect id="Rectangle" fill="#8FCFEB" x="15.1638147" y="0.980018076" width="10.77" height="3.43" rx="1.53"></rect>
        </g>
    </g>
</svg>