<?xml version="1.0" encoding="UTF-8"?>
<svg width="33px" height="30px" viewBox="0 0 33 30" version="1.1" xmlns="http://www.w3.org/2000/svg" xmlns:xlink="http://www.w3.org/1999/xlink">
    <title>Untitled 22</title>
    <g id="Page-1" stroke="none" stroke-width="1" fill="none" fill-rule="evenodd">
        <g id="polera_2" fill-rule="nonzero">
            <path d="M13.63,8.65 C8.68,7.5 2.77,9 1.27,17 C-0.23,25 4.45,28.77 13.44,28.87 C22.43,28.97 31.88,27.18 30.29,20.07 C28.7,12.96 23.74,13.14 21.29,13.52 C18.84,13.9 17.65,9.58 13.63,8.65 Z" id="Path" fill="#E8F4FA"></path>
            <polygon id="Path" fill="#11B0DE" points="32.77 9.99 25.35 2.58 25.35 2.56 7.54 2.56 7.44 2.56 0 9.99 4.65 14.64 7.54 11.75 7.54 29.33 25.35 29.33 25.35 11.87 28.12 14.64"></polygon>
            <polygon id="Path" fill="#A5D8EE" points="14.35 6.64 10.82 2.58 12.75 0.96 16.31 3.42"></polygon>
            <polygon id="Path" fill="#A5D8EE" points="18.27 6.64 21.8 2.58 19.87 0.96 16.31 3.42"></polygon>
            <polygon id="Path" fill="#A5D8EE" points="19.91 2.65 16.27 3.42 12.68 2.65 12.68 0 19.91 0"></polygon>
            <polygon id="Path" fill="#11B0DE" points="14.35 5.69 10.82 2.58 12.75 0 16.31 3.42"></polygon>
            <polygon id="Path" fill="#11B0DE" points="18.27 5.69 21.8 2.58 19.87 0 16.31 3.42"></polygon>
            <polygon id="Path" fill="#A5D8EE" points="19.34 8.87 23.54 8.87 23.54 12.24 21.44 13.93 19.34 12.24"></polygon>
        </g>
    </g>
</svg>