<?xml version="1.0" encoding="UTF-8"?>
<svg width="34px" height="30px" viewBox="0 0 34 30" version="1.1" xmlns="http://www.w3.org/2000/svg" xmlns:xlink="http://www.w3.org/1999/xlink">
    <title>Untitled 22</title>
    <g id="Page-1" stroke="none" stroke-width="1" fill="none" fill-rule="evenodd">
        <g id="polera" transform="translate(0.015706, 0.000000)" fill-rule="nonzero">
            <path d="M14.5242941,6.05 C8.83429406,4.72 1.98429406,6.48 0.304294063,15.64 C-1.37570594,24.8 3.98429406,29.22 14.3142941,29.33 C24.6442941,29.44 35.5442941,27.39 33.7142941,19.2 C31.8842941,11.01 26.1642941,11.2 23.3642941,11.65 C20.5642941,12.1 19.1642941,7.12 14.5242941,6.05 Z" id="Path" fill="#E8F4FA"></path>
            <polygon id="Path" fill="#E5D4C4" points="33.6142941 9.99 26.1942941 2.58 26.1942941 2.56 8.38429406 2.56 8.28429406 2.56 0.854294063 9.99 5.49429406 14.64 8.38429406 11.75 8.38429406 29.33 26.1942941 29.33 26.1942941 11.87 28.9642941 14.64"></polygon>
            <polygon id="Path" fill="#F0E7DE" points="15.2042941 6.64 11.6742941 2.58 13.6042941 0.96 17.1642941 3.42"></polygon>
            <polygon id="Path" fill="#F0E7DE" points="19.1242941 6.64 22.6542941 2.58 20.7242941 0.96 17.1642941 3.42"></polygon>
            <polygon id="Path" fill="#E5D4C4" points="20.7642941 2.65 17.1142941 3.42 13.5242941 2.65 13.5242941 0 20.7642941 0"></polygon>
            <polygon id="Path" fill="#F0E7DE" points="15.2042941 5.69 11.6742941 2.58 13.6042941 0 17.1642941 3.42"></polygon>
            <polygon id="Path" fill="#F0E7DE" points="19.1242941 5.69 22.6542941 2.58 20.7242941 0 17.1642941 3.42"></polygon>
            <polygon id="Path" fill="#FFFFFF" points="20.1842941 8.87 24.3942941 8.87 24.3942941 12.24 22.2942941 13.93 20.1842941 12.24"></polygon>
        </g>
    </g>
</svg>