<?xml version="1.0" encoding="UTF-8"?>
<svg width="87px" height="79px" viewBox="0 0 87 79" version="1.1" xmlns="http://www.w3.org/2000/svg" xmlns:xlink="http://www.w3.org/1999/xlink">
    <title>Untitled 41</title>
    <g id="Page-1" stroke="none" stroke-width="1" fill="none" fill-rule="evenodd">
        <g id="product5_hover" fill="#7FBC5B" fill-rule="nonzero">
            <path d="M86.63,67 L70.18,11 L56,7.48 C55.0314491,7.24022691 54.2208206,6.5799865 53.79,5.68 L52,1.9 C51.4511865,0.740148265 50.2831415,0 49,0 L37.67,0 C36.3868585,0 35.2188135,0.740148265 34.67,1.9 L32.86,5.68 C32.4291794,6.5799865 31.6185509,7.24022691 30.65,7.48 L16.46,11 L0,67 L12.83,67 L24.68,34.9 L21,76.39 C21,76.39 28.26,78.17 43.35,78.17 C58.16,78.17 65.69,76.39 65.69,76.39 L62,34.93 L73.64,67 L86.63,67 Z" id="Path"></path>
        </g>
    </g>
</svg>