<?xml version="1.0" encoding="UTF-8"?>
<svg width="60px" height="80px" viewBox="0 0 60 80" version="1.1" xmlns="http://www.w3.org/2000/svg" xmlns:xlink="http://www.w3.org/1999/xlink">
    <title>Untitled 38</title>
    <g id="Page-1" stroke="none" stroke-width="1" fill="none" fill-rule="evenodd">
        <g id="product4_hover" transform="translate(0.000000, 0.000000)" fill="#7FBC5B" fill-rule="nonzero">
            <polygon id="Path" points="15.48 0.76 16.5 17.3 20.29 7.72 17.32 0"></polygon>
            <polygon id="Path" points="42.27 0 38.83 7.72 41.77 17.3 43.94 0.67"></polygon>
            <path d="M59.21,77.47 C55.98,77.77 42.11,82.56 40.02,78.05 C38.63,75.05 28.86,82.76 24.74,78.84 C20.62,74.92 16.83,78.39 10.45,79.62 C6.66524304,80.3321431 2.77009607,79.1654627 0,76.49 C1.68,70.05 13.15,51.6 16.67,41.26 C17.41,39.1 18.08,37.15 18.67,35.53 C19.59,32.87 20.2,31.08 20.33,30.69 C20.9,28.92 13.17,16.94 16.54,7.69 C16.86,6.8 20.33,7.69 20.33,7.69 C20.33,7.69 26.8,13.48 29.88,13.38 C33.88,13.26 38.88,7.69 38.88,7.69 C38.88,7.69 41.33,7.14 41.82,7.69 C45.58,11.97 38.95,30.29 38.95,30.29 L42.69,38.59 L45.16,44.07 L59.21,77.47 Z" id="Path"></path>
        </g>
    </g>
</svg>