<?xml version="1.0" encoding="UTF-8"?>
<svg width="83px" height="79px" viewBox="0 0 83 79" version="1.1" xmlns="http://www.w3.org/2000/svg" xmlns:xlink="http://www.w3.org/1999/xlink">
    <title>Untitled 45</title>
    <g id="Page-1" stroke="none" stroke-width="1" fill="none" fill-rule="evenodd">
        <g id="product6" transform="translate(0.056632, 0.984065)" fill="#000000" fill-rule="nonzero">
            <path d="M82.7133684,61.2359353 C81.4833684,47.4359353 75.3633684,24.6959353 75.0933684,23.6759353 C71.7833684,13.2759353 58.4633684,10.0759353 53.8333684,9.25593529 C54.0389649,8.11848444 54.0389649,6.95338613 53.8333684,5.81593529 L53.7733684,5.61593529 C53.2331104,4.17304838 52.2801961,2.92104413 51.0333684,2.01593529 C50.7533684,1.73593529 48.1533684,-0.194064713 41.3633684,0.0159352866 C34.5633684,-0.184064713 31.9433684,1.73593529 31.7333684,1.91593529 C30.4587069,2.84700863 29.4879741,4.13436036 28.9433684,5.61593529 C28.9490769,5.68247975 28.9490769,5.74939082 28.9433684,5.81593529 C28.7329052,6.95294467 28.7329052,8.11892591 28.9433684,9.25593529 C24.3033684,10.0759353 10.9433684,13.2559353 7.66336841,23.7359353 C7.41336841,24.7359353 1.29336841,47.4359353 0.053368412,61.2459353 C0.053368412,61.4359353 -0.306631588,66.0259353 0.843368412,69.2459353 C1.00085623,69.6952419 1.37882543,70.0316345 1.84336841,70.1359353 L8.94336841,71.9359353 C9.40461186,72.0580722 9.89622375,71.9332784 10.2433684,71.6059353 C11.875475,69.1995983 13.0547897,66.5156406 13.7233684,63.6859353 L17.9433684,48.3959353 C17.7233684,57.5959353 17.7133684,67.7659353 18.5433684,70.8459353 C18.7133684,71.6559353 19.5433684,75.8459353 21.2033684,77.5059353 C21.4657062,77.7773454 21.8259153,77.9322353 22.2033684,77.9359353 L60.5433684,77.9359353 C60.9205867,77.9311266 61.2803874,77.7764123 61.5433684,77.5059353 C63.1633684,75.8059353 64.0333684,71.6559353 64.1733684,70.9459353 C65.0233684,67.8159353 65.0133684,57.5959353 64.8133684,48.3659353 L68.5833684,61.8759353 C69.5210759,65.2409231 70.8080737,68.4986362 72.4233684,71.5959353 C72.7695462,71.9250342 73.2621373,72.0500766 73.7233684,71.9259353 L80.9433684,70.0859353 C81.4055796,69.9835477 81.7830455,69.6513778 81.9433684,69.2059353 C82.6721535,66.6162357 82.9329083,63.9172547 82.7133684,61.2359353 Z" id="Path"></path>
        </g>
    </g>
</svg>