<?xml version="1.0" encoding="UTF-8"?>
<svg width="74px" height="40px" viewBox="0 0 74 40" version="1.1" xmlns="http://www.w3.org/2000/svg" xmlns:xlink="http://www.w3.org/1999/xlink">
    <title>Untitled 54</title>
    <g id="Page-1" stroke="none" stroke-width="1" fill="none" fill-rule="evenodd">
        <g id="product10_active" transform="translate(0.999972, 0.998462)" fill="#00B2E3" fill-rule="nonzero">
            <path d="M63.3600278,0.221537824 C5.15002779,-3.21846218 1.31002779,34.5415378 2.77900095e-05,34.5415378 L66.8800278,34.7715378 C68.0000278,26.7015378 72.5700278,23.6815378 72.5700278,23.6815378 L63.3600278,0.221537824 Z M25.0000278,22.4215378 C25.0000278,22.4215378 31.7700278,7.58153782 56.5600278,10.2215378 C58.3778666,14.2433757 59.9801375,18.359209 61.3600278,22.5515378 L25.0000278,22.4215378 Z" id="Shape"></path>
            <rect id="Rectangle" transform="translate(33.551934, 36.534273) rotate(-89.800000) translate(-33.551934, -36.534273) " x="31.506934" y="2.9892732" width="4.09" height="67.09"></rect>
            <rect id="Rectangle" transform="translate(38.168101, 21.396453) rotate(-89.800000) translate(-38.168101, -21.396453) " x="36.9081007" y="14.9014528" width="2.52" height="12.99"></rect>
            <path d="M63.3600278,0.221537824 C5.15002779,-3.21846218 1.31002779,34.5415378 2.77900095e-05,34.5415378 L66.8800278,34.7715378 C68.0000278,26.7015378 72.5700278,23.6815378 72.5700278,23.6815378 L63.3600278,0.221537824 Z M25.0000278,22.4215378 C25.0000278,22.4215378 31.7700278,7.58153782 56.5600278,10.2215378 C58.3778666,14.2433757 59.9801375,18.359209 61.3600278,22.5515378 L25.0000278,22.4215378 Z" id="Shape"></path>
            <path d="M1.84002779,29.7915378 C0.72002779,32.6615378 0.31002779,34.5415378 2.77900095e-05,34.5415378 L66.8800278,34.7715378 C67.1033002,33.0582653 67.5365561,31.3789789 68.1700278,29.7715378 L1.84002779,29.7915378 Z" id="Path"></path>
        </g>
    </g>
</svg>