<?xml version="1.0" encoding="UTF-8"?>
<svg width="62px" height="77px" viewBox="0 0 62 77" version="1.1" xmlns="http://www.w3.org/2000/svg" xmlns:xlink="http://www.w3.org/1999/xlink">
    <title>Untitled 30</title>
    <g id="Page-1" stroke="none" stroke-width="1" fill="none" fill-rule="evenodd">
        <g id="product1" transform="translate(0.987059, 0.000000)" fill-rule="nonzero">
            <path d="M60.0129406,20.65 C59.3862324,19.9982677 58.5170007,19.6360878 57.6129406,19.65 L46.4429406,19.65 L46.4429406,17 C46.4429406,7.4 39.4429406,0 30.4429406,0 C21.4429406,0 14.4429406,7.37 14.4429406,16.81 L14.4429406,19.69 L3.21294062,19.69 C2.29444191,19.7235944 1.42867273,20.12762 0.812940616,20.81 C0.223186834,21.4673907 -0.0666189128,22.3404306 0.0129406158,23.22 L4.01294062,65.22 C4.17294062,70.82 9.01294062,76.910378 15.5429406,76.910378 L45.4829406,76.910378 C51.555302,76.9592196 56.578826,72.196371 56.8529406,66.13 L60.8529406,23.06 C60.8965122,22.1780674 60.595266,21.3137776 60.0129406,20.65 Z M20.8229406,16.81 C20.8229406,10.89 24.9929406,6.24 30.4329406,6.24 C35.8729406,6.24 40.0129406,10.89 40.0129406,16.81 L40.0129406,19.69 L20.8229406,19.69 L20.8229406,16.81 Z" id="Shape" fill="#000000"></path>
            <path d="M16.2529406,38.43 L15.0629406,38.43 C14.9122196,38.4353863 14.7928444,38.5591828 14.7929406,38.71 L14.7929406,47 C14.7977252,47.1488026 14.9144103,47.2698094 15.0629406,47.28 L16.2529406,47.28 C16.4036616,47.2746137 16.5230368,47.1508172 16.5229407,47 L16.5229407,38.71 C16.5230368,38.5591828 16.4036616,38.4353863 16.2529406,38.43 L16.2529406,38.43 Z" id="Path" fill="#FFFFFF"></path>
            <path d="M19.1229406,38.43 C18.7695055,38.3932019 18.4259946,38.5610208 18.2377885,38.8624322 C18.0495823,39.1638437 18.0495823,39.5461563 18.2377885,39.8475678 C18.4259946,40.1489792 18.7695055,40.3167981 19.1229406,40.28 C19.4763757,40.3167981 19.8198866,40.1489792 20.0080928,39.8475678 C20.196299,39.5461563 20.196299,39.1638437 20.0080928,38.8624322 C19.8198866,38.5610208 19.4763757,38.3932019 19.1229406,38.43 Z" id="Path" fill="#FFFFFF"></path>
            <path d="M19.7329406,41.42 L18.5529406,41.42 C18.4795654,41.4199497 18.4093298,41.4497646 18.3583974,41.5025833 C18.307465,41.5554021 18.280223,41.6266751 18.2829406,41.7 L18.2829406,47 C18.2828444,47.1508172 18.4022196,47.2746137 18.5529406,47.28 L19.7329406,47.28 C19.8875803,47.28 20.0129406,47.1546397 20.0129406,47 L20.0129406,41.7 C20.0157774,41.6249056 19.9871895,41.5520263 19.9340519,41.4988887 C19.8809143,41.4457511 19.808035,41.4171632 19.7329406,41.42 Z" id="Path" fill="#FFFFFF"></path>
            <path d="M44.4129406,47.42 C46.0923227,47.34357 47.4001922,45.9346265 47.3516269,44.2542077 C47.3030616,42.573789 45.9160041,41.2427307 44.235011,41.263418 C42.554018,41.2841052 41.2001371,42.648895 41.1929406,44.33 C41.2366167,46.069037 42.6735804,47.4479866 44.4129406,47.42 L44.4129406,47.42 Z M44.4129406,42.85 C45.0205151,42.8541044 45.5656028,43.2243232 45.7933966,43.7875936 C46.0211905,44.350864 45.8866916,44.9959163 45.452773,45.4212141 C45.0188543,45.8465119 44.3712331,45.9680408 43.8126468,45.7289908 C43.2540604,45.4899409 42.8948533,44.9375345 42.9029406,44.33 C42.9139163,43.5054835 43.5883699,42.8444297 44.4129406,42.85 Z" id="Shape" fill="#FFFFFF"></path>
            <path d="M46.8129406,50.33 C43.027806,49.5402669 39.1695006,49.1547715 35.3029406,49.18 L35.3029406,44.34 C35.3673274,43.5455327 36.0308685,42.9335921 36.8279406,42.9335921 C37.6250127,42.9335921 38.2885538,43.5455327 38.3529406,44.34 C38.3434964,44.9269133 37.9739031,45.4475233 37.4229406,45.65 C37.2356152,45.7257747 37.0349864,45.7631801 36.8329406,45.76 C36.5239184,45.7255043 36.2224253,45.8709512 36.0570849,46.1342898 C35.8917445,46.3976285 35.8917445,46.7323715 36.0570849,46.9957102 C36.2224253,47.2590488 36.5239184,47.4044957 36.8329406,47.37 C37.2643635,47.3706648 37.6919712,47.2892157 38.0929406,47.13 C39.2783936,46.7109957 40.0767989,45.5972203 40.0929406,44.34 C39.9972966,42.6177423 38.572852,41.2702082 36.8479406,41.2702082 C35.1230292,41.2702082 33.6985847,42.6177423 33.6029406,44.34 L33.6029406,49.19 C29.9066569,49.1874103 26.2201372,49.5694678 22.6029406,50.33 C22.3800376,50.3667738 22.1835433,50.4972184 22.0631216,50.688364 C21.9426999,50.8795096 21.9098739,51.1130653 21.9729406,51.33 C22.1337013,51.7787976 22.6135742,52.027459 23.0729406,51.9 C26.9025768,51.1181184 30.8045498,50.746023 34.7129406,50.79 C38.6173696,50.7379476 42.5161796,51.1033563 46.3429406,51.88 L46.5829406,51.88 C46.9668801,51.8894887 47.3136005,51.6516223 47.4429406,51.29 C47.4900868,51.0788535 47.4497054,50.8576142 47.3310057,50.6767385 C47.212306,50.4958629 47.0254097,50.370774 46.8129406,50.33 L46.8129406,50.33 Z" id="Path" fill="#FFFFFF"></path>
            <path d="M23.1529406,47.28 C23.2219145,47.2773982 23.2870232,47.2474772 23.3339179,47.1968309 C23.3808127,47.1461846 23.4056444,47.07897 23.4029406,47.01 L23.4029406,44.35 L23.4029406,44.35 L23.4029406,44.35 C23.4029406,43.5602328 24.0431734,42.92 24.8329406,42.92 C25.6227078,42.92 26.2629406,43.5602328 26.2629406,44.35 L26.2629406,47 C26.2602176,47.0680192 26.2853498,47.1342075 26.3325323,47.1832773 C26.3797147,47.232347 26.444867,47.2600545 26.5129406,47.26 L27.6229406,47.26 C27.7665347,47.26 27.8829406,47.143594 27.8829406,47 L27.8829406,44.33 C27.8378658,43.7923977 28.0991834,43.2751856 28.5586924,42.9925207 C29.0182014,42.7098557 29.5976798,42.7098557 30.0571888,42.9925207 C30.5166978,43.2751856 30.7780155,43.7923977 30.7329406,44.33 L30.7329406,44.33 L30.7329406,47 C30.7328409,47.1452974 30.8477429,47.2646186 30.9929406,47.27 L32.0929406,47.27 C32.2381383,47.2646186 32.3529407,47.1452974 32.3529407,47 L32.3529407,44.35 L32.3529407,44.35 L32.3529407,44.35 C32.342705,42.6874952 31.0149168,41.3331513 29.3529406,41.2899974 C28.4978834,41.28888 27.6829785,41.6526768 27.1129406,42.2899974 C26.5429027,41.6526768 25.7279978,41.28888 24.8729396,41.2899974 C23.2338197,41.3320493 21.9149899,42.650879 21.8729396,44.2899974 L21.8729396,44.2899974 L21.8729396,47 C21.8725515,47.1416432 21.981686,47.2595084 22.1229406,47.27 L23.1529406,47.28 Z" id="Path" fill="#FFFFFF"></path>
        </g>
    </g>
</svg>