<?xml version="1.0" encoding="UTF-8"?>
<svg width="44px" height="32px" viewBox="0 0 44 32" version="1.1" xmlns="http://www.w3.org/2000/svg" xmlns:xlink="http://www.w3.org/1999/xlink">
    <title>Untitled 26</title>
    <g id="Page-1" stroke="none" stroke-width="1" fill="none" fill-rule="evenodd">
        <g id="product_basket" transform="translate(0.994534, 0.094469)" fill-rule="nonzero">
            <path d="M18.425466,1.62553131 C11.215466,-0.0944686857 2.59546598,2.17553131 0.405465982,13.7755313 C-1.78453402,25.3755313 5.00546598,30.9655313 18.145466,31.1055313 C31.285466,31.2455313 45.005466,28.6455313 42.715466,18.2755313 C40.425466,7.90553131 33.155466,8.17553131 29.615466,8.72553131 C26.075466,9.27553131 24.285466,2.98553131 18.425466,1.62553131 Z" id="Path" fill="#E8F4FA"></path>
            <path d="M30.915466,7.06553131 C30.6968794,6.84354766 30.3969679,6.72069236 30.085466,6.72553131 L26.195466,6.72553131 L26.195466,5.78553131 C26.2819992,3.74832174 25.2444616,1.82771377 23.4931984,0.7833059 C21.7419351,-0.261101967 19.5589969,-0.261101967 17.8077336,0.7833059 C16.0564703,1.82771377 15.0189328,3.74832174 15.105466,5.78553131 L15.105466,6.78553131 L11.215466,6.78553131 C10.8978068,6.79942445 10.5989189,6.93986575 10.385466,7.17553131 C10.1785859,7.40394663 10.0770111,7.70867099 10.105466,8.01553131 L11.495466,22.5455313 C11.5805267,24.7269407 13.3152815,26.4833799 15.495466,26.595692 L25.865466,26.595692 C27.9607266,26.6143467 29.6983717,24.9781378 29.805466,22.8855313 L31.195466,7.90553131 C31.2157774,7.59966263 31.1152363,7.29803944 30.915466,7.06553131 Z M17.325466,5.73553131 C17.2682439,4.8059095 17.5882235,3.89247639 18.2130503,3.20177926 C18.8378771,2.51108213 19.7147779,2.1014578 20.645466,2.06553131 C21.5832068,2.09089323 22.4704586,2.49593078 23.1039179,3.1878342 C23.7373772,3.87973763 24.0627446,4.79919796 24.005466,5.73553131 L24.005466,6.73553131 L17.325466,6.73553131 L17.325466,5.73553131 Z" id="Shape" fill="#11B0DE"></path>
        </g>
    </g>
</svg>