<?xml version="1.0" encoding="UTF-8"?>
<svg width="85px" height="58px" viewBox="0 0 85 58" version="1.1" xmlns="http://www.w3.org/2000/svg" xmlns:xlink="http://www.w3.org/1999/xlink">
    <title>Untitled 50</title>
    <g id="Page-1" stroke="none" stroke-width="1" fill="none" fill-rule="evenodd">
        <g id="product8_hover" transform="translate(0.992360, 0.000000)" fill="#7FBC5B" fill-rule="nonzero">
            <path d="M75.5476398,17.78 L7.6776398,17.78 C3.6076398,17.78 0.167639798,21.39 0.00763979761,26 C0.00763979761,26.26 0.00763979761,47.24 0.00763979761,47.22 C-0.0473407939,47.9630503 0.1961,48.6973713 0.684076728,49.2604213 C1.17205346,49.8234714 1.86431862,50.1688112 2.6076398,50.22 L11.2776398,50.22 L11.2776398,55 C11.2060078,56.490234 12.2805299,57.7900592 13.7576398,58 C14.5249847,57.9856823 15.2525454,57.6559006 15.7690898,57.0882695 C16.2856341,56.5206383 16.5455406,55.7652912 16.4876398,55 L16.4876398,50.19 L66.7376398,50.19 L66.7376398,55 C66.66543,56.4869059 67.7345297,57.7854076 69.2076398,58 C69.9759696,57.9885962 70.7053113,57.6596831 71.2224856,57.0913597 C71.7396599,56.5230363 71.9985342,55.7659978 71.9376398,55 L71.9376398,50.19 L80.6076398,50.19 C81.350961,50.1388112 82.0432261,49.7934714 82.5312029,49.2304213 C83.0191796,48.6673713 83.2626204,47.9330503 83.2076398,47.19 L83.2076398,26.34 C83.2076398,21.54 79.6976398,17.78 75.5476398,17.78 Z" id="Path"></path>
            <path d="M72.0876398,0 L49.0076398,0 C47.9965875,0.0464543393 47.046118,0.495378416 46.368009,1.24674573 C45.6899,1.99811305 45.3404927,2.98949573 45.3976398,4 L45.3976398,13.63 L75.6976398,13.63 L75.6976398,4 C75.7547869,2.98949573 75.4053796,1.99811305 74.7272706,1.24674573 C74.0491616,0.495378416 73.0986921,0.0464543393 72.0876398,0 Z" id="Path"></path>
            <path d="M36.3976398,0 L13.3076398,0 C12.2965875,0.0464543393 11.346118,0.495378416 10.668009,1.24674573 C9.98990003,1.99811305 9.64049269,2.98949573 9.6976398,4 L9.6976398,13.63 L40.0076398,13.63 L40.0076398,4 C40.0647869,2.98949573 39.7153796,1.99811305 39.0372706,1.24674573 C38.3591616,0.495378416 37.4086921,0.0464543393 36.3976398,0 Z" id="Path"></path>
        </g>
    </g>
</svg>