<?xml version="1.0" encoding="UTF-8"?>
<svg width="78px" height="80px" viewBox="0 0 78 80" version="1.1" xmlns="http://www.w3.org/2000/svg" xmlns:xlink="http://www.w3.org/1999/xlink">
    <title>Untitled 33</title>
    <g id="Page-1" stroke="none" stroke-width="1" fill="none" fill-rule="evenodd">
        <g id="product2" transform="translate(0.999586, 0.981822)" fill="#000000" fill-rule="nonzero">
            <path d="M32.4104136,3.90817782 L32.4104136,1.90817782 C32.3965303,1.01641129 31.7418034,0.264531445 30.8604136,0.128177822 C30.3804136,0.0181778221 19.0804136,-1.50182218 9.76041362,9.66817782 C1.09041362,20.0781778 0.420413618,20.9181778 0.400413618,20.9481778 C-0.158898761,21.6453171 -0.129234858,22.6454145 0.470413618,23.3081778 L10.1004136,33.9581778 C10.6295464,34.5463495 11.4767344,34.7278898 12.2004136,34.4081778 L13.5804136,33.7881778 L13.5804136,77.1181778 C13.5777519,77.6026021 13.7683257,78.0680994 14.1099308,78.4115815 C14.4515359,78.7550636 14.915982,78.9481778 15.4004136,78.9481778 L61.2404136,78.9481778 C62.2455719,78.9481778 63.0604136,78.1333361 63.0604136,77.1281778 L63.0604136,77.1281778 L63.0604136,33.7881778 L64.4404136,34.4081778 C65.1640929,34.7278898 66.0112809,34.5463495 66.5404136,33.9581778 L76.1704136,23.3081778 C76.7700621,22.6454145 76.799726,21.6453171 76.2404136,20.9481778 C76.2404136,20.9481778 75.5504136,20.0781778 66.8804136,9.66817782 C57.5604136,-1.50182218 46.2604136,0.0181778221 45.7904136,0.128177822 C44.8956805,0.262383811 44.2353756,1.03344952 44.2404136,1.93817782 L44.2404136,3.93817782 C44.307647,5.14679425 44.2270506,6.35909847 44.0004136,7.54817782 C43.5204136,9.34817782 42.1104136,11.2081778 38.3204136,11.2081778 C35.9833426,11.1867999 33.898836,9.733601 33.0704136,7.54817782 C32.637132,6.38335474 32.4136778,5.1509711 32.4104136,3.90817782 Z" id="Path"></path>
        </g>
    </g>
</svg>