<?xml version="1.0" encoding="UTF-8"?>
<svg width="33px" height="27px" viewBox="0 0 33 27" version="1.1" xmlns="http://www.w3.org/2000/svg" xmlns:xlink="http://www.w3.org/1999/xlink">
    <title>Untitled 57</title>
    <g id="Page-1" stroke="none" stroke-width="1" fill="none" fill-rule="evenodd">
        <g id="ruana" transform="translate(0.994912, 0.999604)" fill-rule="nonzero">
            <path d="M13.4350881,1.10039579 C8.17508807,-0.119604209 1.89508807,1.50039579 0.295088069,10.0003958 C-1.30491193,18.5003958 3.68508807,22.5003958 13.2350881,22.6003958 C22.7850881,22.7003958 32.8450881,20.8103958 31.1550881,13.2403958 C29.4650881,5.67039579 24.1550881,5.88039579 21.6050881,6.24039579 C19.0550881,6.60039579 17.7150881,2.10039579 13.4350881,1.10039579 Z" id="Path" fill="#E8F4FA"></path>
            <path d="M15.5350881,25.0003958 C15.3307427,25.0003958 15.1650881,24.8347411 15.1650881,24.6303958 L15.1650881,22.6303958 C15.1622988,22.531437 15.2003845,22.4356967 15.2703867,22.3656944 C15.340389,22.2956922 15.4361292,22.2576065 15.5350881,22.2603958 C15.7394334,22.2603958 15.9050881,22.4260504 15.9050881,22.6303958 L15.9050881,24.6303958 C15.8998353,24.8325254 15.7372177,24.995143 15.5350881,25.0003958 L15.5350881,25.0003958 Z" id="Path" fill="#ECE0D4"></path>
            <path d="M13.9350881,23.9203958 C13.7307427,23.9203958 13.5650881,23.7547411 13.5650881,23.5503958 L13.5650881,21.5503958 C13.5622988,21.451437 13.6003845,21.3556967 13.6703867,21.2856944 C13.740389,21.2156922 13.8361292,21.1776065 13.9350881,21.1803958 C14.0332182,21.1803958 14.1273291,21.2193778 14.1967176,21.2887663 C14.266106,21.3581547 14.3050881,21.4522657 14.3050881,21.5503958 L14.3050881,23.5503958 C14.2998353,23.7525254 14.1372177,23.915143 13.9350881,23.9203958 L13.9350881,23.9203958 Z" id="Path" fill="#ECE0D4"></path>
            <path d="M12.3350881,22.8703958 C12.1465044,22.8498915 12.0039766,22.6900876 12.0050881,22.5003958 L12.0050881,20.5003958 C12.0022988,20.401437 12.0403845,20.3056967 12.1103867,20.2356944 C12.180389,20.1656922 12.2761292,20.1276065 12.3750881,20.1303958 C12.5794334,20.1303958 12.7450881,20.2960504 12.7450881,20.5003958 L12.7450881,22.5003958 C12.7426669,22.6048504 12.6973438,22.7036997 12.6197766,22.7736993 C12.5422094,22.843699 12.4392424,22.8786725 12.3350881,22.8703958 L12.3350881,22.8703958 Z" id="Path" fill="#ECE0D4"></path>
            <path d="M10.7350881,21.7703958 C10.636958,21.7703958 10.542847,21.7314138 10.4734586,21.6620253 C10.4040701,21.5926368 10.3650881,21.4985259 10.3650881,21.4003958 L10.3650881,19.4003958 C10.3622988,19.301437 10.4003845,19.2056967 10.4703867,19.1356944 C10.540389,19.0656922 10.6361292,19.0276065 10.7350881,19.0303958 C10.9394334,19.0303958 11.1050881,19.1960504 11.1050881,19.4003958 L11.1050881,21.4003958 C11.0998353,21.6025254 10.9372177,21.765143 10.7350881,21.7703958 L10.7350881,21.7703958 Z" id="Path" fill="#ECE0D4"></path>
            <path d="M9.13508807,20.6703958 C9.03695797,20.6703958 8.94284702,20.6314138 8.87345856,20.5620253 C8.8040701,20.4926368 8.76508807,20.3985259 8.76508807,20.3003958 L8.76508807,18.3003958 C8.76229882,18.201437 8.80038446,18.1056967 8.87038671,18.0356944 C8.94038897,17.9656922 9.03612923,17.9276065 9.13508807,17.9303958 C9.33943343,17.9303958 9.50508807,18.0960504 9.50508807,18.3003958 L9.50508807,20.3003958 C9.49983531,20.5025254 9.33721769,20.665143 9.13508807,20.6703958 L9.13508807,20.6703958 Z" id="Path" fill="#ECE0D4"></path>
            <path d="M7.53508807,19.6203958 C7.43695797,19.6203958 7.34284702,19.5814138 7.27345856,19.5120253 C7.2040701,19.4426368 7.16508807,19.3485259 7.16508807,19.2503958 L7.16508807,17.2503958 C7.16229882,17.151437 7.20038446,17.0556967 7.27038671,16.9856944 C7.34038897,16.9156922 7.43612923,16.8776065 7.53508807,16.8803958 C7.73943343,16.8803958 7.90508807,17.0460504 7.90508807,17.2503958 L7.90508807,19.2503958 C7.89983531,19.4525254 7.73721769,19.615143 7.53508807,19.6203958 L7.53508807,19.6203958 Z" id="Path" fill="#ECE0D4"></path>
            <path d="M5.93508807,18.5203958 C5.73074271,18.5203958 5.56508807,18.3547411 5.56508807,18.1503958 L5.56508807,16.1503958 C5.56229882,16.051437 5.60038446,15.9556967 5.67038671,15.8856944 C5.74038897,15.8156922 5.83612923,15.7776065 5.93508807,15.7803958 C6.13943343,15.7803958 6.30508807,15.9460504 6.30508807,16.1503958 L6.30508807,18.1503958 C6.29983531,18.3525254 6.13721769,18.515143 5.93508807,18.5203958 L5.93508807,18.5203958 Z" id="Path" fill="#ECE0D4"></path>
            <path d="M4.33508807,17.4203958 C4.14650439,17.3998915 4.00397665,17.2400876 4.00508807,17.0503958 L4.00508807,15.0503958 C4.00229882,14.951437 4.04038446,14.8556967 4.11038671,14.7856944 C4.18038897,14.7156922 4.27612923,14.6776065 4.37508807,14.6803958 C4.57943343,14.6803958 4.74508807,14.8460504 4.74508807,15.0503958 L4.74508807,17.0503958 C4.74266686,17.1548504 4.69734381,17.2536997 4.61977663,17.3236993 C4.54220945,17.393699 4.43924236,17.4286725 4.33508807,17.4203958 L4.33508807,17.4203958 Z" id="Path" fill="#ECE0D4"></path>
            <path d="M17.1350881,23.9203958 C16.9307427,23.9203958 16.7650881,23.7547411 16.7650881,23.5503958 L16.7650881,21.5503958 C16.7622988,21.451437 16.8003845,21.3556967 16.8703867,21.2856944 C16.940389,21.2156922 17.0361292,21.1776065 17.1350881,21.1803958 C17.2332182,21.1803958 17.3273291,21.2193778 17.3967176,21.2887663 C17.466106,21.3581547 17.5050881,21.4522657 17.5050881,21.5503958 L17.5050881,23.5503958 C17.4998353,23.7525254 17.3372177,23.915143 17.1350881,23.9203958 L17.1350881,23.9203958 Z" id="Path" fill="#ECE0D4"></path>
            <path d="M18.7350881,22.8703958 C18.5307427,22.8703958 18.3650881,22.7047411 18.3650881,22.5003958 L18.3650881,20.5003958 C18.3622988,20.401437 18.4003845,20.3056967 18.4703867,20.2356944 C18.540389,20.1656922 18.6361292,20.1276065 18.7350881,20.1303958 C18.9394334,20.1303958 19.1050881,20.2960504 19.1050881,20.5003958 L19.1050881,22.5003958 C19.0998353,22.7025254 18.9372177,22.865143 18.7350881,22.8703958 Z" id="Path" fill="#ECE0D4"></path>
            <path d="M20.3350881,21.7703958 C20.1465044,21.7498915 20.0039766,21.5900876 20.0050881,21.4003958 L20.0050881,19.4003958 C20.0022988,19.301437 20.0403845,19.2056967 20.1103867,19.1356944 C20.180389,19.0656922 20.2761292,19.0276065 20.3750881,19.0303958 C20.4732182,19.0303958 20.5673291,19.0693778 20.6367176,19.1387663 C20.706106,19.2081547 20.7450881,19.3022657 20.7450881,19.4003958 L20.7450881,21.4003958 C20.7426669,21.5048504 20.6973438,21.6036997 20.6197766,21.6736993 C20.5422094,21.743699 20.4392424,21.7786725 20.3350881,21.7703958 L20.3350881,21.7703958 Z" id="Path" fill="#ECE0D4"></path>
            <path d="M21.9350881,20.6703958 C21.836958,20.6703958 21.742847,20.6314138 21.6734586,20.5620253 C21.6040701,20.4926368 21.5650881,20.3985259 21.5650881,20.3003958 L21.5650881,18.3003958 C21.5622988,18.201437 21.6003845,18.1056967 21.6703867,18.0356944 C21.740389,17.9656922 21.8361292,17.9276065 21.9350881,17.9303958 C22.0332182,17.9303958 22.1273291,17.9693778 22.1967176,18.0387663 C22.266106,18.1081547 22.3050881,18.2022657 22.3050881,18.3003958 L22.3050881,20.3003958 C22.2998353,20.5025254 22.1372177,20.665143 21.9350881,20.6703958 L21.9350881,20.6703958 Z" id="Path" fill="#ECE0D4"></path>
            <path d="M23.5350881,19.6203958 C23.436958,19.6203958 23.342847,19.5814138 23.2734586,19.5120253 C23.2040701,19.4426368 23.1650881,19.3485259 23.1650881,19.2503958 L23.1650881,17.2503958 C23.1622988,17.151437 23.2003845,17.0556967 23.2703867,16.9856944 C23.340389,16.9156922 23.4361292,16.8776065 23.5350881,16.8803958 C23.7394334,16.8803958 23.9050881,17.0460504 23.9050881,17.2503958 L23.9050881,19.2503958 C23.8998353,19.4525254 23.7372177,19.615143 23.5350881,19.6203958 Z" id="Path" fill="#ECE0D4"></path>
            <path d="M25.1350881,18.5203958 C25.036958,18.5203958 24.942847,18.4814138 24.8734586,18.4120253 C24.8040701,18.3426368 24.7650881,18.2485259 24.7650881,18.1503958 L24.7650881,16.1503958 C24.7622988,16.051437 24.8003845,15.9556967 24.8703867,15.8856944 C24.940389,15.8156922 25.0361292,15.7776065 25.1350881,15.7803958 C25.3394334,15.7803958 25.5050881,15.9460504 25.5050881,16.1503958 L25.5050881,18.1503958 C25.4998353,18.3525254 25.3372177,18.515143 25.1350881,18.5203958 L25.1350881,18.5203958 Z" id="Path" fill="#ECE0D4"></path>
            <path d="M26.7350881,17.4203958 C26.5307427,17.4203958 26.3650881,17.2547411 26.3650881,17.0503958 L26.3650881,15.0503958 C26.3622988,14.951437 26.4003845,14.8556967 26.4703867,14.7856944 C26.540389,14.7156922 26.6361292,14.6776065 26.7350881,14.6803958 C26.9394334,14.6803958 27.1050881,14.8460504 27.1050881,15.0503958 L27.1050881,17.0503958 C27.0998353,17.2525254 26.9372177,17.415143 26.7350881,17.4203958 L26.7350881,17.4203958 Z" id="Path" fill="#ECE0D4"></path>
            <path d="M27.5050881,15.5203958 L24.1050881,17.8203958 L15.8050881,23.4103958 C15.6408927,23.528863 15.4192835,23.528863 15.2550881,23.4103958 L13.6450881,22.3303958 L13.6450881,2.50039485 L21.3750881,2.50039485 C22.1946958,2.49960236 22.9318335,2.99895371 23.2350881,3.76039579 L27.6850881,14.9303958 C27.771935,15.1448931 27.69688,15.390907 27.5050881,15.5203958 Z" id="Path" fill="#CBAD95"></path>
            <path d="M21.3750881,3.73039579 L26.5350881,16.1703958 L27.5350881,15.5203958 C27.72688,15.390907 27.801935,15.1448931 27.7150881,14.9303958 L23.2350881,3.76039579 C22.9318335,2.99895371 22.1946958,2.49960236 21.3750881,2.50039485 L19.5350881,2.50039485 C20.3400631,2.502745 21.0651748,2.98746639 21.3750881,3.73039579 L21.3750881,3.73039579 Z" id="Path" fill="#CBAD95"></path>
            <path d="M24.1050881,17.8203958 L15.8050881,23.4103958 C15.6408927,23.528863 15.4192835,23.528863 15.2550881,23.4103958 L13.6450881,22.3303958 L13.6450881,2.50039579 L16.4350881,2.50039579 C16.8120329,2.85045206 17.1206096,3.26753924 17.3450881,3.73039579 L24.1050881,17.8203958 Z" id="Path" fill="#CBAD95"></path>
            <path d="M15.1650881,0.000395791071 L12.8750881,0.000395791071 C12.5244851,-0.00945375539 12.19435,0.165100431 12.0050881,0.460395791 L10.7050881,2.46039579 L20.3050881,2.46039579 L19.0050881,0.460395791 C18.8253762,0.180115466 18.5179554,0.00765991587 18.1850881,0.000395791071 L15.1850881,0.000395791071" id="Path" fill="#ECE0D4"></path>
            <path d="M3.56508807,15.5203958 L15.2550881,23.4103958 C15.4192835,23.528863 15.6408927,23.528863 15.8050881,23.4103958 L23.1850881,18.4103958 L16.3450881,4.20039579 C15.8460163,3.162439 14.7967933,2.5018171 13.6450881,2.50039579 L9.64508807,2.50039579 C8.84377826,2.51975133 8.13142545,3.01564334 7.83508807,3.76039579 L3.38508807,14.9303958 C3.29824109,15.1448931 3.37329618,15.390907 3.56508807,15.5203958 Z" id="Path" fill="#CBAD95"></path>
            <path d="M13.8750881,4.20039579 L21.3150881,19.7003958 L23.1850881,18.4403958 L16.3450881,4.20039579 C15.8460163,3.162439 14.7967933,2.5018171 13.6450881,2.50038915 L11.1650881,2.50038915 C12.3204031,2.4979713 13.374453,3.15918338 13.8750881,4.20039579 Z" id="Path" fill="#CBAD95"></path>
            <polygon id="Path" fill="#ECE0D4" points="4.33508807 14.6903958 5.00508807 13.0003958 15.5350881 19.9003958 26.1450881 13.0903958 26.7350881 14.6903958 15.5350881 22.2403958"></polygon>
            <circle id="Oval" fill="#ECE0D4" cx="9.45508807" cy="3.86039579" r="1"></circle>
            <circle id="Oval" fill="#ECE0D4" cx="10.7650881" cy="3.86039579" r="1"></circle>
            <circle id="Oval" fill="#ECE0D4" cx="12.0650881" cy="3.86039579" r="1"></circle>
            <circle id="Oval" fill="#ECE0D4" cx="13.4650881" cy="3.86039579" r="1"></circle>
            <circle id="Oval" fill="#ECE0D4" cx="14.7650881" cy="3.86039579" r="1"></circle>
            <circle id="Oval" fill="#ECE0D4" cx="16.0750881" cy="3.86039579" r="1"></circle>
            <circle id="Oval" fill="#ECE0D4" cx="17.3750881" cy="3.86039579" r="1"></circle>
            <circle id="Oval" fill="#ECE0D4" cx="18.6750881" cy="3.86039579" r="1"></circle>
            <circle id="Oval" fill="#ECE0D4" cx="19.9850881" cy="3.86039579" r="1"></circle>
            <circle id="Oval" fill="#ECE0D4" cx="21.3850881" cy="3.86039579" r="1"></circle>
        </g>
    </g>
</svg>