<?xml version="1.0" encoding="UTF-8"?>
<svg width="33px" height="25px" viewBox="0 0 33 25" version="1.1" xmlns="http://www.w3.org/2000/svg" xmlns:xlink="http://www.w3.org/1999/xlink">
    <title>Untitled 59</title>
    <g id="Page-1" stroke="none" stroke-width="1" fill="none" fill-rule="evenodd">
        <g id="sabanaunidad" transform="translate(0.994912, 0.999605)" fill-rule="nonzero">
            <path d="M13.4350881,0.360394701 C8.17508807,-0.859605299 1.89508807,0.760394701 0.295088069,9.2203947 C-1.30491193,17.6803947 3.68508807,21.7603947 13.2350881,21.8603947 C22.7850881,21.9603947 32.8450881,20.0703947 31.1550881,12.5103947 C29.4650881,4.9503947 24.1550881,5.1403947 21.6050881,5.5103947 C19.0550881,5.8803947 17.7150881,1.3603947 13.4350881,0.360394701 Z" id="Path" fill="#E8F4FA"></path>
            <path d="M16.5450881,0.380394701 L16.6550881,0.380394701 L16.6550881,5.2903947 C16.7908934,8.26263691 14.4968633,10.7847285 11.5250881,10.9303947 L6.93508807,10.9303947 L6.93508807,18.8703947 C6.93508807,22.0003947 9.26508807,23.6603947 12.1450881,23.6703947 L16.5450881,23.6703947 C19.4250881,23.6703947 21.7550881,22.0003947 21.7650881,18.8703947 L21.7650881,5.1003947 C21.7550881,2.0003947 19.4250881,0.380394701 16.5450881,0.380394701 Z" id="Path" fill="#11B0DE"></path>
            <path d="M11.7050881,9.7703947 C13.8947525,9.69429499 15.6157072,7.87079627 15.5650881,5.6803947 L15.5650881,2.1303947 L8.56508807,9.7703947 L11.7050881,9.7703947 Z" id="Path" fill="#11B0DE"></path>
        </g>
    </g>
</svg>