<?xml version="1.0" encoding="UTF-8"?>
<svg width="33px" height="23px" viewBox="0 0 33 23" version="1.1" xmlns="http://www.w3.org/2000/svg" xmlns:xlink="http://www.w3.org/1999/xlink">
    <title>Untitled 58</title>
    <g id="Page-1" stroke="none" stroke-width="1" fill="none" fill-rule="evenodd">
        <g id="sabanas" transform="translate(0.994912, 0.999605)" fill-rule="nonzero">
            <path d="M13.4350881,0.360394701 C8.17508807,-0.859605299 1.89508807,0.760394701 0.295088069,9.2203947 C-1.30491193,17.6803947 3.68508807,21.7603947 13.2350881,21.8603947 C22.7850881,21.9603947 32.8450881,20.0703947 31.1550881,12.5103947 C29.4650881,4.9503947 24.1550881,5.1403947 21.6050881,5.5103947 C19.0550881,5.8803947 17.7150881,1.3603947 13.4350881,0.360394701 Z" id="Path" fill="#E8F4FA"></path>
            <path d="M28.1250881,11.1603947 L3.25508807,11.1603947 L3.25508807,1.8603947 C3.31824193,1.26125899 3.84402797,0.819421988 4.44508807,0.860394701 L26.9250881,0.860394701 C27.5459302,0.820384676 28.0823313,1.28973566 28.1250881,1.9103947 L28.1250881,11.1603947 Z" id="Path" fill="#CBAD95"></path>
            <path d="M27.1650881,10.0003947 C26.9367097,10.0118472 26.7411343,9.83849634 26.7250881,9.6103947 L26.7250881,2.2103947 C26.7149014,2.12439179 26.6416901,2.05979352 26.5550881,2.0603947 L4.71508807,2.0603947 C4.63048487,2.06022931 4.56037562,2.12595674 4.55508807,2.2103947 L4.55508807,9.6203947 C4.53391526,9.84863598 4.33365151,10.0177476 4.10508807,10.0003947 C3.87670969,10.0118472 3.68113433,9.83849634 3.66508807,9.6103947 L3.66508807,2.2103947 C3.6968679,1.68167082 4.13541082,1.26944047 4.66508807,1.2703947 L26.5550881,1.2703947 C27.103925,1.24196967 27.5728493,1.66176857 27.6050881,2.2103947 L27.6050881,9.6203947 C27.5974164,9.72924383 27.5466706,9.83054443 27.4640868,9.90186687 C27.3815029,9.97318931 27.2738946,10.008649 27.1650881,10.0003947 L27.1650881,10.0003947 Z" id="Path" fill="#ECE0D4"></path>
            <path d="M13.7950881,10.7303947 L6.79508807,10.7303947 C6.16386931,10.7249056 5.6550642,10.2116373 5.65508807,9.5803947 L5.65508807,5.1703947 C5.64972292,4.86194533 5.76851063,4.56427392 5.98476171,4.34426195 C6.20101279,4.12424998 6.49659205,4.00035039 6.80508807,4.00035039 L13.8050881,4.00035039 C14.1109051,3.99770012 14.4049803,4.11799501 14.621234,4.33424872 C14.8374878,4.55050243 14.9577826,4.84457764 14.9551336,5.1503947 L14.9551336,9.5803947 C14.9578338,9.88796916 14.8361742,10.1836016 14.6177381,10.4001547 C14.3993019,10.6167078 14.1026272,10.7358032 13.7950881,10.7303947 Z" id="Path" fill="#ECE0D4"></path>
            <path d="M24.4650881,10.7304382 L17.4650881,10.7304382 C16.8299606,10.7304382 16.3150881,10.2155222 16.3150881,9.5803947 L16.3150881,5.1703947 C16.3096805,4.86020333 16.4298298,4.56098559 16.6482581,4.34067436 C16.8666863,4.12036313 17.1648617,3.99764984 17.4750881,4.00034962 L24.4750881,4.00034962 C25.1102155,4.00034962 25.6250881,4.51526724 25.6250881,5.1503947 L25.6250881,9.5803947 C25.6250881,9.88713421 25.5025675,10.1811669 25.2847331,10.3971236 C25.0668986,10.6130802 24.771816,10.733062 24.4650881,10.7304382 Z" id="Path" fill="#ECE0D4"></path>
            <path d="M25.7950881,16.1503947 L5.58508807,16.1503947 C3.71836564,16.1503947 2.20508814,14.6371171 2.20508814,12.7703947 C2.20508814,10.9036723 3.71836564,9.3903947 5.58508807,9.3903947 L25.7950881,9.3903947 C27.6618105,9.3903947 29.1750881,10.9036722 29.1750881,12.7703947 C29.1750881,14.6371172 27.6618105,16.1503947 25.7950881,16.1503947 Z" id="Path" fill="#CBAD95"></path>
            <path d="M2.20500023,15.4303947 L2.20500023,20.4803947 C2.20240522,20.6332932 2.26127216,20.7808573 2.36846006,20.8899257 C2.47564796,20.9989941 2.622166,21.0603947 2.77508807,21.0603947 L3.91508807,21.0603947 C4.23150124,21.0549385 4.48513511,20.7968549 4.48508807,20.4803947 C4.49059441,19.1809096 5.54559134,18.130383 6.84508807,18.1303947 L24.5350881,18.1303947 C25.8329572,18.1303947 26.8850881,19.1825255 26.8850881,20.4803947 C26.8850881,20.8007199 27.1447629,21.0603947 27.4650881,21.0603947 L28.6050881,21.0603947 C28.9215012,21.0549385 29.1750881,20.7968549 29.1750881,20.4803947 L29.1750881,15.4303947 C29.1750881,15.1139345 28.9215012,14.8558509 28.6050881,14.8503947 L2.77508807,14.8503947 C2.622166,14.8503947 2.47564796,14.9117953 2.36846006,15.0208637 C2.26127216,15.1299321 2.20240522,15.2774962 2.20500023,15.4303947 Z" id="Path" fill="#ECE0D4"></path>
        </g>
    </g>
</svg>