<?xml version="1.0" encoding="UTF-8"?>
<svg width="38px" height="28px" viewBox="0 0 38 28" version="1.1" xmlns="http://www.w3.org/2000/svg" xmlns:xlink="http://www.w3.org/1999/xlink">
    <title>Untitled 61</title>
    <g id="Page-1" stroke="none" stroke-width="1" fill="none" fill-rule="evenodd">
        <g id="seater" transform="translate(0.993335, 0.997464)" fill-rule="nonzero">
            <path d="M15.2966652,4.13253598 C9.75666518,2.84253598 3.13666518,4.55253598 1.45666518,13.462536 C-0.22333482,22.372536 5.00666518,26.672536 15.0866652,26.772536 C25.1666652,26.872536 35.7366652,24.892536 34.0066652,16.922536 C32.2766652,8.95253598 26.6166652,9.16253598 23.8866652,9.58253598 C21.1566652,10.002536 19.8066652,5.18253598 15.2966652,4.13253598 Z" id="Path" fill="#E8F4FA"></path>
            <path d="M15.7266652,0.00253597802 C12.9692794,-0.0487286754 10.3355518,1.14508089 8.55666518,3.25253598 C7.09890892,5.00046134 5.94610382,6.98152817 5.14666518,9.11253598 C4.16666518,11.072536 -0.19333482,20.002536 0.00666518005,20.262536 L3.27666518,23.882536 C3.47128508,24.0706144 3.76207947,24.1184162 4.00666518,24.002536 L9.85666518,11.442536 L9.85666518,26.162536 C9.85666518,26.5049525 10.1342486,26.782536 10.4766652,26.782536 L26.0066652,26.782536 C26.3490817,26.782536 26.6266652,26.5049525 26.6266652,26.162536 L26.6266652,26.162536 L26.6266652,11.442536 L32.6266652,23.312536 C32.8709317,23.4207248 33.1570326,23.3602809 33.3366652,23.162536 L36.6066652,19.542536 C36.8066652,19.312536 31.1166652,8.62253598 30.6066652,7.63253598 C29.8790658,6.09434083 29.0085749,4.62789852 28.0066652,3.25253598 C25.3666652,0.142535978 21.0066652,0.00253597802 20.7966652,0.00253597802 L15.7266652,0.00253597802 Z" id="Path" fill="#333A4D"></path>
            <circle id="Oval" fill="#FFFFFF" cx="18.0866652" cy="5.41253598" r="1"></circle>
            <circle id="Oval" fill="#FFFFFF" cx="18.0866652" cy="11.682536" r="1"></circle>
            <circle id="Oval" fill="#FFFFFF" cx="18.0866652" cy="17.962536" r="1"></circle>
            <circle id="Oval" fill="#FFFFFF" cx="18.0866652" cy="23.362536" r="1"></circle>
            <path d="M20.7966652,0.00253597802 L15.7266652,0.00253597802 C14.9898074,-0.0154042934 14.2537183,0.061901867 13.5366652,0.232535978 C13.8166652,1.91253598 15.6666652,3.23253598 17.9066652,3.23253598 C20.1466652,3.23253598 22.0066652,1.89253598 22.2966652,0.172535978 C21.8026392,0.0718564833 21.3006924,0.0149691734 20.7966652,0.00253597802 L20.7966652,0.00253597802 Z" id="Path" fill="#151C32"></path>
        </g>
    </g>
</svg>