<?xml version="1.0" encoding="UTF-8"?>
<svg width="33px" height="32px" viewBox="0 0 33 32" version="1.1" xmlns="http://www.w3.org/2000/svg" xmlns:xlink="http://www.w3.org/1999/xlink">
    <title>Untitled 62</title>
    <g id="Page-1" stroke="none" stroke-width="1" fill="none" fill-rule="evenodd">
        <g id="servilleta" transform="translate(0.994912, 0.994343)" fill-rule="nonzero">
            <path d="M13.4350881,3.8756572 C8.17508807,2.6556572 1.89508807,4.2756572 0.295088069,12.7356572 C-1.30491193,21.1956572 3.68508807,25.2856572 13.2350881,25.3856572 C22.7850881,25.4856572 32.8450881,23.5856572 31.1550881,16.0056572 C29.4650881,8.4256572 24.1550881,8.6356572 21.6050881,9.0056572 C19.0550881,9.3756572 17.7150881,4.8756572 13.4350881,3.8756572 Z" id="Path" fill="#E8F4FA"></path>
            <path d="M11.5450881,0.7556572 C11.5450881,-0.0443428003 11.9450881,-0.1843428 12.4450881,0.4356572 L26.7350881,18.2856572 C26.9795078,18.5791792 27.0913397,18.9608775 27.0439629,19.3398916 C26.9965862,19.7189056 26.7942388,20.0613315 26.4850881,20.2856572 L12.7150881,30.6256572 C12.0750881,31.0956572 11.5550881,30.8356572 11.5550881,30.0456572 L11.5450881,0.7556572 Z" id="Path" fill="#484E5F"></path>
            <path d="M11.5450881,0.7556572 C11.5450881,-0.0443428003 11.9950881,-0.2443428 12.5450881,0.3256572 L26.5950881,14.3256572 C27.1554888,14.8940946 27.1554888,15.8072198 26.5950881,16.3756572 L12.5950881,30.4256572 C12.0350881,30.9856572 11.5950881,30.7956572 11.5950881,30.0056572 L11.5450881,0.7556572 Z" id="Path" fill="#151C32"></path>
            <path d="M11.7950881,28.5156572 C11.7321579,28.5121228 11.6722609,28.4874594 11.6250881,28.4456572 C11.5361588,28.3497689 11.5361588,28.2015455 11.6250881,28.1056572 L23.4750881,16.2456572 C23.6972235,16.0182056 23.8226592,15.7135762 23.8250881,15.3956572 C23.8269813,15.0768812 23.7008959,14.7706739 23.4750881,14.5456572 L11.6150881,2.6956572 C11.5672626,2.65207434 11.5400074,2.59036222 11.5400074,2.5256572 C11.5400074,2.46095218 11.5672626,2.39924006 11.6150881,2.3556572 C11.7109764,2.2667279 11.8591998,2.2667279 11.9550881,2.3556572 L23.8150881,14.2056572 C24.1289707,14.5221775 24.3050881,14.9498911 24.3050881,15.3956572 C24.3029454,15.8409967 24.1271489,16.267931 23.8150881,16.5856572 L12.0050881,28.4456572 C11.9476743,28.4968445 11.8717315,28.5221588 11.7950881,28.5156572 Z" id="Path" fill="#FFFFFF"></path>
        </g>
    </g>
</svg>