<?xml version="1.0" encoding="UTF-8"?>
<svg width="33px" height="23px" viewBox="0 0 33 23" version="1.1" xmlns="http://www.w3.org/2000/svg" xmlns:xlink="http://www.w3.org/1999/xlink">
    <title>Untitled 65</title>
    <g id="Page-1" stroke="none" stroke-width="1" fill="none" fill-rule="evenodd">
        <g id="setdesabanas2" transform="translate(0.994912, 0.999605)" fill-rule="nonzero">
            <path d="M13.4350881,0.360394701 C8.17508807,-0.859605299 1.89508807,0.760394701 0.295088069,9.2203947 C-1.30491193,17.6803947 3.68508807,21.7603947 13.2350881,21.8603947 C22.7850881,21.9603947 32.8450881,20.0703947 31.1550881,12.5103947 C29.4650881,4.9503947 24.1550881,5.1403947 21.6050881,5.5103947 C19.0550881,5.8803947 17.7150881,1.3603947 13.4350881,0.360394701 Z" id="Path" fill="#E8F4FA"></path>
            <path d="M28.6150881,11.7903947 L3.74508807,11.7903947 L3.74508807,2.4903947 C3.78784479,1.86973566 4.32424592,1.40038468 4.94508807,1.4403947 L27.4250881,1.4403947 C27.7222718,1.42123794 28.014849,1.52122531 28.2381511,1.71825661 C28.4614532,1.9152879 28.5970923,2.19313837 28.6150881,2.4903947 L28.6150881,11.7903947 Z" id="Path" fill="#CBAD95"></path>
            <path d="M27.6550881,10.6503947 C27.5436645,10.6558272 27.4346572,10.6167085 27.3521125,10.5416678 C27.2695678,10.4666272 27.2202679,10.3618303 27.2150881,10.2503947 L27.2150881,2.8403947 C27.2144564,2.78942564 27.1895769,2.74180758 27.1480985,2.71218014 C27.1066201,2.68255271 27.0535069,2.67446173 27.0050881,2.6903947 L5.21508807,2.6903947 C5.16666922,2.67446173 5.11355609,2.68255271 5.07207767,2.71218014 C5.03059926,2.74180758 5.00571975,2.78942564 5.00508807,2.8403947 L5.00508807,10.2503947 C4.97198317,10.4706142 4.78278191,10.6334993 4.56008807,10.6334993 C4.33739423,10.6334993 4.14819296,10.4706142 4.11508807,10.2503947 L4.11508807,2.8403947 C4.13007656,2.56746834 4.25613132,2.31257274 4.46393117,2.13499833 C4.67173102,1.95742391 4.94316222,1.87264968 5.21508807,1.9003947 L27.0050881,1.9003947 C27.270422,1.88399529 27.5313658,1.97392084 27.7302642,2.15030246 C27.9291626,2.32668408 28.049644,2.57500341 28.0650881,2.8403947 L28.0650881,10.2503947 C28.0500417,10.4685973 27.8735956,10.6407398 27.6550881,10.6503947 L27.6550881,10.6503947 Z" id="Path" fill="#ECE0D4"></path>
            <path d="M14.2950881,11.360439 L7.29508807,11.360439 C6.98927101,11.3630893 6.6951958,11.2427944 6.47894209,11.0265407 C6.26268838,10.810287 6.14239349,10.5162118 6.14504376,10.2103947 L6.14504376,5.8003947 C6.14504376,5.49365519 6.26760859,5.19962246 6.48544308,4.98366585 C6.70327758,4.76770924 6.99836016,4.6477274 7.30508807,4.65035116 L14.3050881,4.65035116 C14.9323914,4.66130597 15.435132,5.17299645 15.435132,5.8003947 L15.435132,10.2103947 C15.4377555,10.5144704 15.3188273,10.8070095 15.104746,11.0229687 C14.8906648,11.2389279 14.5991755,11.360439 14.2950881,11.360439 Z" id="Path" fill="#ECE0D4"></path>
            <path d="M25.0050881,11.360439 L18.0050881,11.360439 C17.699271,11.3630893 17.4051958,11.2427944 17.1889421,11.0265407 C16.9726884,10.810287 16.8523935,10.5162118 16.8550438,10.2103947 L16.8550438,5.8003947 C16.8550438,5.16526724 17.3699606,4.6503947 18.0050881,4.6503947 L25.0050881,4.6503947 C25.6206085,4.67718151 26.1056707,5.18429191 26.1051393,5.8003947 L26.1051393,10.2103947 C26.1108907,10.8285764 25.6229173,11.3387304 25.0050881,11.360439 Z" id="Path" fill="#ECE0D4"></path>
            <path d="M26.2850881,16.7903947 L6.07508807,16.7903947 C4.20836561,16.7903947 2.69508807,15.2771172 2.69508807,13.4103947 C2.69508807,11.5436722 4.20836561,10.0303947 6.07508807,10.0303947 L26.2850881,10.0303947 C28.1518105,10.0303947 29.6650881,11.5436722 29.6650881,13.4103947 C29.6650881,15.2771172 28.1518105,16.7903947 26.2850881,16.7903947 Z" id="Path" fill="#CBAD95"></path>
            <path d="M2.69508807,16.0603947 L2.69508807,21.1203947 C2.70043217,21.4329566 2.95252612,21.6850506 3.26508807,21.6903947 L4.40508807,21.6903947 C4.561389,21.6986326 4.71420044,21.642236 4.82767581,21.5344344 C4.94115118,21.4266328 5.00530501,21.2769124 5.00508807,21.1203947 C5.00508807,19.8170027 6.06169606,18.7603947 7.36508807,18.7603947 L25.0050881,18.7603947 C26.3084801,18.7603947 27.3650881,19.8170027 27.3650881,21.1203947 C27.3704322,21.4329566 27.6225261,21.6850506 27.9350881,21.6903947 L29.0750881,21.6903947 C29.3898904,21.6903947 29.6451759,21.435197 29.6451759,21.1203947 L29.6451759,16.0603947 C29.6477709,15.9074962 29.588904,15.7599321 29.4817161,15.6508637 C29.3745282,15.5417953 29.2280101,15.4803947 29.0750881,15.4803947 L3.26508807,15.4803947 C2.9486749,15.4858509 2.69508807,15.7439345 2.69508807,16.0603947 Z" id="Path" fill="#ECE0D4"></path>
        </g>
    </g>
</svg>