<?xml version="1.0" encoding="UTF-8"?>
<svg width="33px" height="25px" viewBox="0 0 33 25" version="1.1" xmlns="http://www.w3.org/2000/svg" xmlns:xlink="http://www.w3.org/1999/xlink">
    <title>Untitled 64</title>
    <g id="Page-1" stroke="none" stroke-width="1" fill="none" fill-rule="evenodd">
        <g id="setdesabanas" transform="translate(0.994912, 0.999605)" fill-rule="nonzero">
            <path d="M13.4350881,0.360394701 C8.17508807,-0.859605299 1.89508807,0.760394701 0.295088069,9.2203947 C-1.30491193,17.6803947 3.68508807,21.7603947 13.2350881,21.8603947 C22.7850881,21.9603947 32.8450881,20.0703947 31.1550881,12.5103947 C29.4650881,4.9503947 24.1550881,5.1403947 21.6050881,5.5103947 C19.0550881,5.8803947 17.7150881,1.3603947 13.4350881,0.360394701 Z" id="Path" fill="#E8F4FA"></path>
            <path d="M24.0050881,13.5003947 L6.78504453,13.5003947 L6.78504453,3.2903947 C6.78242077,2.98366679 6.9024026,2.68858421 7.11835922,2.47074972 C7.33431583,2.25291522 7.62834856,2.1303831 7.93508807,2.1303947 L22.8250881,2.1303947 C23.1361897,2.12503008 23.4364044,2.24487163 23.6582916,2.46299799 C23.8801788,2.68112436 24.0050881,2.97924679 24.0050881,3.2903947 L24.0050881,13.5003947 Z" id="Path" fill="#11B0DE"></path>
            <path d="M22.6950881,12.1003947 C22.6031946,12.1030986 22.5141227,12.0684746 22.4481809,12.0044168 C22.3822391,11.940359 22.3450483,11.852328 22.3450881,11.7603947 L22.3450881,4.0003947 C22.3451449,3.93497164 22.3184912,3.87236089 22.2712958,3.82705332 C22.2241004,3.78174575 22.1604543,3.75766871 22.0950881,3.7603947 L8.59508807,3.7603947 C8.46082968,3.76028725 8.35045836,3.86624372 8.34508807,4.0003947 L8.34508807,11.7703947 C8.33967809,11.954255 8.18902796,12.100542 8.00508807,12.1003947 C7.81562725,12.100542 7.66050122,11.9497782 7.65508807,11.7603947 L7.65508807,4.0003947 C7.65772602,3.75373884 7.75824693,3.51823494 7.93453425,3.34569841 C8.11082157,3.17316188 8.34843252,3.07772823 8.59508807,3.08034029 L22.0950881,3.08034029 C22.5970227,3.09116368 22.9998052,3.49837233 23.0050881,4.0003947 L23.0050881,11.7703947 C23.0006729,11.9432074 22.8672879,12.0851979 22.6950881,12.1003947 Z" id="Path" fill="#A5D8EE"></path>
            <path d="M19.0050881,13.0804368 L11.7550881,13.0804368 C11.4377514,13.0830615 11.1324949,12.9588651 10.9071591,12.7354071 C10.6818233,12.5119491 10.5550881,12.2077426 10.5550881,11.8903947 L10.5550881,7.3103947 C10.5550881,6.647653 11.0923464,6.1103947 11.7550881,6.1103947 L19.0050881,6.1103947 C19.322436,6.1103947 19.6266425,6.23712992 19.8501005,6.46246571 C20.0735585,6.68780149 20.1977549,6.99305801 20.1951301,7.3103947 L20.1951301,11.8903947 C20.1951301,12.5476136 19.6623069,13.0804368 19.0050881,13.0804368 Z" id="Path" fill="#A5D8EE"></path>
            <path d="M21.7350881,18.3203947 L9.00508807,18.3203947 C7.27200129,18.2244447 5.91585034,16.7911355 5.91585034,15.0553947 C5.91585034,13.3196539 7.27200129,11.8863447 9.00508807,11.7903947 L21.7350881,11.7903947 C23.4681749,11.8863447 24.8243258,13.3196539 24.8243258,15.0553947 C24.8243258,16.7911355 23.4681749,18.2244447 21.7350881,18.3203947 Z" id="Path" fill="#11B0DE"></path>
            <path d="M5.76508806,17.6203947 L5.76508806,22.5003947 C5.76508806,22.648013 5.82438063,22.7894448 5.92969865,22.8928821 C6.03501668,22.9963195 6.17749414,23.0530787 6.32508807,23.0503947 L7.41508807,23.0503947 C7.56775474,23.0615278 7.71815479,23.0085346 7.83012202,22.9041584 C7.94208925,22.7997822 8.00549346,22.6534662 8.00508807,22.5003947 C8.00507599,21.2450804 9.01978584,20.2259005 10.2750881,20.2203947 L20.5150881,20.2203947 C21.7742973,20.2203947 22.7950881,21.2411855 22.7950881,22.5003947 C22.7923454,22.6470874 22.8494105,22.7885812 22.9531561,22.8923267 C23.0569016,22.9960722 23.1983954,23.0531373 23.3450881,23.0503947 L24.4450881,23.0503947 C24.592682,23.0530787 24.7351595,22.9963195 24.8404775,22.8928821 C24.9457955,22.7894448 25.0050881,22.648013 25.0050881,22.5003947 L25.0050881,17.6203947 C25.0050881,17.3149788 24.7604553,17.0658486 24.4550881,17.0603947 L6.32508807,17.0603947 C6.01580861,17.0603947 5.76508806,17.3111152 5.76508806,17.6203947 Z" id="Path" fill="#A5D8EE"></path>
        </g>
    </g>
</svg>