<?xml version="1.0" encoding="UTF-8"?>
<svg width="33px" height="24px" viewBox="0 0 33 24" version="1.1" xmlns="http://www.w3.org/2000/svg" xmlns:xlink="http://www.w3.org/1999/xlink">
    <title>Untitled 63</title>
    <g id="Page-1" stroke="none" stroke-width="1" fill="none" fill-rule="evenodd">
        <g id="setde" transform="translate(0.994912, 0.999605)" fill-rule="nonzero">
            <path d="M13.4350881,0.360394701 C8.17508807,-0.859605299 1.89508807,0.760394701 0.295088069,9.2203947 C-1.30491193,17.6803947 3.68508807,21.7603947 13.2350881,21.8603947 C22.7850881,21.9603947 32.8450881,20.0703947 31.1550881,12.5103947 C29.4650881,4.9503947 24.1550881,5.1403947 21.6050881,5.5103947 C19.0550881,5.8803947 17.7150881,1.3603947 13.4350881,0.360394701 Z" id="Path" fill="#E8F4FA"></path>
            <path d="M24.4850881,12.8703947 L7.28508807,12.8703947 L7.28508807,2.6503947 C7.29057742,2.01365306 7.80832277,1.5003947 8.44508807,1.5003947 L23.3350881,1.5003947 C23.9702155,1.5003947 24.4850881,2.01526724 24.4850881,2.6503947 L24.4850881,12.8703947 Z" id="Path" fill="#11B0DE"></path>
            <path d="M23.1950881,11.4703947 C23.0073113,11.4703947 22.8550881,11.3181715 22.8550881,11.1303947 L22.8550881,3.3503947 C22.8497178,3.21624372 22.7393465,3.11028725 22.6050881,3.1103947 L9.10508807,3.1103947 C8.97082968,3.11028725 8.86045836,3.21624372 8.85508807,3.3503947 L8.85508807,11.1303947 C8.82636243,11.2985116 8.68064146,11.4214456 8.51008807,11.4214456 C8.33953468,11.4214456 8.19381371,11.2985116 8.16508807,11.1303947 L8.16508807,3.3503947 C8.17602138,2.84068336 8.59529023,2.43479543 9.10508807,2.44033746 L22.6050881,2.44033746 C23.1148859,2.43479543 23.5341548,2.84068336 23.5450881,3.3503947 L23.5450881,11.1303947 C23.5396749,11.3197782 23.3845489,11.4703947 23.1950881,11.4703947 L23.1950881,11.4703947 Z" id="Path" fill="#A5D8EE"></path>
            <path d="M19.5150881,12.4504368 L12.2550881,12.4504368 C11.5978692,12.4504368 11.0650881,11.9176136 11.0650881,11.2603947 L11.0650881,6.6703947 C11.0650881,6.01317585 11.5978692,5.48035262 12.2550881,5.48035262 L19.5150881,5.48035262 C19.8324248,5.47772791 20.1376813,5.60192428 20.3630171,5.82538227 C20.5883529,6.04884026 20.7150881,6.3530468 20.7150881,6.6703947 L20.7150881,11.2603947 C20.7150881,11.5777426 20.5883529,11.8819491 20.3630171,12.1054071 C20.1376813,12.3288651 19.8324248,12.4530615 19.5150881,12.4504368 L19.5150881,12.4504368 Z" id="Path" fill="#A5D8EE"></path>
            <path d="M22.2350881,17.6903947 L9.53508807,17.6903947 C7.80200129,17.5944447 6.44585034,16.1611355 6.44585034,14.4253947 C6.44585034,12.6896539 7.80200129,11.2563447 9.53508807,11.1603947 L22.2350881,11.1603947 C23.4446775,11.0934274 24.592173,11.7006725 25.2171315,12.7384673 C25.84209,13.7762621 25.84209,15.0745273 25.2171315,16.1123221 C24.592173,17.1501169 23.4446775,17.757362 22.2350881,17.6903947 Z" id="Path" fill="#11B0DE"></path>
            <path d="M6.27508807,17.0003947 L6.27508807,21.8903947 C6.27508807,22.1941513 6.52133146,22.4403947 6.82508807,22.4403947 L7.92508807,22.4403947 C8.07095714,22.4403947 8.21085179,22.3824484 8.3139968,22.2793034 C8.41714181,22.1761584 8.47508807,22.0362638 8.47508807,21.8903947 C8.47508807,20.6311855 9.49587884,19.6103947 10.7550881,19.6103947 L21.0050881,19.6103947 C22.2603903,19.6159005 23.2751001,20.6350804 23.2750881,21.8903947 C23.2805419,22.1957619 23.5296721,22.4403947 23.8350881,22.4403947 L24.9250881,22.4403947 C25.230504,22.4403947 25.4796342,22.1957619 25.4850881,21.8903947 L25.4850881,17.0003947 C25.4796342,16.6950275 25.230504,16.4503947 24.9250881,16.4503947 L6.82508807,16.4503947 C6.679219,16.4503947 6.53932435,16.508341 6.43617934,16.611486 C6.33303433,16.714631 6.27508807,16.8545256 6.27508807,17.0003947 Z" id="Path" fill="#A5D8EE"></path>
        </g>
    </g>
</svg>