<?xml version="1.0" encoding="UTF-8"?>
<svg width="33px" height="26px" viewBox="0 0 33 26" version="1.1" xmlns="http://www.w3.org/2000/svg" xmlns:xlink="http://www.w3.org/1999/xlink">
    <title>Untitled 68</title>
    <g id="Page-1" stroke="none" stroke-width="1" fill="none" fill-rule="evenodd">
        <g id="toallapiso" transform="translate(0.994912, 0.000000)" fill-rule="nonzero">
            <path d="M13.4350881,1.27 C8.17508807,0.05 1.89508807,1.67 0.295088069,10.13 C-1.30491193,18.59 3.68508807,22.67 13.2350881,22.77 C22.7850881,22.87 32.8450881,21 31.1550881,13.42 C29.4650881,5.84 24.1550881,6.05 21.6050881,6.42 C19.0550881,6.79 17.7150881,2.27 13.4350881,1.27 Z" id="Path" fill="#E8F4FA"></path>
            <rect id="Rectangle" fill="#11B0DE" x="11.5350881" y="0.8" width="12.85" height="24.89"></rect>
            <rect id="Rectangle" fill="#FFFFFF" x="11.5350881" y="22.34" width="12.88" height="1"></rect>
            <rect id="Rectangle" fill="#FFFFFF" x="11.5150881" y="20.85" width="12.88" height="1"></rect>
            <rect id="Rectangle" fill="#A5D8EE" x="8.15508807" y="0" width="12.85" height="24.89"></rect>
            <rect id="Rectangle" fill="#11B0DE" x="8.15508807" y="21.54" width="12.88" height="1"></rect>
            <rect id="Rectangle" fill="#11B0DE" x="8.13508807" y="20.05" width="12.88" height="1"></rect>
        </g>
    </g>
</svg>