<?xml version="1.0" encoding="UTF-8"?>
<svg width="33px" height="26px" viewBox="0 0 33 26" version="1.1" xmlns="http://www.w3.org/2000/svg" xmlns:xlink="http://www.w3.org/1999/xlink">
    <title>Untitled 67</title>
    <g id="Page-1" stroke="none" stroke-width="1" fill="none" fill-rule="evenodd">
        <g id="toalla" transform="translate(0.994912, 0.717366)" fill-rule="nonzero">
            <path d="M13.4350881,0.642634036 C8.17508807,-0.577365964 1.89508807,1.04263404 0.295088069,9.50263404 C-1.30491193,17.962634 3.68508807,22.042634 13.2350881,22.142634 C22.7850881,22.242634 32.8450881,20.352634 31.1550881,12.792634 C29.4650881,5.23263404 24.1550881,5.42263404 21.6050881,5.79263404 C19.0550881,6.16263404 17.7150881,1.64263404 13.4350881,0.642634036 Z" id="Path" fill="#E8F4FA"></path>
            <path d="M26.1750881,2.89263404 L26.1750881,24.702634 C26.1696424,24.9748634 25.9473719,25.1927362 25.6750881,25.1927362 L10.5250881,25.1927362 C10.3934081,25.1953219 10.2661902,25.1448861 10.1721231,25.0527004 C10.0780559,24.9605146 10.0250606,24.8343414 10.0250881,24.702634 L10.0250881,2.89263404 C10.0250881,1.50087647 8.89684564,0.372614167 7.50508807,0.372614167 L23.6450881,0.372614167 C24.3151646,0.369974982 24.9587084,0.634299888 25.4334651,1.10718007 C25.9082218,1.58006026 26.1750881,2.22255226 26.1750881,2.89263404 L26.1750881,2.89263404 Z" id="Path" fill="#ECE0D4"></path>
            <polygon id="Path" fill="#CBAD95" points="10.0050881 20.052634 26.1750881 20.052634 26.1750881 22.052634 10.0050881 22.052634"></polygon>
            <polygon id="Path" fill="#CBAD95" points="24.6050881 20.052634 26.1750881 20.052634 26.1750881 22.052634 24.6050881 22.052634"></polygon>
            <polygon id="Path" fill="#CBAD95" points="10.0050881 15.962634 26.1750881 15.962634 26.1750881 17.962634 10.0050881 17.962634"></polygon>
            <polygon id="Path" fill="#CBAD95" points="24.6050881 15.962634 26.1750881 15.962634 26.1750881 17.962634 24.6050881 17.962634"></polygon>
            <path d="M10.0050881,2.89263404 C10.1480258,1.90569211 9.69787052,0.926854646 8.85554727,0.393022159 C8.01322402,-0.140810328 6.93589096,-0.130036997 6.10441174,0.420533514 C5.27293252,0.971104026 4.84244201,1.95874795 5.00508807,2.94263404 L5.00508807,21.572634 C5.01040817,21.8465425 5.23117962,22.0673139 5.50508807,22.072634 L10.0050881,22.072634 L10.0050881,2.89263404 Z" id="Path" fill="#ECE0D4"></path>
            <path d="M8.78508807,2.89263404 L8.78508807,22.072634 L10.0050936,22.072634 L10.0050936,2.89263404 C10.006708,2.11857125 9.6510883,1.3870603 9.04134373,0.910208771 C8.43159915,0.433357243 7.63594514,0.264513084 6.88508807,0.452634036 C8.00375627,0.732901623 8.78750031,1.73939398 8.78508807,2.89263404 L8.78508807,2.89263404 Z" id="Path" fill="#CBAD95"></path>
        </g>
    </g>
</svg>