<?xml version="1.0" encoding="UTF-8"?>
<svg width="34px" height="30px" viewBox="0 0 34 30" version="1.1" xmlns="http://www.w3.org/2000/svg" xmlns:xlink="http://www.w3.org/1999/xlink">
    <title>Untitled 71</title>
    <g id="Page-1" stroke="none" stroke-width="1" fill="none" fill-rule="evenodd">
        <g id="trajelino" transform="translate(0.015508, 0.024399)" fill-rule="nonzero">
            <path d="M14.4244916,4.2556014 C8.77449159,2.9756014 1.98449159,4.6856014 0.304491594,13.7756014 C-1.37550841,22.8656014 3.98449159,27.2656014 14.2044916,27.3656014 C24.4244916,27.4656014 35.2844916,25.4456014 33.4644916,17.3656014 C31.6444916,9.2856014 25.9844916,9.3956014 23.1944916,9.8256014 C20.4044916,10.2556014 18.9844916,5.3256014 14.4244916,4.2556014 Z" id="Path" fill="#E8F4FA"></path>
            <path d="M18.3044916,3.6156014 L24.1344916,4.3756014 L24.1344916,11.3756014 L23.5844916,28.8756014 C23.5844916,28.8756014 18.5844916,29.9356014 15.1644916,28.8756014 C15.1644916,28.8556014 17.6144916,6.7556014 18.3044916,3.6156014 Z" id="Path" fill="#C5E5F3"></path>
            <path d="M18.3044916,3.6156014 C18.2349872,3.94533669 18.1882105,4.27945614 18.1644916,4.6156014 L24.2344916,5.3956014 L24.1344916,4.3956014 L18.3044916,3.6156014 Z" id="Path" fill="#FEFEFE"></path>
            <polygon id="Path" fill="#A5D8EE" points="20.6544916 3.9356014 21.2244916 3.9956014 21.2444916 5.1656014 20.6544916 5.0956014"></polygon>
            <path d="M29.9844916,3.6156014 L24.1544916,4.3756014 L24.1544916,11.3756014 L24.9844916,28.8556014 C24.9844916,28.8556014 29.6744916,29.9156014 33.1244916,28.8556014 C33.1044916,28.8556014 30.6544916,6.7556014 29.9844916,3.6156014 Z" id="Path" fill="#C5E5F3"></path>
            <path d="M24.1344916,3.4956014 C22.9744916,3.4956014 18.3044916,3.6156014 18.3044916,3.6156014 L24.1344916,4.3756014 L29.9844916,3.6156014 C29.9844916,3.6156014 25.2944916,3.4656014 24.1344916,3.4956014 Z" id="Path" fill="#A5D8EE"></path>
            <path d="M24.0844916,4.3856014 L25.1744916,4.2956014 C25.1744916,4.2956014 25.1744916,8.1456014 25.1744916,8.6956014 C24.9522488,9.04451047 24.6222055,9.31135402 24.2344916,9.4556014 L24.0844916,4.3856014 Z" id="Path" fill="#FEFEFE"></path>
            <path d="M29.9844916,3.6156014 C29.9844916,3.6156014 30.0744916,4.2156014 30.1244916,4.6156014 C30.1244916,4.6156014 25.4744916,5.6156014 22.9344916,5.2156014 L22.9344916,4.2156014 C25.2954232,4.1765812 27.6509209,3.97611331 29.9844916,3.6156014 L29.9844916,3.6156014 Z" id="Path" fill="#FEFEFE"></path>
            <polygon id="Path" fill="#A5D8EE" points="27.6144916 3.9356014 27.0544916 3.9956014 27.0544916 5.2956014 27.6144916 5.2156014"></polygon>
            <path d="M13.3644916,20.9756014 L13.8944916,11.8156014 L8.28449159,11.8156014 L8.70449159,20.9756014 C9.49044016,21.1992273 10.2929906,21.3597374 11.1044916,21.4556014 C11.8688656,21.3529039 12.6243609,21.1924447 13.3644916,20.9756014 Z" id="Path" fill="#A5D8EE"></path>
            <path d="M10.8444916,13.3556014 L11.0944916,16.8456014 C11.0944916,16.8456014 11.2744916,18.4756014 11.6244916,20.0956014 C11.8744916,21.2456014 12.3644916,22.0956014 13.0644916,22.3256014 C13.8047652,22.430014 14.5588961,22.3720039 15.2744916,22.1556014 C15.8006692,22.0271686 16.3156633,21.8566186 16.8144916,21.6456014 L16.5244916,16.0656014 L16.8144916,9.7556014 L18.9844916,2.9756014 L16.9844916,2.1356014 L15.2544916,1.3356014 L13.3144916,0.335601399 C11.8580869,-0.111867133 10.3008963,-0.111867133 8.84449159,0.335601399 L6.91449159,1.3356014 L5.18449159,2.1356014 L3.18449159,2.8556014 L5.18449159,9.6256014 L5.64449159,16.1156014 L5.35449159,21.6956014 C5.85331985,21.9066186 6.36831394,22.0771686 6.89449159,22.2056014 C7.61002771,22.4223208 8.36422823,22.4803363 9.10449159,22.3756014 C9.79449159,22.1756014 10.2844916,21.2956014 10.5444916,20.1456014 C10.8944916,18.5256014 11.0744916,16.8956014 11.0744916,16.8956014 L11.3244916,13.4056014" id="Path" fill="#A5D8EE"></path>
            <polygon id="Path" fill="#A5D8EE" points="18.1044916 2.5956014 18.9744916 3.0156014 18.9744916 4.0156014 19.9544916 11.6856014 21.4744916 21.4256014 17.5344916 21.5356014 16.9644916 13.8256014 16.7544916 11.5556014 16.6044916 10.0256014"></polygon>
            <polygon id="Path" fill="#A5D8EE" points="4.22449159 2.5556014 3.21449159 2.9956014 3.21449159 4.0156014 2.22449159 11.6856014 0.704491594 21.4256014 4.64449159 21.5356014 5.22449159 13.8256014 5.43449159 11.5556014 5.26449159 10.0956014"></polygon>
            <polygon id="Path" fill="#FEFEFE" points="11.0944916 13.7556014 13.6344916 0.495601399 15.4644916 3.2756014 14.7144916 3.6456014 15.7344916 4.7356014"></polygon>
            <polygon id="Path" fill="#FEFEFE" points="11.0944916 13.7556014 8.71449159 0.405601399 6.71449159 3.2756014 7.46449159 3.6456014 6.44449159 4.7356014"></polygon>
            <path d="M11.3844916,15.4556014 C11.3793195,15.6080474 11.2569376,15.7304293 11.1044916,15.7356014 C10.9674114,15.7098115 10.8681106,15.5900866 10.8681106,15.4506014 C10.8681106,15.3111162 10.9674114,15.1913913 11.1044916,15.1656014 C11.2607359,15.1709923 11.3845846,15.2992642 11.3844916,15.4556014 Z" id="Path" fill="#FEFEFE"></path>
        </g>
    </g>
</svg>