<?xml version="1.0" encoding="UTF-8"?>
<svg width="35px" height="34px" viewBox="0 0 35 34" version="1.1" xmlns="http://www.w3.org/2000/svg" xmlns:xlink="http://www.w3.org/1999/xlink">
    <title>Untitled 74</title>
    <g id="Page-1" stroke="none" stroke-width="1" fill="none" fill-rule="evenodd">
        <g id="vestidofalda" transform="translate(0.002145, 0.069215)" fill-rule="nonzero">
            <path d="M14.997855,6.5707851 C9.11785499,5.2107851 2.10785499,7.0207851 0.327854987,16.4607851 C-1.45214501,25.9007851 4.10785499,30.4607851 14.767855,30.5707851 C25.427855,30.6807851 36.657855,28.5707851 34.767855,20.1307851 C32.877855,11.6907851 26.997855,11.9307851 24.097855,12.3507851 C21.197855,12.7707851 19.767855,7.6807851 14.997855,6.5707851 Z" id="Path" fill="#E8F4FA"></path>
            <path d="M27.557855,33.0007851 L23.407855,12.0807851 L24.167855,6.0107851 C24.1855726,5.85701166 24.1502961,5.70179519 24.067855,5.5707851 L22.517855,3.3307851 L22.517855,0.550785102 C22.4779569,0.235991791 22.2101666,0 21.892855,0 C21.5755433,0 21.3077531,0.235991791 21.267855,0.550785102 L21.267855,3.2807851 L18.117855,3.3507851 L14.997855,3.2807851 L14.997855,0.550785102 C14.9579569,0.235991791 14.6901666,0 14.372855,0 C14.0555433,0 13.7877531,0.235991791 13.747855,0.550785102 L13.747855,3.3307851 L12.177855,5.5707851 C12.0864986,5.69794204 12.0504324,5.85663295 12.077855,6.0107851 L12.827855,12.1207851 L8.68785499,33.0007851 L27.557855,33.0007851 Z" id="Path" fill="#C5E5F3"></path>
            <path d="M12.827855,12.1207851 L23.407855,12.1207851 C19.887844,12.4271995 16.347866,12.4271995 12.827855,12.1207851 L12.827855,12.1207851 Z" id="Path" fill="#11B0DE"></path>
            <path d="M18.117855,12.2207851 L18.117855,33.0007851 C18.117855,33.0007851 17.627855,15.9307851 18.117855,12.2207851 Z" id="Path" fill="#11B0DE"></path>
            <circle id="Oval" fill="#FFFFFF" cx="18.217855" cy="13.6107851" r="1"></circle>
            <circle id="Oval" fill="#FFFFFF" cx="18.217855" cy="17.7007851" r="1"></circle>
            <circle id="Oval" fill="#FFFFFF" cx="18.217855" cy="21.7807851" r="1"></circle>
            <circle id="Oval" fill="#FFFFFF" cx="18.217855" cy="30.4207851" r="1"></circle>
            <circle id="Oval" fill="#FFFFFF" cx="18.217855" cy="26.2007851" r="1"></circle>
        </g>
    </g>
</svg>