<?xml version="1.0" encoding="UTF-8"?>
<svg width="35px" height="36px" viewBox="0 0 35 36" version="1.1" xmlns="http://www.w3.org/2000/svg" xmlns:xlink="http://www.w3.org/1999/xlink">
    <title>Untitled 73</title>
    <g id="Page-1" stroke="none" stroke-width="1" fill="none" fill-rule="evenodd">
        <g id="vestido" transform="translate(0.002145, 0.074705)" fill-rule="nonzero">
            <path d="M14.997855,8.79529463 C9.11785499,7.43529463 2.10785499,9.23529463 0.327854987,18.6852946 C-1.45214501,28.1352946 4.10785499,32.6852946 14.767855,32.7952946 C25.427855,32.9052946 36.657855,30.7952946 34.767855,22.3552946 C32.877855,13.9152946 26.997855,14.1252946 24.097855,14.5752946 C21.197855,15.0252946 19.767855,9.92529463 14.997855,8.79529463 Z" id="Path" fill="#E8F4FA"></path>
            <path d="M5.90785499,32.3352946 C5.8353861,32.510258 5.83581841,32.7069222 5.90905582,32.8815652 C5.98229322,33.0562083 6.12226578,33.1943557 6.29785499,33.2652946 C13.9286291,36.451418 22.5170808,36.451418 30.147855,33.2652946 C30.3234442,33.1943557 30.4634168,33.0562083 30.5366542,32.8815652 C30.6098916,32.7069222 30.6103239,32.510258 30.537855,32.3352946 C29.7254857,30.4772673 28.8004313,28.6705727 27.767855,26.9252946 C25.767855,23.4152946 23.887855,20.0952946 23.877855,16.4052946 L25.147855,6.92529463 C25.1727342,6.74943977 25.1298373,6.57070274 25.027855,6.42529463 L23.257855,3.81529463 L23.257855,0.635294628 C23.2149283,0.272949176 22.9077343,0 22.542855,0 C22.1779757,0 21.8707817,0.272949176 21.827855,0.635294628 L21.827855,3.75529463 L18.227855,7.63529463 L14.617855,3.75529463 L14.617855,0.635294628 C14.5749283,0.272949176 14.2677343,0 13.902855,0 C13.5379757,0 13.2307817,0.272949176 13.187855,0.635294628 L13.187855,3.81529463 L11.417855,6.38529463 C11.3201866,6.53261393 11.2776872,6.70969463 11.297855,6.88529463 L12.567855,16.4252946 C12.567855,20.1152946 10.677855,23.4252946 8.68785499,26.9452946 C7.64887091,28.6817725 6.72036372,30.4820076 5.90785499,32.3352946 Z" id="Path" fill="#11B0DE"></path>
            <polygon id="Path" fill="#A5D8EE" points="18.467855 35.6552946 18.757855 35.6552946 18.757855 7.02529463 18.327855 7.59529463"></polygon>
            <circle id="Oval" fill="#FFFFFF" cx="18.917855" cy="8.95529463" r="1"></circle>
            <circle id="Oval" fill="#FFFFFF" cx="18.917855" cy="13.0352946" r="1"></circle>
            <circle id="Oval" fill="#FFFFFF" cx="18.917855" cy="17.1252946" r="1"></circle>
            <circle id="Oval" fill="#FFFFFF" cx="18.917855" cy="21.2052946" r="1"></circle>
            <circle id="Oval" fill="#FFFFFF" cx="18.917855" cy="25.2852946" r="1"></circle>
            <circle id="Oval" fill="#FFFFFF" cx="18.917855" cy="33.9252946" r="1"></circle>
            <circle id="Oval" fill="#FFFFFF" cx="18.917855" cy="29.7152946" r="1"></circle>
        </g>
    </g>
</svg>