<?xml version="1.0" encoding="UTF-8"?>
<svg width="35px" height="38px" viewBox="0 0 35 38" version="1.1" xmlns="http://www.w3.org/2000/svg" xmlns:xlink="http://www.w3.org/1999/xlink">
    <title>Untitled 72</title>
    <g id="Page-1" stroke="none" stroke-width="1" fill="none" fill-rule="evenodd">
        <g id="vestido_fiesta" transform="translate(0.002145, 0.000000)" fill-rule="nonzero">
            <path d="M14.997855,9.94 C9.11785499,8.58 2.10785499,10.39 0.327854987,19.83 C-1.45214501,29.27 4.10785499,33.83 14.767855,33.94 C25.427855,34.05 36.657855,31.94 34.767855,23.5 C32.877855,15.06 26.997855,15.27 24.097855,15.72 C21.197855,16.17 19.767855,11.05 14.997855,9.94 Z" id="Path" fill="#E8F4FA"></path>
            <path d="M13.067855,1.1 L14.587855,0 C15.3855797,3.11310872 16.3605014,6.1781022 17.507855,9.18 C17.507855,9.33 17.597855,9.18 17.627855,9.18 C18.087855,8.18 18.507855,7.12 18.867855,6.06 C19.507855,4.09 19.997855,2.13 20.497855,0.17 C21.067855,0.6 21.627855,1.05 22.207855,1.46 C22.857855,1.67 23.537855,1.85 24.207855,2.05 C24.277855,5.11 24.307855,8.17 24.207855,11.23 C24.207855,12.23 24.117855,13.23 24.017855,14.16 C24.0189416,14.523544 23.8954134,14.8764818 23.667855,15.16 C23.1907425,15.6435654 22.5696762,15.9593618 21.897855,16.06 C22.057855,16.5 22.197855,16.95 22.367855,17.38 C23.0282786,18.0313436 23.5488921,18.8105625 23.897855,19.67 C24.027855,20.05 24.137855,20.44 24.257855,20.83 C24.987855,23.41 25.637855,26 26.257855,28.61 C26.737855,30.61 27.197855,32.61 27.657855,34.61 C27.6712515,34.8708776 27.6124275,35.1303954 27.487855,35.36 C27.134089,36.1649115 26.4167745,36.7521431 25.557855,36.94 C24.3092326,37.2217014 23.0430223,37.418816 21.767855,37.53 C19.257855,37.78 16.767855,37.88 14.207855,37.9 L14.147855,37.14 C12.9622546,37.4010335 11.7294498,37.3528233 10.567855,37 C9.64915002,36.6152866 8.85115083,35.9900145 8.25785499,35.19 C8.67785499,32.47 9.12785499,29.76 9.62785499,27.05 C10.037855,24.84 10.477855,22.63 11.037855,20.45 C11.3125465,19.3764982 11.9050895,18.4110015 12.737855,17.68 C12.827855,17.59 12.957855,17.53 12.997855,17.4 C13.107855,17.06 13.207855,16.72 13.317855,16.4 C12.7485288,16.390959 12.1988978,16.1901322 11.757855,15.83 C11.4362638,15.5330233 11.2277288,15.1336256 11.167855,14.7 C10.9496376,13.3762897 10.8127145,12.0404545 10.757855,10.7 C10.607855,7.88 10.607855,5.05 10.667855,2.23 C10.6674072,2.09111376 10.6876287,1.95293394 10.727855,1.82 L12.607855,1.32 C12.7729061,1.27421737 12.9286136,1.19974856 13.067855,1.1 Z" id="Path" fill="#333A4D"></path>
            <path d="M17.507855,9.18 C17.507855,9.18 14.427855,31.18 14.197855,37.87 C14.197855,37.87 17.507855,9.54 17.507855,9.18 Z" id="Path" fill="#151C32"></path>
            <path d="M13.317855,16.41 C13.317855,16.41 18.317855,17.16 21.877855,16.05 L22.347855,17.37 C22.347855,17.37 15.817855,18.25 12.997855,17.43 L13.317855,16.41 Z" id="Path" fill="#151C32"></path>
            <polyline id="Path" fill="#151C32" points="14.587855 0 12.607855 1.38 17.487855 9.54 22.197855 1.46 20.497855 0.17 17.487855 9.06"></polyline>
        </g>
    </g>
</svg>