<?xml version="1.0" encoding="UTF-8"?>
<svg width="34px" height="30px" viewBox="0 0 34 30" version="1.1" xmlns="http://www.w3.org/2000/svg" xmlns:xlink="http://www.w3.org/1999/xlink">
    <title>Untitled</title>
    <g id="Page-1" stroke="none" stroke-width="1" fill="none" fill-rule="evenodd">
        <g id="blazer" transform="translate(0.015508, 0.987759)" fill-rule="nonzero">
            <path d="M14.4244916,3.88224104 C8.77449159,2.56224104 1.98449159,4.31224104 0.304491594,13.402241 C-1.37550841,22.492241 3.98449159,26.882241 14.2044916,27.012241 C24.4244916,27.142241 35.2844916,25.062241 33.4644916,16.932241 C31.6444916,8.80224104 25.9844916,9.01224104 23.1944916,9.44224104 C20.4044916,9.87224104 18.9844916,4.95224104 14.4244916,3.88224104 Z" id="Path" fill="#E8F4FA"></path>
            <polygon id="Path" fill="#ECE0D4" points="14.8244916 28.072241 19.9344916 28.072241 17.3744916 21.282241"></polygon>
            <path d="M13.2944916,0.622241043 L9.38449159,2.12224104 C8.91831425,2.43051379 8.56682533,2.88393449 8.38449159,3.41224104 L3.88449159,13.812241 C3.76447353,14.3523204 3.76447353,14.9121617 3.88449159,15.452241 L5.78449159,23.612241 C5.86063955,23.9998793 6.19945044,24.2801303 6.59449159,24.282241 C6.71158227,24.2840738 6.82764761,24.260178 6.93449159,24.212241 L8.50449159,23.592241 L8.58449159,23.592241 L8.20449159,27.132241 C8.17127161,27.3835392 8.25194194,27.6365506 8.42449159,27.822241 C8.59530006,28.0113591 8.83970322,28.1171455 9.09449159,28.1124043 L14.8544916,28.1124043 C15.399163,28.0787188 15.8578983,27.6930563 15.9844916,27.162241 L17.3844916,21.282241 L18.7944916,27.162241 C18.9420714,27.6855915 19.4110541,28.0535003 19.9544916,28.072241 L25.7144916,28.072241 C25.9724979,28.081718 26.2211118,27.97478 26.3916729,27.7809606 C26.562234,27.5871412 26.6366949,27.3269486 26.5944916,27.072241 L26.2244916,23.532241 L26.3044916,23.532241 L27.8644916,24.152241 C27.9716242,24.1992782 28.0874912,24.2231332 28.2044916,24.222241 L28.2044916,24.222241 C28.5705921,24.2132485 28.8875341,23.9653836 28.9844916,23.612241 L30.8844916,15.452241 C30.9895113,14.9072543 30.9895113,14.3472278 30.8844916,13.802241 L25.8344916,3.41224104 C25.6813547,2.87122862 25.3223741,2.41173345 24.8344916,2.13224104 L21.6044916,0.692241043 C21.4432939,0.600609074 21.259794,0.555599662 21.0744916,0.562241043 M9.85449159,14.272241 C9.85449159,14.712241 9.78449159,15.422241 9.74449159,15.862241 L8.55449159,20.862241 L7.55449159,15.572241 C7.48596561,15.0833194 7.52348191,14.5853757 7.66449159,14.112241 L9.28449159,9.29224104 L9.85449159,14.272241 Z M26.6044916,15.552241 L25.6044916,20.842241 L24.6044916,15.912241 C24.5544916,15.472241 24.5044916,14.762241 24.4844916,14.312241 L24.8544916,9.31224104 L26.4944916,14.112241 C26.6326381,14.5790502 26.6701309,15.0698649 26.6044916,15.552241 L26.6044916,15.552241 Z" id="Shape" fill="#CBAD95"></path>
            <path d="M10.7444916,20.332241 L15.2544916,20.332241 C15.2544916,20.332241 13.8944916,20.942241 10.7444916,20.332241 Z" id="Path" fill="#FFFFFF"></path>
            <path d="M19.6344916,20.332241 L24.1344916,20.332241 C24.1344916,20.332241 22.7744916,20.942241 19.6344916,20.332241 Z" id="Path" fill="#FFFFFF"></path>
            <path d="M17.1344916,12.302241 L13.2944916,0.622241043 L13.6944916,9.69224104 C13.6944916,9.69224104 14.9844916,13.512241 17.1344916,12.302241 Z" id="Path" fill="#FFFFFF"></path>
            <path d="M17.0844916,12.292241 L21.0844916,0.572241043 L20.5444916,9.65224104 C20.5444916,9.65224104 19.1944916,13.522241 17.0844916,12.292241 Z" id="Path" fill="#FFFFFF"></path>
            <path d="M13.2944916,0.622241043 C15.8217067,-0.186432029 18.5351047,-0.207357978 21.0744916,0.562241043 L17.0744916,12.342241 L13.2944916,0.622241043 Z" id="Path" fill="#ECE0D4"></path>
            <path d="M17.0844916,12.342241 C17.0844916,12.342241 16.8144916,18.962241 17.3644916,21.282241 C17.3644916,21.282241 17.0544916,16.902241 17.0844916,12.342241 Z" id="Path" fill="#FFFFFF"></path>
            <circle id="Oval" fill="#FFFFFF" cx="17.0844916" cy="18.362241" r="1"></circle>
            <circle id="Oval" fill="#FFFFFF" cx="17.0844916" cy="16.592241" r="1"></circle>
            <circle id="Oval" fill="#FFFFFF" cx="17.0844916" cy="14.702241" r="1"></circle>
        </g>
    </g>
</svg>