<?xml version="1.0" encoding="UTF-8"?>
<svg width="35px" height="33px" viewBox="0 0 35 33" version="1.1" xmlns="http://www.w3.org/2000/svg" xmlns:xlink="http://www.w3.org/1999/xlink">
    <title>Untitled 60</title>
    <g id="Page-1" stroke="none" stroke-width="1" fill="none" fill-rule="evenodd">
        <g id="abrigo" transform="translate(0.999281, 0.996227)" fill-rule="nonzero">
            <path d="M14.290719,0.383772737 C8.70071902,-0.916227263 2.00071902,0.813772737 0.310719016,9.81377274 C-1.37928098,18.8137727 3.91071902,23.1537727 14.080719,23.2637727 C24.250719,23.3737727 34.940719,21.3537727 33.140719,13.2637727 C31.340719,5.17377274 25.730719,5.47377274 23.000719,5.89377274 C20.270719,6.31377274 18.840719,1.44377274 14.290719,0.383772737 Z" id="Path" fill="#E8F4FA"></path>
            <path d="M28.380719,18.0037727 C28.7594705,17.8628467 28.9584644,17.4471707 28.830719,17.0637727 L24.290719,3.66377274 C24.1535623,3.27570966 23.7324106,3.06735044 23.340719,3.19377274 L21.340719,11.1037727 L24.000719,18.7937727 C24.0680894,18.9905641 24.2131732,19.151143 24.4021427,19.238069 C24.5911123,19.324995 24.8074515,19.3306707 25.000719,19.2537727 L28.380719,18.0037727 Z" id="Path" fill="#CBAD95"></path>
            <path d="M8.84071902,3.19377274 C8.64636041,3.11417332 8.42753045,3.11971633 8.23745104,3.20905364 C8.04737164,3.29839096 7.90346071,3.46333617 7.84071902,3.66377274 L3.35071902,17.0637727 C3.22297365,17.4471707 3.42196751,17.8628467 3.80071902,18.0037727 L7.23071902,19.2537727 C7.4237518,19.3337493 7.64139701,19.3295752 7.83122132,19.242256 C8.02104562,19.1549368 8.16583901,18.9923892 8.23071902,18.7937727 L10.850719,11.1037727 L8.84071902,3.19377274 Z" id="Path" fill="#CBAD95"></path>
            <path d="M24.250719,4.24377274 L22.830719,7.07377274 L22.830719,13.6437727 L21.750719,14.5737727 L22.830719,15.1337727 L22.830719,30.3737727 C22.830719,30.7879863 22.4949326,31.1238413 22.080719,31.1238413 L10.080719,31.1238413 C9.88098586,31.1264906 9.68863724,31.048346 9.5473915,30.9071003 C9.40614576,30.7658545 9.32800118,30.5735059 9.33071902,30.3737727 L9.33071902,15.1337727 L10.060719,14.3837727 L9.33071902,13.6437727 L9.33071902,7.07377274 L7.93071902,4.24377274 C7.78081271,3.95456835 7.83765255,3.60134932 8.07071902,3.37377274 L9.57071902,1.87377274 L22.570719,1.87377274 L24.070719,3.37377274 C24.2924173,3.60711092 24.3480236,3.95266397 24.210719,4.24377274 L24.250719,4.24377274 Z" id="Path" fill="#CBAD95"></path>
            <path d="M24.250719,4.24377274 L22.830719,7.07377274 L22.830719,13.6437727 L21.750719,14.5737727 L22.830719,15.1337727 L22.830719,23.3737727 C22.830719,23.7879863 22.4949326,24.1237727 22.080719,24.1237727 L16.080719,24.1237727 L16.080719,1.87377274 L22.600719,1.87377274 L24.100719,3.37377274 C24.3224173,3.60711092 24.3780236,3.95266397 24.240719,4.24377274 L24.250719,4.24377274 Z" id="Path" fill="#CBAD95"></path>
            <path d="M19.420719,0.233772737 L16.090719,8.14377274 L12.740719,0.243772737 L12.740719,0.243772737 C12.8439762,0.195682719 12.9568306,0.1717439 13.070719,0.173772737 L19.070719,0.173772737 C19.1878097,0.171940019 19.303875,0.195835823 19.410719,0.243772737 L19.420719,0.233772737 Z" id="Path" fill="#CBAD95"></path>
            <path d="M19.650719,7.36377274 C19.8666868,7.25684482 20.0181176,7.05265219 20.0577359,6.81494221 C20.0973542,6.57723224 20.0203335,6.33496436 19.850719,6.16377274 L19.080719,5.40377274 L22.610719,1.87377274 C22.5500203,1.81911297 22.4828533,1.77209602 22.410719,1.73377274 L19.410719,0.233772737 L14.590719,9.89377274 L19.650719,7.36377274 Z" id="Path" fill="#ECE0D4"></path>
            <path d="M12.330719,6.16377274 C12.1603725,6.33355268 12.0817813,6.57472748 12.1193929,6.81227437 C12.1570045,7.04982126 12.3062558,7.25492099 12.520719,7.36377274 L15.190719,8.69377274 L16.190719,6.69377274 L12.740719,0.243772737 L9.74071902,1.73377274 C9.67175556,1.77227187 9.60791921,1.81930918 9.55071902,1.87377274 L13.090719,5.40377274 L12.330719,6.16377274 Z" id="Path" fill="#ECE0D4"></path>
            <circle id="Oval" fill="#ECE0D4" cx="14.490719" cy="13.0037727" r="1"></circle>
            <circle id="Oval" fill="#ECE0D4" cx="14.490719" cy="18.9937727" r="1"></circle>
            <circle id="Oval" fill="#ECE0D4" cx="14.490719" cy="16.1037727" r="1"></circle>
            <path d="M14.590719,9.89377274 C14.590719,9.89377274 14.430719,23.0137727 15.330719,31.1237727 C15.330719,31.1237727 14.150719,13.3637727 14.590719,9.89377274 Z" id="Path" fill="#ECE0D4"></path>
            <path d="M10.080719,14.3837727 C10.080719,14.3837727 12.690719,15.6337727 21.750719,14.5737727 C21.750719,14.5737727 12.310719,15.3337727 10.080719,14.3837727 Z" id="Path" fill="#ECE0D4"></path>
        </g>
    </g>
</svg>