<?xml version="1.0" encoding="UTF-8"?>
<svg width="33px" height="27px" viewBox="0 0 33 27" version="1.1" xmlns="http://www.w3.org/2000/svg" xmlns:xlink="http://www.w3.org/1999/xlink">
    <title>Untitled 9</title>
    <g id="Page-1" stroke="none" stroke-width="1" fill="none" fill-rule="evenodd">
        <g id="cortina" transform="translate(0.994912, 0.000000)" fill-rule="nonzero">
            <path d="M13.4350881,3.36 C8.17508807,2.14 1.89508807,3.76 0.295088069,12.22 C-1.30491193,20.68 3.68508807,24.76 13.2350881,24.86 C22.7850881,24.96 32.8450881,23.07 31.1550881,15.51 C29.4650881,7.95 24.1550881,8.14 21.6050881,8.51 C19.0550881,8.88 17.7150881,4.36 13.4350881,3.36 Z" id="Path" fill="#E8F4FA"></path>
            <path d="M9.00508807,1 L11.8450881,1 L11.8450881,25.11 C11.9083514,25.9595348 11.2741683,26.7009037 10.4250881,26.77 C9.5760078,26.7009037 8.94182475,25.9595348 9.00508807,25.11 L9.00508807,1 Z" id="Path" fill="#11B0DE"></path>
            <path d="M11.8150881,1 L14.6550881,1 L14.6550881,25.11 C14.7183514,25.9595348 14.0841683,26.7009037 13.2350881,26.77 C12.3860078,26.7009037 11.7518248,25.9595348 11.8150881,25.11 L11.8150881,1 Z" id="Path" fill="#A5D8EE"></path>
            <path d="M14.6550881,1 L17.4950881,1 L17.4950881,25.11 C17.5583514,25.9595348 16.9241683,26.7009037 16.0750881,26.77 C15.2260078,26.7009037 14.5918248,25.9595348 14.6550881,25.11 L14.6550881,1 Z" id="Path" fill="#11B0DE"></path>
            <path d="M17.4950881,1 L20.3350881,1 L20.3350881,25.11 C20.3983514,25.9595348 19.7641683,26.7009037 18.9150881,26.77 C18.0660078,26.7009037 17.4318248,25.9595348 17.4950881,25.11 L17.4950881,1 Z" id="Path" fill="#A5D8EE"></path>
            <path d="M20.3350881,1 L23.1750881,1 L23.1750881,25.11 C23.2383514,25.9595348 22.6041683,26.7009037 21.7550881,26.77 C20.9060078,26.7009037 20.2718248,25.9595348 20.3350881,25.11 L20.3350881,1 Z" id="Path" fill="#11B0DE"></path>
            <path d="M25.2250881,0 C24.8902939,0.00946067423 24.5824662,0.185898479 24.4050881,0.47 L7.70508807,0.47 C7.43526995,0.120377177 6.96010332,0.0027999537 6.55837858,0.186253395 C6.15665384,0.369706836 5.93433025,0.8058031 6.02184981,1.23867521 C6.10936938,1.67154731 6.48364785,1.98702053 6.92508807,2 C7.28862031,1.98977207 7.61794092,1.78298936 7.78508807,1.46 L24.4050881,1.46 C24.5824662,1.74410152 24.8902939,1.92053933 25.2250881,1.93 C25.5859153,1.96716697 25.9364137,1.79561633 26.1284217,1.48786544 C26.3204297,1.18011456 26.3204297,0.789885445 26.1284217,0.482134559 C25.9364137,0.174383674 25.5859153,0.00283303446 25.2250881,0.04 L25.2250881,0 Z" id="Path" fill="#11B0DE"></path>
        </g>
    </g>
</svg>