<?xml version="1.0" encoding="UTF-8"?>
<svg width="33px" height="25px" viewBox="0 0 33 25" version="1.1" xmlns="http://www.w3.org/2000/svg" xmlns:xlink="http://www.w3.org/1999/xlink">
    <title>Untitled 22</title>
    <g id="Page-1" stroke="none" stroke-width="1" fill="none" fill-rule="evenodd">
        <g id="c" transform="translate(0.994912, 0.002851)" fill-rule="nonzero">
            <path d="M13.4350881,1.35714883 C8.17508807,0.137148834 1.89508807,1.75714883 0.295088069,10.2171488 C-1.30491193,18.6771488 3.68508807,22.7571488 13.2350881,22.8571488 C22.7850881,22.9571488 32.8450881,21.0671488 31.1550881,13.5071488 C29.4650881,5.94714883 24.1550881,6.13714883 21.6050881,6.50714883 C19.0550881,6.87714883 17.7150881,2.35714883 13.4350881,1.35714883 Z" id="Path" fill="#E8F4FA"></path>
            <path d="M26.5650881,18.3771488 C26.4950881,13.7071488 22.5650881,9.66714883 21.2050881,5.22714883 C22.0450881,4.67714883 24.2050881,3.06714883 21.8450881,2.09714883 C21.8450881,2.09714883 4.30508807,-1.69285117 2.41508807,0.917148834 L2.41508807,3.75714883 C2.41508807,3.75714883 -1.58491193,8.75714883 15.8950881,5.65714883 C15.2050881,11.5171488 17.5450881,18.9071488 17.8150881,24.2671488 C19.9150881,24.5271488 22.0250881,24.0071488 24.1150881,24.1071488 C23.5316109,22.4866759 23.1128308,20.8115554 22.8650881,19.1071488 C24.0631223,18.7103534 25.3061222,18.4651129 26.5650881,18.3771488 Z" id="Path" fill="#C5E5F3"></path>
            <path d="M15.8950881,5.65714883 L22.8950881,19.1371488 C22.8950881,19.1371488 18.7750881,9.24714883 15.8950881,5.65714883 Z" id="Path" fill="#FEFEFE"></path>
            <circle id="Oval" fill="#A5D8EE" cx="17.3350881" cy="12.0771488" r="1"></circle>
            <circle id="Oval" fill="#A5D8EE" cx="20.0350881" cy="16.5971488" r="1"></circle>
            <circle id="Oval" fill="#A5D8EE" cx="17.7650881" cy="14.8271488" r="1"></circle>
            <circle id="Oval" fill="#A5D8EE" cx="19.6950881" cy="20.3171488" r="1"></circle>
            <circle id="Oval" fill="#A5D8EE" cx="22.1350881" cy="22.5471488" r="1"></circle>
            <path d="M15.8950881,5.65714883 L21.2050881,5.22714883 C19.4765967,5.69583221 17.6764702,5.84160516 15.8950881,5.65714883 L15.8950881,5.65714883 Z" id="Path" fill="#FEFEFE"></path>
            <circle id="Oval" fill="#A5D8EE" cx="17.7650881" cy="6.68714883" r="1"></circle>
            <circle id="Oval" fill="#A5D8EE" cx="20.9450881" cy="8.94714883" r="1"></circle>
            <circle id="Oval" fill="#A5D8EE" cx="21.1350881" cy="11.8371488" r="1"></circle>
            <circle id="Oval" fill="#A5D8EE" cx="24.4650881" cy="14.6171488" r="1"></circle>
            <circle id="Oval" fill="#A5D8EE" cx="23.4250881" cy="16.9371488" r="1"></circle>
            <path d="M2.41508807,3.75714883 C2.41508807,3.75714883 17.5550881,3.75714883 22.8650881,3.46714883 C16.0610418,3.98804045 9.2311688,4.08489439 2.41508807,3.75714883 L2.41508807,3.75714883 Z" id="Path" fill="#FEFEFE"></path>
        </g>
    </g>
</svg>