<?xml version="1.0" encoding="UTF-8"?>
<svg width="35px" height="28px" viewBox="0 0 35 28" version="1.1" xmlns="http://www.w3.org/2000/svg" xmlns:xlink="http://www.w3.org/1999/xlink">
    <title>Untitled 6</title>
    <g id="Page-1" stroke="none" stroke-width="1" fill="none" fill-rule="evenodd">
        <g id="chaqueta" transform="translate(0.999281, 0.000000)" fill-rule="nonzero">
            <path d="M14.290719,2.64 C8.70071902,1.34 2.00071902,3.06 0.310719016,12.06 C-1.37928098,21.06 3.91071902,25.41 14.080719,25.51 C24.250719,25.61 34.940719,23.61 33.140719,15.51 C31.340719,7.41 25.730719,7.72 23.000719,8.15 C20.270719,8.58 18.840719,3.7 14.290719,2.64 Z" id="Path" fill="#E8F4FA"></path>
            <path d="M26.240719,25.49 L4.43071902,25.49 C3.82872866,25.49 3.34071908,25.0019904 3.34071908,24.4 C3.34071908,23.7980096 3.82872866,23.31 4.43071902,23.31 L15.330719,22 L26.240719,23.27 C26.8427094,23.27 27.330719,23.7580096 27.330719,24.36 C27.330719,24.9619904 26.8427094,25.45 26.240719,25.45 L26.240719,25.49 Z" id="Path" fill="#151C32"></path>
            <path d="M5.46071902,6 C4.08297477,7.98527582 3.34341462,10.3434959 3.34071902,12.76 L3.34071902,22.19 C3.34071902,22.7919904 3.82872864,23.28 4.43071902,23.28 L26.240719,23.28 C26.8427094,23.28 27.3307308,22.7919904 27.3307308,22.19 L27.3307308,12.79 C27.3341388,10.3632626 26.5942995,7.9936828 25.210719,6 L5.46071902,6 Z" id="Path" fill="#484E5F"></path>
            <path d="M21.880719,27.67 L8.79071902,27.67 C8.18872864,27.67 7.70071902,27.1819904 7.70071902,26.58 C7.70071902,25.9780096 8.18872864,25.49 8.79071902,25.49 L15.330719,24.4 L21.880719,25.49 C22.4827094,25.49 22.970719,25.9780096 22.970719,26.58 C22.970719,27.1819904 22.4827094,27.67 21.880719,27.67 Z" id="Path" fill="#151C32"></path>
            <path d="M25.210719,6 C24.0786301,4.37832815 22.5592828,3.06522712 20.790719,2.18 L9.88071902,2.18 C8.11215522,3.06522712 6.59280795,4.37832815 5.46071902,6 C6.85445612,6.77300647 7.71387931,8.24630338 7.70071902,9.84 L7.70071902,24.4 C7.70071902,25.0019904 8.18872864,25.49 8.79071902,25.49 L21.880719,25.49 C22.1749672,25.4981017 22.459983,25.3868493 22.6709328,25.18155 C22.8818826,24.9762506 23.0008305,24.6943597 23.000719,24.4 L23.000719,9.84 C22.9815166,8.25263248 23.8285565,6.78085283 25.210719,6 Z" id="Path" fill="#484E5F"></path>
            <polygon id="Path" fill="#151C32" points="14.240719 2.21 16.420719 2.21 16.420719 25.49 14.240719 25.49"></polygon>
            <path d="M9.43071902,20.68 L13.760719,19 L13.760719,17.58 C13.760719,17.3625225 13.6743264,17.1539523 13.5205466,17.0001724 C13.3667667,16.8463926 13.1581965,16.76 12.940719,16.76 L9.12071902,16.76 C8.66784552,16.76 8.30071902,17.1271265 8.30071902,17.58 L8.30071902,19.92 C8.30524535,20.1913813 8.4421741,20.4434043 8.66739323,20.5948791 C8.89261236,20.7463539 9.17766444,20.778141 9.43071902,20.68 Z" id="Path" fill="#151C32"></path>
            <path d="M21.350719,20.68 L17.000719,19 L17.000719,17.58 C17.000719,17.1271265 17.3678455,16.76 17.820719,16.76 L21.630719,16.76 C22.0835925,16.76 22.450719,17.1271265 22.450719,17.58 L22.450719,19.92 C22.4496796,20.1906733 22.3151335,20.4433966 22.0911562,20.5953812 C21.867179,20.7473657 21.5826283,20.7790295 21.330719,20.68 L21.350719,20.68 Z" id="Path" fill="#151C32"></path>
            <path d="M9.88071902,2.21 C13.0547606,4.80415734 17.6166774,4.80415734 20.790719,2.21 L20.170719,2.21" id="Path" fill="#151C32"></path>
            <ellipse id="Oval" fill="#151C32" cx="15.330719" cy="2.21" rx="5.45" ry="2.21"></ellipse>
            <ellipse id="Oval" fill="#484E5F" cx="15.330719" cy="2.09" rx="2.73" ry="1.1"></ellipse>
            <path d="M7.70071902,23.31 C7.70071902,23.31 7.47071902,12.13 8.30071902,10.58 C8.30071902,10.58 7.70071902,20 7.70071902,23.31 Z" id="Path" fill="#151C32"></path>
            <path d="M22.940719,23.31 C22.940719,23.31 23.170719,12.13 22.330719,10.58 C22.330719,10.58 22.940719,20 22.940719,23.31 Z" id="Path" fill="#151C32"></path>
        </g>
    </g>
</svg>