<?xml version="1.0" encoding="UTF-8"?>
<svg width="33px" height="25px" viewBox="0 0 33 25" version="1.1" xmlns="http://www.w3.org/2000/svg" xmlns:xlink="http://www.w3.org/1999/xlink">
    <title>Untitled 12</title>
    <g id="Page-1" stroke="none" stroke-width="1" fill="none" fill-rule="evenodd">
        <g id="cubrecolchon" transform="translate(0.994912, 0.999605)" fill-rule="nonzero">
            <path d="M13.4350881,0.360394701 C8.17508807,-0.859605299 1.89508807,0.760394701 0.295088069,9.2203947 C-1.30491193,17.6803947 3.68508807,21.7603947 13.2350881,21.8603947 C22.7850881,21.9603947 32.8450881,20.0703947 31.1550881,12.5103947 C29.4650881,4.9503947 24.1550881,5.1403947 21.6050881,5.5103947 C19.0550881,5.8803947 17.7150881,1.3603947 13.4350881,0.360394701 Z" id="Path" fill="#E8F4FA"></path>
            <polygon id="Path" fill="#A5D8EE" points="26.5550881 23.8903947 25.3250881 23.8903947 25.3250881 20.7403947 26.5550881 21.3503947"></polygon>
            <polygon id="Path" fill="#A5D8EE" points="22.8750881 20.7403947 24.1050881 20.7403947 24.1050881 23.8903947 22.8750881 23.8903947"></polygon>
            <polygon id="Path" fill="#A5D8EE" points="19.2050881 20.7403947 18.2050881 20.7403947 18.6150881 23.8903947 19.2350881 23.8903947"></polygon>
            <polygon id="Path" fill="#A5D8EE" points="18.0050881 20.7403947 18.6150881 20.7403947 18.6150881 23.8903947 18.0050881 23.8903947"></polygon>
            <polygon id="Path" fill="#A5D8EE" points="20.4250881 20.7403947 21.6550881 20.7403947 21.6550881 23.8903947 20.4250881 23.8903947"></polygon>
            <polygon id="Path" fill="#A5D8EE" points="15.5250881 20.7403947 16.7450881 20.7403947 16.7450881 23.8903947 15.5250881 23.8903947"></polygon>
            <polygon id="Path" fill="#A5D8EE" points="11.8450881 23.8903947 10.6150881 23.8903947 10.6150881 21.3503947 11.8450881 20.7403947"></polygon>
            <polygon id="Path" fill="#A5D8EE" points="13.0750881 20.7403947 14.2950881 20.7403947 14.2950881 23.8903947 13.0750881 23.8903947"></polygon>
            <polygon id="Path" fill="#A5D8EE" points="19.2050881 16.0003947 21.0050881 21.3503947 26.5250881 21.3503947 26.5250881 17.6803947"></polygon>
            <path d="M26.5550881,5.4203947 C26.5333217,4.08130341 25.4443459,3.00566199 24.1050881,3.0003947 L19.2050881,3.0003947 L19.2050881,9.5003947 L26.5550881,7.8703947 L26.5550881,5.4203947 Z" id="Path" fill="#11B0DE"></path>
            <polygon id="Path" fill="#11B0DE" points="19.2050881 11.1403947 19.2050881 17.6803947 26.5550881 17.6803947 26.5550881 12.7703947"></polygon>
            <polygon id="Path" fill="#A5D8EE" points="19.2050881 7.8703947 26.5550881 7.8703947 26.5550881 12.7703947 19.2050881 12.7703947"></polygon>
            <polygon id="Path" fill="#11B0DE" points="21.6550881 17.6803947 17.3650881 16.0003947 18.5850881 21.3103947 21.6550881 21.3103947"></polygon>
            <polygon id="Path" fill="#A5D8EE" points="13.0750881 16.0003947 15.5250881 21.3103947 18.5850881 21.3103947 18.5850881 16.0003947"></polygon>
            <path d="M21.6550881,5.4203947 C21.6333217,4.08130341 20.5443459,3.00566199 19.2050881,3.0003947 L18.5850881,3.0003947 L17.7650881,9.5003947 L21.6550881,7.8703947 L21.6550881,5.4203947 Z" id="Path" fill="#A5D8EE"></path>
            <polygon id="Path" fill="#11B0DE" points="13.0750881 3.0003947 18.5850881 3.0003947 18.5850881 9.5003947 13.0750881 9.5003947"></polygon>
            <polygon id="Path" fill="#A5D8EE" points="21.6550881 12.7703947 17.3650881 11.1403947 18.5850881 17.6803947 21.6550881 17.6803947"></polygon>
            <polygon id="Path" fill="#11B0DE" points="13.0750881 11.1403947 18.5850881 11.1403947 18.5850881 17.6803947 13.0750881 17.6803947"></polygon>
            <polygon id="Path" fill="#11B0DE" points="21.6550881 7.8703947 18.5850881 7.8703947 17.3650881 10.3203947 18.5850881 12.7703947 21.6550881 12.7703947"></polygon>
            <polygon id="Path" fill="#A5D8EE" points="13.0750881 7.8703947 18.5850881 7.8703947 18.5850881 12.7703947 13.0750881 12.7703947"></polygon>
            <polygon id="Path" fill="#11B0DE" points="10.6150881 17.6803947 10.6150881 21.3503947 15.5250881 21.3503947 15.5250881 17.6803947 13.0750881 16.4503947"></polygon>
            <polygon id="Path" fill="#A5D8EE" points="13.0750881 11.5503947 10.6150881 12.7703947 10.6150881 17.6803947 15.5250881 17.6803947 15.5250881 12.7703947"></polygon>
            <polygon id="Path" fill="#11B0DE" points="13.0750881 6.6403947 10.2450881 7.8703947 10.6150881 12.7703947 15.5250881 12.7703947 15.5250881 7.8703947"></polygon>
            <path d="M15.5250881,5.4203947 C15.5033217,4.08130341 14.4143459,3.00566199 13.0750881,3.0003947 L8.16508807,3.0003947 L10.6150881,5.4603947 L10.6150881,7.8703947 L15.5250881,7.8703947 L15.5250881,5.4203947 Z" id="Path" fill="#A5D8EE"></path>
            <polygon id="Path" fill="#A5D8EE" points="6.94508807 22.6603947 5.71508807 22.6603947 5.71508807 20.1303947 6.94508807 19.5103947"></polygon>
            <polygon id="Path" fill="#A5D8EE" points="8.16508807 19.5103947 9.39508807 19.5103947 9.39508807 22.6603947 8.16508807 22.6603947"></polygon>
            <polygon id="Path" fill="#A5D8EE" points="5.71508807 16.4503947 5.71508807 20.1303947 10.6150881 20.1303947 10.6150881 16.4503947 8.16508807 15.2203947"></polygon>
            <path d="M10.6150881,5.4203947 C10.6150881,4.54509399 10.1481207,3.73628278 9.39008808,3.29863242 C8.63205544,2.86098206 7.6981207,2.86098206 6.94008805,3.29863242 C6.18205541,3.73628278 5.71508807,4.54509399 5.71508807,5.4203947 L5.71508807,16.4203947 L10.6150881,16.4203947 L10.6150881,5.4203947 Z" id="Path" fill="#A5D8EE"></path>
            <path d="M10.6150881,20.1303947 C10.6150881,20.1303947 12.0950881,4.6503947 8.77508807,3.3103947 C8.77508807,3.3103947 11.0550881,4.0003947 10.6150881,20.1303947 Z" id="Path" fill="#11B0DE"></path>
        </g>
    </g>
</svg>