<?xml version="1.0" encoding="UTF-8"?>
<svg width="39px" height="35px" viewBox="0 0 39 35" version="1.1" xmlns="http://www.w3.org/2000/svg" xmlns:xlink="http://www.w3.org/1999/xlink">
    <title>Untitled 21</title>
    <g id="Page-1" stroke="none" stroke-width="1" fill="none" fill-rule="evenodd">
        <g id="pantalon" transform="translate(0.001308, 0.000000)" fill-rule="nonzero">
            <path d="M16.4886918,5.77 C9.9986918,4.27 2.3086918,6.26 0.358691803,16.64 C-1.5913082,27.02 4.5086918,32 16.2386918,32.16 C27.9686918,32.32 40.3086918,29.96 38.2386918,20.67 C36.1686918,11.38 29.6886918,11.67 26.5086918,12.12 C23.3286918,12.57 21.7386918,7 16.4886918,5.77 Z" id="Path" fill="#E8F4FA"></path>
            <path d="M12.5786918,0.17 L20.2686918,1.17 L20.2686918,10.36 L19.5386918,33.44 C19.5386918,33.44 16.9386918,34.84 12.3986918,33.44 C12.3986918,33.44 11.6686918,4.3 12.5786918,0.17 Z" id="Path" fill="#DBC5AF"></path>
            <path d="M12.5786918,0.17 C12.4844557,0.611396459 12.4242785,1.05938199 12.3986918,1.51 L20.3986918,2.51 L20.2786918,1.14 L12.5786918,0.17 Z" id="Path" fill="#ECE0D4"></path>
            <polygon id="Path" fill="#CBAD95" points="15.6786918 0.58 16.4186918 0.67 16.4586918 2.21 15.6786918 2.11"></polygon>
            <path d="M27.9986918,0.17 L20.3186918,1.17 L20.3186918,10.36 L21.4086918,33.44 C21.4086918,33.44 23.6386918,34.84 28.1786918,33.44 C28.1286918,33.44 28.8586918,4.3 27.9986918,0.17 Z" id="Path" fill="#DBC5AF"></path>
            <path d="M20.2686918,0 C18.7386918,0 12.5786918,0.17 12.5786918,0.17 L20.2686918,1.17 L27.9986918,0.17 C27.9986918,0.17 21.7886918,0 20.2686918,0 Z" id="Path" fill="#CBAD95"></path>
            <path d="M20.1986918,1.19 L21.6286918,1.07 C21.6286918,1.07 21.6286918,6.13 21.6286918,6.87 C21.334905,7.32913231 20.8996423,7.68015067 20.3886918,7.87 L20.1986918,1.19 Z" id="Path" fill="#ECE0D4"></path>
            <path d="M27.9986918,0.17 C27.9986918,0.17 28.1086918,0.96 28.1786918,1.52 C28.1786918,1.52 22.0486918,2.85 18.6986918,2.3 L18.6986918,1 C21.8141878,0.939322231 24.9216889,0.661986113 27.9986918,0.17 L27.9986918,0.17 Z" id="Path" fill="#ECE0D4"></path>
            <polygon id="Path" fill="#CBAD95" points="24.8486918 0.58 24.1086918 0.67 24.1086918 2.38 24.8486918 2.27"></polygon>
        </g>
    </g>
</svg>