<?xml version="1.0" encoding="UTF-8"?>
<svg width="39px" height="35px" viewBox="0 0 39 35" version="1.1" xmlns="http://www.w3.org/2000/svg" xmlns:xlink="http://www.w3.org/1999/xlink">
    <title>Untitled 22</title>
    <g id="Page-1" stroke="none" stroke-width="1" fill="none" fill-rule="evenodd">
        <g id="pantalonfalda" transform="translate(0.001308, 0.000000)" fill-rule="nonzero">
            <path d="M16.4886918,4.91 C9.9986918,3.4 2.3086918,5.39 0.358691803,15.78 C-1.5913082,26.17 4.5086918,31.17 16.2386918,31.29 C27.9686918,31.41 40.3086918,29.09 38.2386918,19.81 C36.1686918,10.53 29.6886918,10.81 26.5086918,11.26 C23.3286918,11.71 21.7386918,6.13 16.4886918,4.91 Z" id="Path" fill="#E8F4FA"></path>
            <path d="M13.6186918,0.17 L21.2986918,1.17 L21.2986918,10.36 L19.5786918,33.44 C19.5786918,33.44 18.9786918,34.84 14.4286918,33.44 C14.4286918,33.44 12.7086918,4.3 13.6186918,0.17 Z" id="Path" fill="#A5D8EE"></path>
            <path d="M13.6186918,0.17 C13.5187215,0.610701013 13.4551739,1.05887902 13.4286918,1.51 L21.4286918,2.51 L21.2986918,1.17 L13.6186918,0.17 Z" id="Path" fill="#11B0DE"></path>
            <polygon id="Path" fill="#FFFFFF" points="16.7086918 0.58 17.4586918 0.67 17.4886918 2.21 16.7086918 2.11"></polygon>
            <path d="M28.9986918,0.17 L21.3186918,1.17 L21.3186918,10.36 L23.4086918,33.44 C23.4086918,33.44 23.6386918,34.84 28.1886918,33.44 C28.1686918,33.44 29.8886918,4.3 28.9986918,0.17 Z" id="Path" fill="#A5D8EE"></path>
            <path d="M21.2986918,0 C19.7686918,0 13.6186918,0.17 13.6186918,0.17 L21.2986918,1.17 L28.9986918,0.17 C28.9986918,0.17 22.8286918,0 21.2986918,0 Z" id="Path" fill="#A5D8EE"></path>
            <path d="M21.2286918,1.19 L22.6586918,1.07 C22.6586918,1.07 22.6586918,6.13 22.6586918,6.87 C22.3677121,7.33163923 21.9314976,7.68342512 21.4186918,7.87 L21.2286918,1.19 Z" id="Path" fill="#11B0DE"></path>
            <path d="M28.9986918,0.17 C28.9986918,0.17 29.1186918,0.96 29.1786918,1.52 C29.1786918,1.52 23.0586918,2.85 19.7086918,2.3 L19.7086918,0.97 C22.8201479,0.918786378 25.9242874,0.651476199 28.9986918,0.17 L28.9986918,0.17 Z" id="Path" fill="#11B0DE"></path>
            <polygon id="Path" fill="#FFFFFF" points="25.8886918 0.58 25.1386918 0.67 25.1386918 2.38 25.8886918 2.27"></polygon>
            <path d="M13.2786918,5.49 C14.2530049,5.59000127 15.2265072,5.29314082 15.9792358,4.66649425 C16.7319644,4.03984768 17.2003972,3.1362972 17.2786918,2.16 C16.6737066,3.93116832 15.1301906,5.21614539 13.2786918,5.49 L13.2786918,5.49 Z" id="Path" fill="#11B0DE"></path>
            <path d="M29.3186918,5.49 C27.3963092,5.68787174 25.6574915,4.34083826 25.3686918,2.43 C26.0088405,4.10891694 27.533072,5.28971398 29.3186918,5.49 Z" id="Path" fill="#11B0DE"></path>
        </g>
    </g>
</svg>