<?xml version="1.0" encoding="UTF-8"?>
<svg width="39px" height="35px" viewBox="0 0 39 35" version="1.1" xmlns="http://www.w3.org/2000/svg" xmlns:xlink="http://www.w3.org/1999/xlink">
    <title>Untitled 22</title>
    <g id="Page-1" stroke="none" stroke-width="1" fill="none" fill-rule="evenodd">
        <g id="pantalonlino" transform="translate(0.001308, 0.000000)" fill-rule="nonzero">
            <path d="M16.4886918,3.34 C9.9986918,1.84 2.3086918,3.82 0.358691803,14.21 C-1.5913082,24.6 4.5086918,29.6 16.2386918,29.72 C27.9686918,29.84 40.3086918,27.52 38.2386918,18.24 C36.1686918,8.96 29.6886918,9.24 26.5086918,9.69 C23.3286918,10.14 21.7386918,4.56 16.4886918,3.34 Z" id="Path" fill="#E8F4FA"></path>
            <path d="M13.6186918,0.17 L21.2986918,1.17 L21.2986918,10.36 L20.5786918,33.44 C20.5786918,33.44 13.8686918,34.84 9.3186918,33.44 C9.3186918,33.44 12.7086918,4.3 13.6186918,0.17 Z" id="Path" fill="#C5E5F3"></path>
            <path d="M13.6186918,0.17 C13.5187215,0.610701013 13.4551739,1.05887902 13.4286918,1.51 L21.4286918,2.51 L21.2986918,1.17 L13.6186918,0.17 Z" id="Path" fill="#11B0DE"></path>
            <polygon id="Path" fill="#FFFFFF" points="16.7086918 0.58 17.4586918 0.67 17.4886918 2.21 16.7086918 2.11"></polygon>
            <path d="M28.9986918,0.17 L21.3186918,1.17 L21.3186918,10.36 L22.4086918,33.44 C22.4086918,33.44 29.1486918,34.13 33.6986918,32.73 C33.6786918,32.73 29.8886918,4.3 28.9986918,0.17 Z" id="Path" fill="#C5E5F3"></path>
            <path d="M21.2986918,0 C19.7686918,0 13.6186918,0.17 13.6186918,0.17 L21.2986918,1.17 L28.9986918,0.17 C28.9986918,0.17 22.8286918,0 21.2986918,0 Z" id="Path" fill="#A5D8EE"></path>
            <path d="M21.2286918,1.19 L22.6586918,1.07 C22.6586918,1.07 22.6586918,6.13 22.6586918,6.87 C22.3677121,7.33163923 21.9314976,7.68342512 21.4186918,7.87 L21.2286918,1.19 Z" id="Path" fill="#11B0DE"></path>
            <path d="M28.9986918,0.17 C28.9986918,0.17 29.1186918,0.96 29.1786918,1.52 C29.1786918,1.52 23.0586918,2.85 19.7086918,2.3 L19.7086918,0.97 C22.8201479,0.918786378 25.9242874,0.651476199 28.9986918,0.17 L28.9986918,0.17 Z" id="Path" fill="#11B0DE"></path>
            <polygon id="Path" fill="#FFFFFF" points="25.8886918 0.58 25.1386918 0.67 25.1386918 2.38 25.8886918 2.27"></polygon>
        </g>
    </g>
</svg>