<?xml version="1.0" encoding="UTF-8"?>
<svg width="33px" height="27px" viewBox="0 0 33 27" version="1.1" xmlns="http://www.w3.org/2000/svg" xmlns:xlink="http://www.w3.org/1999/xlink">
    <title>Untitled 2</title>
    <g id="Page-1" stroke="none" stroke-width="1" fill="none" fill-rule="evenodd">
        <g id="bufanda" transform="translate(0.994912, 0.997357)" fill-rule="nonzero">
            <path d="M13.4350881,0.482642865 C8.17508807,-0.747357135 1.89508807,0.882642865 0.295088069,9.34264287 C-1.30491193,17.8026429 3.68508807,21.8826429 13.2350881,22.0026429 C22.7850881,22.1226429 32.8450881,20.2126429 31.1550881,12.6426429 C29.4650881,5.07264287 24.1550881,5.28264287 21.6050881,5.64264287 C19.0550881,6.00264287 17.7150881,1.47264287 13.4350881,0.482642865 Z" id="Path" fill="#E8F4FA"></path>
            <path d="M24.8650881,19.4726429 C24.4050881,18.9726429 22.4350881,16.7826429 19.8650881,13.9226429 L21.7950881,11.7826429 C21.9502324,11.6095412 22.0357361,11.385094 22.0350881,11.1526429 L22.0350881,0.922642865 C22.03305,0.665111415 21.9243111,0.419955486 21.7347798,0.245586675 C21.5452484,0.071217865 21.2918964,-0.0167498936 21.0350881,0.00264286539 L6.92508807,0.00264286539 C6.67843221,0.00528081808 6.4429283,0.105801729 6.27039178,0.282089049 C6.09785525,0.458376369 6.0024216,0.695987312 6.00503366,0.942642865 L6.00503366,11.1526429 C6.00444006,11.385094 6.08994375,11.6095412 6.24508807,11.7826429 C16.8450881,23.5526429 18.2450881,25.1426429 18.4350881,25.3026429 C18.6001705,25.4880928 18.8325532,25.5998336 19.0804868,25.6129816 C19.3284203,25.6261296 19.5713177,25.5395931 19.7550881,25.3726429 C20.1360903,25.0261151 20.1673035,24.4375231 19.8250881,24.0526429 L18.5850881,22.6726429 L19.7250881,21.6726429 L20.9350881,23.0026429 C21.0986737,23.1905486 21.3314728,23.3040763 21.5802594,23.3172695 C21.8290459,23.3304627 22.0725464,23.2421933 22.2550881,23.0726429 C22.6360903,22.7261151 22.6673035,22.1375231 22.3250881,21.7526429 L21.0850881,20.3726429 L22.2250881,19.3726429 L23.4650881,20.7426429 C23.8177324,21.0942209 24.3833682,21.109788 24.754816,20.7781382 C25.1262639,20.4464883 25.1746259,19.8827089 24.8650881,19.4926429 L24.8650881,19.4726429 Z M14.5250881,6.84264287 L13.5250881,6.84264287 L9.00508807,1.87264287 L19.0050881,1.87264287 L14.5250881,6.84264287 Z" id="Shape" fill="#484E5F"></path>
            <path d="M13.4750881,6.84264287 L19.8650881,13.9226429 C17.4334707,11.8534401 15.2849932,9.4729673 13.4750881,6.84264287 L13.4750881,6.84264287 Z" id="Path" fill="#151C32"></path>
            <rect id="Rectangle" fill="#151C32" transform="translate(18.313213, 18.759258) rotate(-42.430000) translate(-18.313213, -18.759258) " x="14.6482131" y="18.4392585" width="7.33" height="1"></rect>
            <rect id="Rectangle" fill="#151C32" transform="translate(17.454238, 17.815675) rotate(-42.430000) translate(-17.454238, -17.815675) " x="13.7892376" y="17.4956749" width="7.33" height="1"></rect>
            <rect id="Rectangle" fill="#151C32" transform="translate(16.562878, 16.850189) rotate(-42.430000) translate(-16.562878, -16.850189) " x="12.8978784" y="16.530189" width="7.33" height="1"></rect>
        </g>
    </g>
</svg>