<?xml version="1.0" encoding="UTF-8"?>
<svg width="39px" height="28px" viewBox="0 0 39 28" version="1.1" xmlns="http://www.w3.org/2000/svg" xmlns:xlink="http://www.w3.org/1999/xlink">
    <title>Untitled 66</title>
    <g id="Page-1" stroke="none" stroke-width="1" fill="none" fill-rule="evenodd">
        <g id="short" transform="translate(0.001308, 0.996643)" fill-rule="nonzero">
            <path d="M16.4886918,0.44335733 C9.9986918,-1.05664267 2.3086918,0.93335733 0.358691803,11.3233573 C-1.5913082,21.7133573 4.5086918,26.7133573 16.2386918,26.8333573 C27.9686918,26.9533573 40.3086918,24.6333573 38.2386918,15.3533573 C36.1686918,6.07335733 29.6886918,6.35335733 26.5086918,6.80335733 C23.3286918,7.25335733 21.7386918,1.67335733 16.4886918,0.44335733 Z" id="Path" fill="#E8F4FA"></path>
            <path d="M12.3086918,3.79335733 L19.9986918,4.79335733 L19.9986918,14.0033573 L19.3986918,23.7133573 C16.0971982,24.7657663 12.5501854,24.7657663 9.2486918,23.7133573 C9.2486918,23.7133573 11.3986918,7.92335733 12.3086918,3.79335733 Z" id="Path" fill="#333A4D"></path>
            <path d="M12.3086918,3.79335733 C12.2144557,4.23475379 12.1542785,4.68273932 12.1286918,5.13335733 L20.1286918,6.13335733 L19.9986918,4.79335733 L12.3086918,3.79335733 Z" id="Path" fill="#151C32"></path>
            <polygon id="Path" fill="#FFFFFF" points="15.4086918 4.20335733 16.1586918 4.29335733 16.1886918 5.82335733 15.4086918 5.73335733"></polygon>
            <path d="M27.6786918,3.79335733 L19.9986918,4.79335733 L19.9986918,14.0033573 L21.2086918,23.7133573 C24.3553749,24.9289446 27.8420087,24.9289446 30.9886918,23.7133573 C30.9886918,23.7133573 28.5886918,7.92335733 27.6786918,3.79335733 Z" id="Path" fill="#333A4D"></path>
            <path d="M19.9986918,3.62335733 C18.4686918,3.62335733 12.3086918,3.79335733 12.3086918,3.79335733 L19.9986918,4.79335733 L27.6786918,3.79335733 C27.6786918,3.79335733 21.5286918,3.59335733 19.9986918,3.62335733 Z" id="Path" fill="#333A4D"></path>
            <path d="M19.9286918,4.80335733 L21.3586918,4.69335733 C21.3586918,4.69335733 21.3586918,9.75335733 21.3586918,10.4833573 C21.064905,10.9424896 20.6296423,11.293508 20.1186918,11.4833573 L19.9286918,4.80335733 Z" id="Path" fill="#151C32"></path>
            <path d="M27.6786918,3.79335733 C27.6786918,3.79335733 27.7986918,4.58335733 27.8586918,5.13335733 C27.8586918,5.13335733 21.7386918,6.47335733 18.3886918,5.92335733 L18.3886918,4.58335733 C21.50008,4.53875405 24.6044485,4.27476578 27.6786918,3.79335733 L27.6786918,3.79335733 Z" id="Path" fill="#151C32"></path>
            <polygon id="Path" fill="#FFFFFF" points="24.5786918 4.20335733 23.8386918 4.29335733 23.8386918 6.00335733 24.5786918 5.89335733"></polygon>
        </g>
    </g>
</svg>