<?xml version="1.0" encoding="UTF-8"?>
<svg width="33px" height="23px" viewBox="0 0 33 23" version="1.1" xmlns="http://www.w3.org/2000/svg" xmlns:xlink="http://www.w3.org/1999/xlink">
    <title>Untitled 22</title>
    <g id="Page-1" stroke="none" stroke-width="1" fill="none" fill-rule="evenodd">
        <g id="mantelchico" transform="translate(0.994912, 0.999605)" fill-rule="nonzero">
            <path d="M13.4350881,0.360394701 C8.17508807,-0.859605299 1.89508807,0.760394701 0.295088069,9.2203947 C-1.30491193,17.6803947 3.68508807,21.7603947 13.2350881,21.8603947 C22.7850881,21.9603947 32.8450881,20.0703947 31.1550881,12.5103947 C29.4650881,4.9503947 24.1550881,5.1403947 21.6050881,5.5103947 C19.0550881,5.8803947 17.7150881,1.3603947 13.4350881,0.360394701 Z" id="Path" fill="#E8F4FA"></path>
            <path d="M28.6351791,7.2603947 C28.6378274,7.41239133 28.5786541,7.55897012 28.4711588,7.66646542 C28.3636635,7.77396072 28.2170847,7.83313405 28.0650881,7.8303947 L2.00508807,7.8303947 C1.85575356,7.8325344 1.7117512,7.77493346 1.60508807,7.6703947 C1.49535368,7.56231012 1.43403205,7.41441676 1.43508807,7.2603947 C1.42041458,7.17339555 1.42728146,7.08412615 1.45508807,7.0003947 C1.55714829,6.79371458 1.77542637,6.67068512 2.00508807,6.6903947 L28.0650881,6.6903947 C28.2165933,6.68727165 28.3621892,6.74914988 28.4650881,6.8603947 C28.5224692,6.90887948 28.5671027,6.9706797 28.5950881,7.0403947 C28.6101846,7.11295108 28.6101846,7.18783832 28.5950881,7.2603947 L28.6351791,7.2603947 Z" id="Path" fill="#151C32"></path>
            <path d="M26.7450881,7.8303947 L3.30508807,7.8303947 L3.30508807,9.4503947 C3.30508807,9.80551053 3.59001426,10.0949314 3.94508807,10.1003947 L26.0950881,10.1003947 C26.4540732,10.1003947 26.7450881,9.80937979 26.7450881,9.4503947 L26.7450881,7.8303947 Z" id="Path" fill="#151C32"></path>
            <path d="M5.08508807,10.1003947 L5.08508807,21.1003947 C5.08508807,21.2936944 4.92838773,21.4503947 4.73508807,21.4503947 L4.73508807,21.4503947 C4.54570458,21.4449815 4.39501072,21.2898555 4.39508807,21.1003947 L4.39508807,10.1003947 L5.08508807,10.1003947 Z" id="Path" fill="#151C32"></path>
            <path d="M26.0950881,10.1003947 L26.0950881,21.1003947 C26.0950881,21.2936944 25.9383877,21.4503947 25.7450881,21.4503947 L25.7450881,21.4503947 C25.6522623,21.4503947 25.5632384,21.4135198 25.4976007,21.3478821 C25.431963,21.2822443 25.3950881,21.1932205 25.3950881,21.1003947 L25.3950881,10.1003947 L26.0950881,10.1003947 Z" id="Path" fill="#151C32"></path>
            <path d="M23.3250881,6.6903947 L23.3250881,12.3503947 C23.3250881,12.7803947 22.7750881,13.1203947 22.0950881,13.1203947 L8.00508807,13.1203947 C7.31508807,13.1203947 6.76508807,12.7803947 6.76508807,12.3503947 L6.76508807,6.6903947 L23.3250881,6.6903947 Z" id="Path" fill="#151C32"></path>
            <path d="M21.5950881,6.6903947 L21.5950881,7.7703947 L20.0050881,7.7703947 L20.0050881,6.6903947 L19.4050881,6.6903947 L19.4050881,7.7703947 L17.6750881,7.7703947 L17.6750881,6.6903947 L17.0650881,6.6903947 L17.0650881,7.7703947 L15.3250881,7.7703947 L15.3250881,6.6903947 L14.7150881,6.6903947 L14.7150881,7.7703947 L13.0050881,7.7703947 L13.0050881,6.6903947 L12.3950881,6.6903947 L12.3950881,7.7703947 L10.6350881,7.7703947 L10.6350881,6.6903947 L10.0050881,6.6903947 L10.0050881,7.7703947 L8.44508807,7.7703947 L8.44508807,6.6903947 L6.71508807,6.6903947 L6.71508807,12.3503947 C6.71508807,12.7803947 7.26508807,13.1203947 7.95508807,13.1203947 L22.0950881,13.1203947 C22.7750881,13.1203947 23.3250881,12.7803947 23.3250881,12.3503947 L23.3250881,6.6903947 L21.5950881,6.6903947 Z M10.0050881,12.0003947 L8.44508807,12.0003947 L8.44508807,11.0003947 L10.0050881,11.0003947 L10.0050881,12.0003947 Z M10.0050881,10.6503947 L8.44508807,10.6503947 L8.44508807,9.6103947 L10.0050881,9.6103947 L10.0050881,10.6503947 Z M10.0050881,9.1903947 L8.44508807,9.1903947 L8.44508807,8.1503947 L10.0050881,8.1503947 L10.0050881,9.1903947 Z M12.3650881,12.0003947 L10.6350881,12.0003947 L10.6350881,11.0003947 L12.3650881,11.0003947 L12.3650881,12.0003947 Z M12.3650881,10.6503947 L10.6350881,10.6503947 L10.6350881,9.6103947 L12.3650881,9.6103947 L12.3650881,10.6503947 Z M12.3650881,9.1903947 L10.6350881,9.1903947 L10.6350881,8.1503947 L12.3650881,8.1503947 L12.3650881,9.1903947 Z M14.7150881,12.0003947 L13.0050881,12.0003947 L13.0050881,11.0003947 L14.7450881,11.0003947 L14.7150881,12.0003947 Z M14.7150881,10.6503947 L13.0050881,10.6503947 L13.0050881,9.6103947 L14.7450881,9.6103947 L14.7150881,10.6503947 Z M14.7150881,9.1903947 L13.0050881,9.1903947 L13.0050881,8.1503947 L14.7450881,8.1503947 L14.7150881,9.1903947 Z M17.0650881,12.0003947 L15.3250881,12.0003947 L15.3250881,11.0003947 L17.0650881,11.0003947 L17.0650881,12.0003947 Z M17.0650881,10.6503947 L15.3250881,10.6503947 L15.3250881,9.6103947 L17.0650881,9.6103947 L17.0650881,10.6503947 Z M17.0650881,9.1903947 L15.3250881,9.1903947 L15.3250881,8.1503947 L17.0650881,8.1503947 L17.0650881,9.1903947 Z M19.4150881,12.0003947 L17.6750881,12.0003947 L17.6750881,11.0003947 L19.4150881,11.0003947 L19.4150881,12.0003947 Z M19.4150881,10.6503947 L17.6750881,10.6503947 L17.6750881,9.6103947 L19.4150881,9.6103947 L19.4150881,10.6503947 Z M19.4150881,9.1903947 L17.6750881,9.1903947 L17.6750881,8.1503947 L19.4150881,8.1503947 L19.4150881,9.1903947 Z M21.5950881,12.0003947 L20.0050881,12.0003947 L20.0050881,11.0003947 L21.5850881,11.0003947 L21.5950881,12.0003947 Z M21.5950881,10.6503947 L20.0050881,10.6503947 L20.0050881,9.6103947 L21.5850881,9.6103947 L21.5950881,10.6503947 Z M21.5950881,9.1903947 L20.0050881,9.1903947 L20.0050881,8.1503947 L21.5850881,8.1503947 L21.5950881,9.1903947 Z" id="Shape" fill="#484E5F"></path>
        </g>
    </g>
</svg>